<svg width="500" height="500" viewBox="0 0 500 500" fill="none" xmlns="http://www.w3.org/2000/svg">
<rect width="500" height="500" fill="#F5F5F5"/>
<rect width="500" height="500" fill="white"/>
<ellipse cx="225" cy="105.5" rx="24" ry="22.5" fill="#028FCC"/>
<path fill-rule="evenodd" clip-rule="evenodd" d="M220.269 144.631C208.63 135.23 106.316 107.455 89 185.653C71.6843 263.851 152.78 361 265.191 367C377.603 373 424.104 249.323 406 165.997C395.67 118.453 365.144 90.9617 337.191 88.4237C316.154 86.5136 286.5 103.5 265.191 144.631C263.691 148 233.691 144.631 233.691 144.631L236.218 165.997H288.375V180.098H236.218L238.804 205.309H310.79L351.309 278.807L370.275 268.124L377.603 278.807C367.114 283.935 346.05 294.105 345.705 293.763C345.36 293.421 303.462 218.556 303.462 218.556H228.028L220.269 144.631ZM322.356 277.525C250.277 408.758 81.4298 253.171 200.368 174.97L206.475 185.653C97.4011 259.339 261.267 373.811 310.79 275.389L322.356 277.525Z" fill="#028FCC"/>
<path d="M65.4254 405H63.5788L71.3345 390.455H73.1527L76.0788 405H74.2322L71.9311 392.756H71.8175L65.4254 405ZM67.0447 399.318H74.4879L74.2322 400.881H66.7891L67.0447 399.318ZM87.2649 396.534L85.674 396.96C85.6172 396.705 85.5178 396.458 85.3757 396.222C85.2384 395.98 85.0253 395.784 84.7365 395.632C84.4524 395.476 84.0642 395.398 83.5717 395.398C82.9041 395.398 82.3241 395.552 81.8317 395.859C81.3393 396.162 81.0575 396.548 80.9865 397.017C80.9155 397.429 81.0102 397.758 81.2706 398.004C81.531 398.25 81.9666 398.452 82.5774 398.608L84.1399 399.006C85.0774 399.247 85.745 399.609 86.1428 400.092C86.5452 400.571 86.6825 401.193 86.5547 401.96C86.4505 402.585 86.1783 403.144 85.7379 403.636C85.2976 404.129 84.7341 404.517 84.0476 404.801C83.361 405.085 82.5964 405.227 81.7536 405.227C80.6314 405.227 79.746 404.986 79.0973 404.503C78.4486 404.015 78.103 403.31 78.0604 402.386L79.7365 401.989C79.7791 402.571 79.9875 403.011 80.3615 403.31C80.7403 403.603 81.2706 403.75 81.9524 403.75C82.7337 403.75 83.3847 403.584 83.9055 403.253C84.4264 402.917 84.7223 402.514 84.7933 402.045C84.8643 401.662 84.7886 401.342 84.5661 401.087C84.3482 400.831 83.9695 400.639 83.4297 400.511L81.6967 400.085C80.7308 399.844 80.0537 399.474 79.6655 398.977C79.282 398.48 79.1541 397.855 79.282 397.102C79.3861 396.487 79.6513 395.942 80.0774 395.469C80.5083 394.995 81.0481 394.624 81.6967 394.354C82.3501 394.084 83.0604 393.949 83.8274 393.949C84.907 393.949 85.7143 394.186 86.2493 394.659C86.7843 395.128 87.1229 395.753 87.2649 396.534ZM97.7141 396.534L96.1232 396.96C96.0664 396.705 95.967 396.458 95.8249 396.222C95.6876 395.98 95.4746 395.784 95.1857 395.632C94.9016 395.476 94.5134 395.398 94.021 395.398C93.3533 395.398 92.7733 395.552 92.2809 395.859C91.7885 396.162 91.5067 396.548 91.4357 397.017C91.3647 397.429 91.4594 397.758 91.7198 398.004C91.9802 398.25 92.4158 398.452 93.0266 398.608L94.5891 399.006C95.5266 399.247 96.1942 399.609 96.592 400.092C96.9944 400.571 97.1317 401.193 97.0039 401.96C96.8997 402.585 96.6275 403.144 96.1871 403.636C95.7468 404.129 95.1834 404.517 94.4968 404.801C93.8103 405.085 93.0456 405.227 92.2028 405.227C91.0806 405.227 90.1952 404.986 89.5465 404.503C88.8978 404.015 88.5522 403.31 88.5096 402.386L90.1857 401.989C90.2283 402.571 90.4367 403.011 90.8107 403.31C91.1895 403.603 91.7198 403.75 92.4016 403.75C93.1829 403.75 93.8339 403.584 94.3548 403.253C94.8756 402.917 95.1715 402.514 95.2425 402.045C95.3136 401.662 95.2378 401.342 95.0153 401.087C94.7975 400.831 94.4187 400.639 93.8789 400.511L92.146 400.085C91.18 399.844 90.503 399.474 90.1147 398.977C89.7312 398.48 89.6033 397.855 89.7312 397.102C89.8353 396.487 90.1005 395.942 90.5266 395.469C90.9575 394.995 91.4973 394.624 92.146 394.354C92.7994 394.084 93.5096 393.949 94.2766 393.949C95.3562 393.949 96.1635 394.186 96.6985 394.659C97.2335 395.128 97.5721 395.753 97.7141 396.534ZM103.518 405.227C102.515 405.227 101.674 404.988 100.997 404.51C100.32 404.032 99.8419 403.362 99.5625 402.5C99.2879 401.638 99.2429 400.634 99.4276 399.489C99.6075 398.371 99.965 397.398 100.5 396.57C101.04 395.736 101.71 395.092 102.51 394.638C103.315 394.179 104.2 393.949 105.166 393.949C106.17 393.949 107.008 394.19 107.68 394.673C108.357 395.152 108.836 395.824 109.115 396.69C109.394 397.552 109.442 398.561 109.257 399.716C109.077 400.824 108.715 401.792 108.17 402.621C107.631 403.445 106.961 404.086 106.161 404.545C105.365 405 104.484 405.227 103.518 405.227ZM103.547 403.722C104.314 403.722 104.979 403.525 105.543 403.132C106.111 402.739 106.57 402.221 106.92 401.577C107.276 400.933 107.515 400.237 107.638 399.489C107.751 398.778 107.747 398.118 107.624 397.507C107.5 396.892 107.238 396.397 106.835 396.023C106.433 395.644 105.867 395.455 105.138 395.455C104.371 395.455 103.701 395.653 103.128 396.051C102.56 396.449 102.1 396.972 101.75 397.621C101.4 398.269 101.165 398.968 101.047 399.716C100.933 400.426 100.936 401.087 101.054 401.697C101.177 402.304 101.44 402.794 101.842 403.168C102.25 403.537 102.818 403.722 103.547 403.722ZM115.353 405.227C114.325 405.227 113.482 404.986 112.824 404.503C112.171 404.02 111.716 403.355 111.461 402.507C111.205 401.66 111.167 400.691 111.347 399.602C111.527 398.494 111.891 397.517 112.441 396.669C112.99 395.817 113.674 395.152 114.493 394.673C115.312 394.19 116.214 393.949 117.199 393.949C117.966 393.949 118.634 394.091 119.202 394.375C119.77 394.659 120.208 395.057 120.516 395.568C120.824 396.08 120.968 396.676 120.949 397.358H119.273C119.226 396.861 119.013 396.42 118.634 396.037C118.26 395.649 117.706 395.455 116.972 395.455C116.319 395.455 115.717 395.625 115.168 395.966C114.619 396.302 114.157 396.778 113.783 397.393C113.409 398.004 113.156 398.722 113.023 399.545C112.881 400.388 112.893 401.122 113.059 401.747C113.224 402.372 113.525 402.857 113.961 403.203C114.396 403.549 114.945 403.722 115.608 403.722C116.044 403.722 116.451 403.646 116.83 403.494C117.209 403.343 117.545 403.125 117.838 402.841C118.132 402.557 118.364 402.216 118.534 401.818H120.211C120.002 402.462 119.668 403.042 119.209 403.558C118.75 404.07 118.194 404.477 117.54 404.78C116.887 405.078 116.158 405.227 115.353 405.227ZM122.121 405L123.939 394.091H125.615L123.797 405H122.121ZM125.289 392.244C124.962 392.244 124.68 392.133 124.444 391.911C124.212 391.688 124.096 391.42 124.096 391.108C124.096 390.795 124.212 390.528 124.444 390.305C124.68 390.083 124.962 389.972 125.289 389.972C125.615 389.972 125.895 390.083 126.127 390.305C126.364 390.528 126.482 390.795 126.482 391.108C126.482 391.42 126.364 391.688 126.127 391.911C125.895 392.133 125.615 392.244 125.289 392.244ZM130.049 405.256C129.358 405.256 128.752 405.125 128.231 404.865C127.71 404.6 127.324 404.219 127.073 403.722C126.822 403.22 126.754 402.614 126.867 401.903C126.976 401.278 127.187 400.772 127.499 400.384C127.812 399.991 128.191 399.683 128.636 399.46C129.085 399.233 129.568 399.065 130.085 398.956C130.605 398.842 131.124 398.755 131.64 398.693C132.312 398.608 132.859 398.542 133.281 398.494C133.702 398.447 134.019 398.369 134.232 398.26C134.445 398.151 134.576 397.964 134.623 397.699V397.642C134.737 396.946 134.644 396.404 134.346 396.016C134.048 395.623 133.515 395.426 132.748 395.426C131.952 395.426 131.287 395.601 130.752 395.952C130.217 396.302 129.822 396.676 129.566 397.074L128.089 396.506C128.477 395.843 128.941 395.327 129.481 394.957C130.021 394.583 130.586 394.323 131.178 394.176C131.77 394.025 132.341 393.949 132.89 393.949C133.24 393.949 133.636 393.991 134.076 394.077C134.516 394.157 134.928 394.325 135.312 394.581C135.7 394.837 135.991 395.223 136.185 395.739C136.384 396.255 136.413 396.946 136.271 397.812L135.077 405H133.401L133.657 403.523H133.572C133.42 403.759 133.188 404.013 132.876 404.283C132.568 404.553 132.177 404.782 131.704 404.972C131.235 405.161 130.683 405.256 130.049 405.256ZM130.532 403.75C131.195 403.75 131.775 403.62 132.272 403.359C132.774 403.099 133.176 402.763 133.479 402.351C133.787 401.939 133.979 401.506 134.055 401.051L134.31 399.517C134.225 399.602 134.057 399.68 133.806 399.751C133.555 399.818 133.271 399.877 132.954 399.929C132.641 399.976 132.336 400.019 132.038 400.057C131.744 400.09 131.507 400.118 131.327 400.142C130.882 400.199 130.459 400.291 130.056 400.419C129.658 400.542 129.322 400.729 129.048 400.98C128.778 401.226 128.61 401.562 128.543 401.989C128.444 402.571 128.584 403.011 128.962 403.31C129.341 403.603 129.864 403.75 130.532 403.75ZM142.54 405.227C141.513 405.227 140.67 404.986 140.012 404.503C139.358 404.02 138.904 403.355 138.648 402.507C138.392 401.66 138.355 400.691 138.534 399.602C138.714 398.494 139.079 397.517 139.628 396.669C140.177 395.817 140.862 395.152 141.681 394.673C142.5 394.19 143.402 393.949 144.387 393.949C145.154 393.949 145.821 394.091 146.39 394.375C146.958 394.659 147.396 395.057 147.703 395.568C148.011 396.08 148.156 396.676 148.137 397.358H146.461C146.413 396.861 146.2 396.42 145.821 396.037C145.447 395.649 144.893 395.455 144.159 395.455C143.506 395.455 142.905 395.625 142.355 395.966C141.806 396.302 141.345 396.778 140.971 397.393C140.596 398.004 140.343 398.722 140.211 399.545C140.069 400.388 140.08 401.122 140.246 401.747C140.412 402.372 140.712 402.857 141.148 403.203C141.584 403.549 142.133 403.722 142.796 403.722C143.231 403.722 143.639 403.646 144.017 403.494C144.396 403.343 144.732 403.125 145.026 402.841C145.319 402.557 145.551 402.216 145.722 401.818H147.398C147.19 402.462 146.856 403.042 146.397 403.558C145.937 404.07 145.381 404.477 144.728 404.78C144.074 405.078 143.345 405.227 142.54 405.227ZM141.915 404.943H143.307L143.08 405.511C143.449 405.568 143.764 405.722 144.025 405.973C144.29 406.229 144.373 406.634 144.273 407.188C144.174 407.798 143.84 408.295 143.272 408.679C142.703 409.067 141.929 409.261 140.949 409.261L141.091 408.153C141.532 408.153 141.906 408.082 142.213 407.94C142.526 407.803 142.711 407.571 142.767 407.244C142.824 406.918 142.741 406.695 142.519 406.577C142.296 406.458 141.915 406.378 141.375 406.335L141.915 404.943ZM152.49 405.256C151.799 405.256 151.193 405.125 150.672 404.865C150.151 404.6 149.766 404.219 149.515 403.722C149.264 403.22 149.195 402.614 149.309 401.903C149.417 401.278 149.628 400.772 149.941 400.384C150.253 399.991 150.632 399.683 151.077 399.46C151.527 399.233 152.01 399.065 152.526 398.956C153.047 398.842 153.565 398.755 154.081 398.693C154.754 398.608 155.301 398.542 155.722 398.494C156.143 398.447 156.461 398.369 156.674 398.26C156.887 398.151 157.017 397.964 157.064 397.699V397.642C157.178 396.946 157.086 396.404 156.787 396.016C156.489 395.623 155.956 395.426 155.189 395.426C154.394 395.426 153.729 395.601 153.194 395.952C152.658 396.302 152.263 396.676 152.007 397.074L150.53 396.506C150.918 395.843 151.382 395.327 151.922 394.957C152.462 394.583 153.028 394.323 153.62 394.176C154.212 394.025 154.782 393.949 155.331 393.949C155.682 393.949 156.077 393.991 156.517 394.077C156.958 394.157 157.37 394.325 157.753 394.581C158.141 394.837 158.433 395.223 158.627 395.739C158.826 396.255 158.854 396.946 158.712 397.812L157.519 405H155.843L156.098 403.523H156.013C155.862 403.759 155.63 404.013 155.317 404.283C155.009 404.553 154.619 404.782 154.145 404.972C153.676 405.161 153.125 405.256 152.49 405.256ZM152.973 403.75C153.636 403.75 154.216 403.62 154.713 403.359C155.215 403.099 155.618 402.763 155.921 402.351C156.229 401.939 156.42 401.506 156.496 401.051L156.752 399.517C156.667 399.602 156.498 399.68 156.248 399.751C155.997 399.818 155.712 399.877 155.395 399.929C155.083 399.976 154.777 400.019 154.479 400.057C154.185 400.09 153.949 400.118 153.769 400.142C153.324 400.199 152.9 400.291 152.498 400.419C152.1 400.542 151.764 400.729 151.489 400.98C151.219 401.226 151.051 401.562 150.985 401.989C150.885 402.571 151.025 403.011 151.404 403.31C151.783 403.603 152.306 403.75 152.973 403.75ZM153.428 392.784L152.15 392.727C152.263 392.003 152.564 391.411 153.051 390.952C153.544 390.488 154.096 390.256 154.706 390.256C154.976 390.256 155.208 390.303 155.402 390.398C155.596 390.488 155.779 390.592 155.949 390.71C156.12 390.829 156.297 390.935 156.482 391.03C156.671 391.12 156.894 391.165 157.15 391.165C157.419 391.165 157.666 391.061 157.888 390.852C158.111 390.639 158.243 390.384 158.286 390.085L159.536 390.199C159.422 390.937 159.119 391.525 158.627 391.96C158.139 392.396 157.59 392.614 156.979 392.614C156.652 392.614 156.392 392.569 156.198 392.479C156.004 392.384 155.833 392.277 155.686 392.159C155.54 392.041 155.383 391.937 155.218 391.847C155.052 391.752 154.834 391.705 154.564 391.705C154.294 391.705 154.051 391.811 153.833 392.024C153.62 392.232 153.485 392.486 153.428 392.784ZM165.081 405.227C164.077 405.227 163.237 404.988 162.56 404.51C161.883 404.032 161.404 403.362 161.125 402.5C160.85 401.638 160.805 400.634 160.99 399.489C161.17 398.371 161.527 397.398 162.062 396.57C162.602 395.736 163.272 395.092 164.072 394.638C164.877 394.179 165.763 393.949 166.729 393.949C167.732 393.949 168.571 394.19 169.243 394.673C169.92 395.152 170.398 395.824 170.678 396.69C170.957 397.552 171.004 398.561 170.82 399.716C170.64 400.824 170.277 401.792 169.733 402.621C169.193 403.445 168.523 404.086 167.723 404.545C166.928 405 166.047 405.227 165.081 405.227ZM165.109 403.722C165.876 403.722 166.542 403.525 167.105 403.132C167.673 402.739 168.133 402.221 168.483 401.577C168.838 400.933 169.077 400.237 169.2 399.489C169.314 398.778 169.309 398.118 169.186 397.507C169.063 396.892 168.8 396.397 168.398 396.023C167.995 395.644 167.429 395.455 166.7 395.455C165.933 395.455 165.263 395.653 164.69 396.051C164.122 396.449 163.663 396.972 163.312 397.621C162.962 398.269 162.728 398.968 162.609 399.716C162.496 400.426 162.498 401.087 162.616 401.697C162.74 402.304 163.002 402.794 163.405 403.168C163.812 403.537 164.38 403.722 165.109 403.722ZM182.242 405.227C181.328 405.227 180.561 404.998 179.941 404.538C179.32 404.074 178.882 403.421 178.627 402.578C178.376 401.731 178.345 400.729 178.534 399.574C178.729 398.428 179.091 397.434 179.621 396.591C180.156 395.748 180.812 395.097 181.588 394.638C182.365 394.179 183.212 393.949 184.131 393.949C184.841 393.949 185.383 394.067 185.757 394.304C186.136 394.536 186.411 394.801 186.581 395.099C186.752 395.393 186.882 395.634 186.972 395.824H187.114L188.009 390.455H189.685L187.27 405H185.651L185.935 403.324H185.736C185.58 403.523 185.362 403.774 185.083 404.077C184.803 404.375 184.434 404.643 183.975 404.879C183.52 405.111 182.943 405.227 182.242 405.227ZM182.654 403.722C183.326 403.722 183.927 403.546 184.458 403.196C184.993 402.841 185.438 402.351 185.793 401.726C186.148 401.096 186.394 400.369 186.532 399.545C186.669 398.731 186.664 398.018 186.517 397.408C186.371 396.792 186.089 396.314 185.672 395.973C185.256 395.627 184.704 395.455 184.017 395.455C183.312 395.455 182.699 395.637 182.178 396.001C181.657 396.361 181.233 396.851 180.907 397.472C180.58 398.087 180.353 398.778 180.225 399.545C180.097 400.322 180.095 401.027 180.218 401.662C180.341 402.292 180.601 402.794 180.999 403.168C181.401 403.537 181.953 403.722 182.654 403.722ZM193.74 405.256C193.049 405.256 192.443 405.125 191.922 404.865C191.401 404.6 191.016 404.219 190.765 403.722C190.514 403.22 190.445 402.614 190.559 401.903C190.667 401.278 190.878 400.772 191.191 400.384C191.503 399.991 191.882 399.683 192.327 399.46C192.777 399.233 193.26 399.065 193.776 398.956C194.297 398.842 194.815 398.755 195.331 398.693C196.004 398.608 196.551 398.542 196.972 398.494C197.393 398.447 197.711 398.369 197.924 398.26C198.137 398.151 198.267 397.964 198.314 397.699V397.642C198.428 396.946 198.336 396.404 198.037 396.016C197.739 395.623 197.206 395.426 196.439 395.426C195.644 395.426 194.979 395.601 194.444 395.952C193.908 396.302 193.513 396.676 193.257 397.074L191.78 396.506C192.168 395.843 192.632 395.327 193.172 394.957C193.712 394.583 194.278 394.323 194.87 394.176C195.462 394.025 196.032 393.949 196.581 393.949C196.932 393.949 197.327 393.991 197.767 394.077C198.208 394.157 198.62 394.325 199.003 394.581C199.391 394.837 199.683 395.223 199.877 395.739C200.076 396.255 200.104 396.946 199.962 397.812L198.769 405H197.093L197.348 403.523H197.263C197.112 403.759 196.88 404.013 196.567 404.283C196.259 404.553 195.869 404.782 195.395 404.972C194.926 405.161 194.375 405.256 193.74 405.256ZM194.223 403.75C194.886 403.75 195.466 403.62 195.963 403.359C196.465 403.099 196.868 402.763 197.171 402.351C197.479 401.939 197.67 401.506 197.746 401.051L198.002 399.517C197.917 399.602 197.748 399.68 197.498 399.751C197.247 399.818 196.962 399.877 196.645 399.929C196.333 399.976 196.027 400.019 195.729 400.057C195.435 400.09 195.199 400.118 195.019 400.142C194.574 400.199 194.15 400.291 193.748 400.419C193.35 400.542 193.014 400.729 192.739 400.98C192.469 401.226 192.301 401.562 192.235 401.989C192.135 402.571 192.275 403.011 192.654 403.31C193.033 403.603 193.556 403.75 194.223 403.75ZM207.68 405L210.095 390.455H215.01C216.146 390.455 217.044 390.658 217.702 391.065C218.365 391.473 218.812 392.024 219.044 392.72C219.281 393.416 219.328 394.195 219.186 395.057C219.044 395.909 218.739 396.686 218.27 397.386C217.806 398.087 217.176 398.646 216.381 399.062C215.59 399.479 214.631 399.688 213.504 399.688H209.982L210.237 398.125H213.703C214.48 398.125 215.128 397.99 215.649 397.72C216.17 397.45 216.577 397.083 216.871 396.619C217.164 396.155 217.358 395.634 217.453 395.057C217.548 394.47 217.524 393.949 217.382 393.494C217.245 393.035 216.958 392.675 216.523 392.415C216.092 392.15 215.483 392.017 214.697 392.017H211.601L209.442 405H207.68ZM224.557 405.227C223.511 405.227 222.647 404.995 221.965 404.531C221.283 404.062 220.807 403.409 220.537 402.571C220.267 401.728 220.225 400.748 220.409 399.631C220.594 398.513 220.961 397.528 221.51 396.676C222.06 395.819 222.744 395.152 223.563 394.673C224.382 394.19 225.282 393.949 226.262 393.949C226.83 393.949 227.377 394.044 227.902 394.233C228.428 394.422 228.882 394.73 229.266 395.156C229.65 395.578 229.917 396.136 230.069 396.832C230.22 397.528 230.211 398.385 230.04 399.403L229.926 400.114H221.517L221.745 398.665H228.449C228.558 398.049 228.53 397.5 228.364 397.017C228.203 396.534 227.921 396.153 227.519 395.874C227.121 395.594 226.617 395.455 226.006 395.455C225.376 395.455 224.789 395.625 224.245 395.966C223.7 396.302 223.246 396.728 222.881 397.244C222.516 397.756 222.289 398.277 222.199 398.807L222 400.057C221.858 400.961 221.88 401.681 222.064 402.216C222.254 402.751 222.583 403.137 223.051 403.374C223.52 403.606 224.107 403.722 224.813 403.722C225.263 403.722 225.677 403.66 226.056 403.537C226.435 403.409 226.773 403.22 227.071 402.969C227.37 402.713 227.621 402.396 227.824 402.017L229.358 402.472C229.098 403.021 228.731 403.504 228.257 403.92C227.789 404.332 227.239 404.654 226.61 404.886C225.985 405.114 225.301 405.227 224.557 405.227ZM240.839 396.534L239.248 396.96C239.191 396.705 239.092 396.458 238.95 396.222C238.813 395.98 238.6 395.784 238.311 395.632C238.027 395.476 237.638 395.398 237.146 395.398C236.478 395.398 235.898 395.552 235.406 395.859C234.913 396.162 234.632 396.548 234.561 397.017C234.49 397.429 234.584 397.758 234.845 398.004C235.105 398.25 235.541 398.452 236.152 398.608L237.714 399.006C238.652 399.247 239.319 399.609 239.717 400.092C240.119 400.571 240.257 401.193 240.129 401.96C240.025 402.585 239.752 403.144 239.312 403.636C238.872 404.129 238.308 404.517 237.622 404.801C236.935 405.085 236.171 405.227 235.328 405.227C234.206 405.227 233.32 404.986 232.672 404.503C232.023 404.015 231.677 403.31 231.635 402.386L233.311 401.989C233.353 402.571 233.562 403.011 233.936 403.31C234.315 403.603 234.845 403.75 235.527 403.75C236.308 403.75 236.959 403.584 237.48 403.253C238.001 402.917 238.297 402.514 238.368 402.045C238.439 401.662 238.363 401.342 238.14 401.087C237.922 400.831 237.544 400.639 237.004 400.511L235.271 400.085C234.305 399.844 233.628 399.474 233.24 398.977C232.856 398.48 232.728 397.855 232.856 397.102C232.96 396.487 233.225 395.942 233.652 395.469C234.083 394.995 234.622 394.624 235.271 394.354C235.924 394.084 236.635 393.949 237.402 393.949C238.481 393.949 239.288 394.186 239.824 394.659C240.359 395.128 240.697 395.753 240.839 396.534ZM251.288 396.534L249.697 396.96C249.641 396.705 249.541 396.458 249.399 396.222C249.262 395.98 249.049 395.784 248.76 395.632C248.476 395.476 248.088 395.398 247.595 395.398C246.928 395.398 246.348 395.552 245.855 395.859C245.363 396.162 245.081 396.548 245.01 397.017C244.939 397.429 245.034 397.758 245.294 398.004C245.554 398.25 245.99 398.452 246.601 398.608L248.163 399.006C249.101 399.247 249.768 399.609 250.166 400.092C250.569 400.571 250.706 401.193 250.578 401.96C250.474 402.585 250.202 403.144 249.761 403.636C249.321 404.129 248.758 404.517 248.071 404.801C247.384 405.085 246.62 405.227 245.777 405.227C244.655 405.227 243.769 404.986 243.121 404.503C242.472 404.015 242.126 403.31 242.084 402.386L243.76 401.989C243.803 402.571 244.011 403.011 244.385 403.31C244.764 403.603 245.294 403.75 245.976 403.75C246.757 403.75 247.408 403.584 247.929 403.253C248.45 402.917 248.746 402.514 248.817 402.045C248.888 401.662 248.812 401.342 248.589 401.087C248.372 400.831 247.993 400.639 247.453 400.511L245.72 400.085C244.754 399.844 244.077 399.474 243.689 398.977C243.305 398.48 243.178 397.855 243.305 397.102C243.41 396.487 243.675 395.942 244.101 395.469C244.532 394.995 245.071 394.624 245.72 394.354C246.374 394.084 247.084 393.949 247.851 393.949C248.93 393.949 249.738 394.186 250.273 394.659C250.808 395.128 251.146 395.753 251.288 396.534ZM257.093 405.227C256.089 405.227 255.248 404.988 254.571 404.51C253.894 404.032 253.416 403.362 253.137 402.5C252.862 401.638 252.817 400.634 253.002 399.489C253.182 398.371 253.539 397.398 254.074 396.57C254.614 395.736 255.284 395.092 256.084 394.638C256.889 394.179 257.775 393.949 258.74 393.949C259.744 393.949 260.582 394.19 261.255 394.673C261.932 395.152 262.41 395.824 262.689 396.69C262.969 397.552 263.016 398.561 262.831 399.716C262.651 400.824 262.289 401.792 261.745 402.621C261.205 403.445 260.535 404.086 259.735 404.545C258.939 405 258.059 405.227 257.093 405.227ZM257.121 403.722C257.888 403.722 258.553 403.525 259.117 403.132C259.685 402.739 260.144 402.221 260.495 401.577C260.85 400.933 261.089 400.237 261.212 399.489C261.326 398.778 261.321 398.118 261.198 397.507C261.075 396.892 260.812 396.397 260.409 396.023C260.007 395.644 259.441 395.455 258.712 395.455C257.945 395.455 257.275 395.653 256.702 396.051C256.134 396.449 255.675 396.972 255.324 397.621C254.974 398.269 254.739 398.968 254.621 399.716C254.507 400.426 254.51 401.087 254.628 401.697C254.751 402.304 255.014 402.794 255.417 403.168C255.824 403.537 256.392 403.722 257.121 403.722ZM267.705 405.256C267.014 405.256 266.408 405.125 265.887 404.865C265.366 404.6 264.98 404.219 264.729 403.722C264.478 403.22 264.41 402.614 264.523 401.903C264.632 401.278 264.843 400.772 265.156 400.384C265.468 399.991 265.847 399.683 266.292 399.46C266.742 399.233 267.225 399.065 267.741 398.956C268.262 398.842 268.78 398.755 269.296 398.693C269.969 398.608 270.515 398.542 270.937 398.494C271.358 398.447 271.675 398.369 271.888 398.26C272.102 398.151 272.232 397.964 272.279 397.699V397.642C272.393 396.946 272.3 396.404 272.002 396.016C271.704 395.623 271.171 395.426 270.404 395.426C269.609 395.426 268.943 395.601 268.408 395.952C267.873 396.302 267.478 396.676 267.222 397.074L265.745 396.506C266.133 395.843 266.597 395.327 267.137 394.957C267.677 394.583 268.243 394.323 268.835 394.176C269.426 394.025 269.997 393.949 270.546 393.949C270.897 393.949 271.292 393.991 271.732 394.077C272.173 394.157 272.585 394.325 272.968 394.581C273.356 394.837 273.647 395.223 273.842 395.739C274.04 396.255 274.069 396.946 273.927 397.812L272.734 405H271.058L271.313 403.523H271.228C271.076 403.759 270.844 404.013 270.532 404.283C270.224 404.553 269.834 404.782 269.36 404.972C268.891 405.161 268.34 405.256 267.705 405.256ZM268.188 403.75C268.851 403.75 269.431 403.62 269.928 403.359C270.43 403.099 270.833 402.763 271.136 402.351C271.443 401.939 271.635 401.506 271.711 401.051L271.967 399.517C271.881 399.602 271.713 399.68 271.462 399.751C271.211 399.818 270.927 399.877 270.61 399.929C270.298 399.976 269.992 400.019 269.694 400.057C269.4 400.09 269.164 400.118 268.984 400.142C268.539 400.199 268.115 400.291 267.712 400.419C267.315 400.542 266.978 400.729 266.704 400.98C266.434 401.226 266.266 401.562 266.2 401.989C266.1 402.571 266.24 403.011 266.619 403.31C266.997 403.603 267.521 403.75 268.188 403.75ZM285.821 405.227C284.794 405.227 283.951 404.986 283.293 404.503C282.64 404.02 282.185 403.355 281.929 402.507C281.674 401.66 281.636 400.691 281.816 399.602C281.996 398.494 282.36 397.517 282.909 396.669C283.459 395.817 284.143 395.152 284.962 394.673C285.781 394.19 286.683 393.949 287.668 393.949C288.435 393.949 289.103 394.091 289.671 394.375C290.239 394.659 290.677 395.057 290.985 395.568C291.292 396.08 291.437 396.676 291.418 397.358H289.742C289.694 396.861 289.481 396.42 289.103 396.037C288.729 395.649 288.175 395.455 287.441 395.455C286.787 395.455 286.186 395.625 285.637 395.966C285.087 396.302 284.626 396.778 284.252 397.393C283.878 398.004 283.624 398.722 283.492 399.545C283.35 400.388 283.362 401.122 283.527 401.747C283.693 402.372 283.994 402.857 284.429 403.203C284.865 403.549 285.414 403.722 286.077 403.722C286.513 403.722 286.92 403.646 287.299 403.494C287.677 403.343 288.014 403.125 288.307 402.841C288.601 402.557 288.833 402.216 289.003 401.818H290.679C290.471 402.462 290.137 403.042 289.678 403.558C289.219 404.07 288.662 404.477 288.009 404.78C287.355 405.078 286.626 405.227 285.821 405.227ZM297.093 405.227C296.089 405.227 295.248 404.988 294.571 404.51C293.894 404.032 293.416 403.362 293.137 402.5C292.862 401.638 292.817 400.634 293.002 399.489C293.182 398.371 293.539 397.398 294.074 396.57C294.614 395.736 295.284 395.092 296.084 394.638C296.889 394.179 297.775 393.949 298.74 393.949C299.744 393.949 300.582 394.19 301.255 394.673C301.932 395.152 302.41 395.824 302.689 396.69C302.969 397.552 303.016 398.561 302.831 399.716C302.651 400.824 302.289 401.792 301.745 402.621C301.205 403.445 300.535 404.086 299.735 404.545C298.939 405 298.059 405.227 297.093 405.227ZM297.121 403.722C297.888 403.722 298.553 403.525 299.117 403.132C299.685 402.739 300.144 402.221 300.495 401.577C300.85 400.933 301.089 400.237 301.212 399.489C301.326 398.778 301.321 398.118 301.198 397.507C301.075 396.892 300.812 396.397 300.409 396.023C300.007 395.644 299.441 395.455 298.712 395.455C297.945 395.455 297.275 395.653 296.702 396.051C296.134 396.449 295.675 396.972 295.324 397.621C294.974 398.269 294.739 398.968 294.621 399.716C294.507 400.426 294.51 401.087 294.628 401.697C294.751 402.304 295.014 402.794 295.417 403.168C295.824 403.537 296.392 403.722 297.121 403.722ZM304.523 405L306.342 394.091H307.961L307.677 395.795H307.819C308.146 395.213 308.588 394.761 309.147 394.439C309.71 394.112 310.347 393.949 311.058 393.949C311.768 393.949 312.338 394.112 312.769 394.439C313.2 394.761 313.501 395.213 313.671 395.795H313.785C314.154 395.227 314.647 394.777 315.262 394.446C315.882 394.115 316.583 393.949 317.364 393.949C318.33 393.949 319.074 394.254 319.594 394.865C320.12 395.476 320.276 396.42 320.063 397.699L318.842 405H317.165L318.387 397.699C318.515 396.889 318.387 396.314 318.004 395.973C317.625 395.627 317.137 395.455 316.54 395.455C315.773 395.455 315.141 395.684 314.644 396.143C314.147 396.603 313.842 397.187 313.728 397.898L312.535 405H310.83L312.08 397.528C312.18 396.903 312.061 396.402 311.725 396.023C311.389 395.644 310.901 395.455 310.262 395.455C309.826 395.455 309.4 395.573 308.984 395.81C308.567 396.042 308.21 396.364 307.911 396.776C307.613 397.183 307.421 397.652 307.336 398.182L306.2 405H304.523ZM332.304 405H327.759L330.173 390.455H334.804C336.215 390.455 337.377 390.75 338.291 391.342C339.21 391.934 339.849 392.779 340.209 393.878C340.573 394.976 340.628 396.288 340.372 397.812C340.126 399.309 339.648 400.594 338.938 401.669C338.232 402.739 337.318 403.563 336.196 404.141C335.079 404.714 333.781 405 332.304 405ZM329.783 403.438H332.361C333.563 403.438 334.6 403.201 335.472 402.727C336.348 402.254 337.053 401.579 337.588 400.703C338.128 399.827 338.497 398.788 338.696 397.585C338.895 396.43 338.876 395.438 338.639 394.609C338.407 393.776 337.95 393.137 337.268 392.692C336.591 392.242 335.685 392.017 334.548 392.017H331.672L329.783 403.438ZM346.452 405.227C345.405 405.227 344.541 404.995 343.859 404.531C343.178 404.062 342.702 403.409 342.432 402.571C342.162 401.728 342.119 400.748 342.304 399.631C342.489 398.513 342.856 397.528 343.405 396.676C343.954 395.819 344.638 395.152 345.457 394.673C346.277 394.19 347.176 393.949 348.156 393.949C348.724 393.949 349.271 394.044 349.797 394.233C350.322 394.422 350.777 394.73 351.161 395.156C351.544 395.578 351.812 396.136 351.963 396.832C352.115 397.528 352.105 398.385 351.935 399.403L351.821 400.114H343.412L343.639 398.665H350.344C350.453 398.049 350.424 397.5 350.259 397.017C350.098 396.534 349.816 396.153 349.413 395.874C349.016 395.594 348.511 395.455 347.901 395.455C347.271 395.455 346.684 395.625 346.139 395.966C345.595 396.302 345.14 396.728 344.776 397.244C344.411 397.756 344.184 398.277 344.094 398.807L343.895 400.057C343.753 400.961 343.774 401.681 343.959 402.216C344.148 402.751 344.477 403.137 344.946 403.374C345.415 403.606 346.002 403.722 346.707 403.722C347.157 403.722 347.571 403.66 347.95 403.537C348.329 403.409 348.668 403.22 348.966 402.969C349.264 402.713 349.515 402.396 349.719 402.017L351.253 402.472C350.992 403.021 350.625 403.504 350.152 403.92C349.683 404.332 349.134 404.654 348.504 404.886C347.879 405.114 347.195 405.227 346.452 405.227ZM360.262 394.091L360.035 395.511H354.154L354.381 394.091H360.262ZM354.325 405L356.398 392.585C356.493 391.96 356.72 391.439 357.08 391.023C357.445 390.606 357.878 390.294 358.38 390.085C358.887 389.877 359.4 389.773 359.921 389.773C360.333 389.773 360.662 389.806 360.908 389.872C361.159 389.938 361.342 390 361.455 390.057L360.745 391.506C360.66 391.477 360.546 391.442 360.404 391.399C360.267 391.357 360.077 391.335 359.836 391.335C359.282 391.335 358.861 391.475 358.572 391.754C358.283 392.034 358.089 392.443 357.989 392.983L356.001 405H354.325ZM360.793 405L362.611 394.091H364.287L362.469 405H360.793ZM363.961 392.244C363.634 392.244 363.352 392.133 363.115 391.911C362.883 391.688 362.767 391.42 362.767 391.108C362.767 390.795 362.883 390.528 363.115 390.305C363.352 390.083 363.634 389.972 363.961 389.972C364.287 389.972 364.567 390.083 364.799 390.305C365.035 390.528 365.154 390.795 365.154 391.108C365.154 391.42 365.035 391.688 364.799 391.911C364.567 392.133 364.287 392.244 363.961 392.244ZM369.942 405.227C368.915 405.227 368.072 404.986 367.414 404.503C366.761 404.02 366.306 403.355 366.05 402.507C365.795 401.66 365.757 400.691 365.937 399.602C366.117 398.494 366.481 397.517 367.031 396.669C367.58 395.817 368.264 395.152 369.083 394.673C369.902 394.19 370.804 393.949 371.789 393.949C372.556 393.949 373.224 394.091 373.792 394.375C374.36 394.659 374.798 395.057 375.106 395.568C375.414 396.08 375.558 396.676 375.539 397.358H373.863C373.816 396.861 373.603 396.42 373.224 396.037C372.85 395.649 372.296 395.455 371.562 395.455C370.908 395.455 370.307 395.625 369.758 395.966C369.209 396.302 368.747 396.778 368.373 397.393C367.999 398.004 367.746 398.722 367.613 399.545C367.471 400.388 367.483 401.122 367.648 401.747C367.814 402.372 368.115 402.857 368.55 403.203C368.986 403.549 369.535 403.722 370.198 403.722C370.634 403.722 371.041 403.646 371.42 403.494C371.799 403.343 372.135 403.125 372.428 402.841C372.722 402.557 372.954 402.216 373.124 401.818H374.8C374.592 402.462 374.258 403.042 373.799 403.558C373.34 404.07 372.783 404.477 372.13 404.78C371.477 405.078 370.747 405.227 369.942 405.227ZM376.711 405L378.529 394.091H380.205L378.387 405H376.711ZM379.879 392.244C379.552 392.244 379.27 392.133 379.033 391.911C378.801 391.688 378.685 391.42 378.685 391.108C378.685 390.795 378.801 390.528 379.033 390.305C379.27 390.083 379.552 389.972 379.879 389.972C380.205 389.972 380.485 390.083 380.717 390.305C380.953 390.528 381.072 390.795 381.072 391.108C381.072 391.42 380.953 391.688 380.717 391.911C380.485 392.133 380.205 392.244 379.879 392.244ZM386.002 405.227C384.956 405.227 384.092 404.995 383.41 404.531C382.728 404.062 382.252 403.409 381.983 402.571C381.713 401.728 381.67 400.748 381.855 399.631C382.039 398.513 382.406 397.528 382.956 396.676C383.505 395.819 384.189 395.152 385.008 394.673C385.827 394.19 386.727 393.949 387.707 393.949C388.275 393.949 388.822 394.044 389.348 394.233C389.873 394.422 390.328 394.73 390.711 395.156C391.095 395.578 391.362 396.136 391.514 396.832C391.665 397.528 391.656 398.385 391.485 399.403L391.372 400.114H382.963L383.19 398.665H389.895C390.003 398.049 389.975 397.5 389.809 397.017C389.648 396.534 389.367 396.153 388.964 395.874C388.566 395.594 388.062 395.455 387.451 395.455C386.822 395.455 386.234 395.625 385.69 395.966C385.145 396.302 384.691 396.728 384.326 397.244C383.962 397.756 383.734 398.277 383.645 398.807L383.446 400.057C383.304 400.961 383.325 401.681 383.51 402.216C383.699 402.751 384.028 403.137 384.497 403.374C384.966 403.606 385.553 403.722 386.258 403.722C386.708 403.722 387.122 403.66 387.501 403.537C387.88 403.409 388.218 403.22 388.517 402.969C388.815 402.713 389.066 402.396 389.27 402.017L390.804 402.472C390.543 403.021 390.176 403.504 389.703 403.92C389.234 404.332 388.685 404.654 388.055 404.886C387.43 405.114 386.746 405.227 386.002 405.227ZM389.27 392.784L388.119 390.795L386.315 392.784H384.724L384.738 392.67L387.522 389.716H389.056L390.875 392.67L390.86 392.784H389.27ZM395.892 398.438L394.813 405H393.137L394.955 394.091H396.574L396.29 395.795H396.432C396.773 395.241 397.235 394.796 397.817 394.46C398.4 394.119 399.103 393.949 399.926 393.949C400.656 393.949 401.271 394.1 401.773 394.403C402.28 394.702 402.637 395.156 402.846 395.767C403.059 396.373 403.089 397.14 402.938 398.068L401.773 405H400.097L401.233 398.182C401.375 397.33 401.264 396.662 400.9 396.179C400.54 395.696 399.969 395.455 399.188 395.455C398.648 395.455 398.149 395.571 397.689 395.803C397.235 396.035 396.849 396.373 396.532 396.818C396.219 397.263 396.006 397.803 395.892 398.438ZM409.239 405.227C408.212 405.227 407.369 404.986 406.711 404.503C406.058 404.02 405.603 403.355 405.347 402.507C405.092 401.66 405.054 400.691 405.234 399.602C405.414 398.494 405.778 397.517 406.327 396.669C406.877 395.817 407.561 395.152 408.38 394.673C409.199 394.19 410.101 393.949 411.086 393.949C411.853 393.949 412.521 394.091 413.089 394.375C413.657 394.659 414.095 395.057 414.403 395.568C414.71 396.08 414.855 396.676 414.836 397.358H413.16C413.112 396.861 412.899 396.42 412.521 396.037C412.147 395.649 411.593 395.455 410.859 395.455C410.205 395.455 409.604 395.625 409.055 395.966C408.505 396.302 408.044 396.778 407.67 397.393C407.296 398.004 407.042 398.722 406.91 399.545C406.768 400.388 406.78 401.122 406.945 401.747C407.111 402.372 407.412 402.857 407.847 403.203C408.283 403.549 408.832 403.722 409.495 403.722C409.931 403.722 410.338 403.646 410.717 403.494C411.095 403.343 411.432 403.125 411.725 402.841C412.019 402.557 412.251 402.216 412.421 401.818H414.097C413.889 402.462 413.555 403.042 413.096 403.558C412.637 404.07 412.08 404.477 411.427 404.78C410.773 405.078 410.044 405.227 409.239 405.227ZM416.008 405L417.826 394.091H419.502L417.684 405H416.008ZM419.175 392.244C418.849 392.244 418.567 392.133 418.33 391.911C418.098 391.688 417.982 391.42 417.982 391.108C417.982 390.795 418.098 390.528 418.33 390.305C418.567 390.083 418.849 389.972 419.175 389.972C419.502 389.972 419.781 390.083 420.013 390.305C420.25 390.528 420.369 390.795 420.369 391.108C420.369 391.42 420.25 391.688 420.013 391.911C419.781 392.133 419.502 392.244 419.175 392.244ZM423.936 405.256C423.244 405.256 422.638 405.125 422.118 404.865C421.597 404.6 421.211 404.219 420.96 403.722C420.709 403.22 420.64 402.614 420.754 401.903C420.863 401.278 421.074 400.772 421.386 400.384C421.699 399.991 422.077 399.683 422.522 399.46C422.972 399.233 423.455 399.065 423.971 398.956C424.492 398.842 425.011 398.755 425.527 398.693C426.199 398.608 426.746 398.542 427.167 398.494C427.589 398.447 427.906 398.369 428.119 398.26C428.332 398.151 428.462 397.964 428.51 397.699V397.642C428.623 396.946 428.531 396.404 428.233 396.016C427.934 395.623 427.402 395.426 426.635 395.426C425.839 395.426 425.174 395.601 424.639 395.952C424.104 396.302 423.708 396.676 423.453 397.074L421.975 396.506C422.364 395.843 422.828 395.327 423.368 394.957C423.907 394.583 424.473 394.323 425.065 394.176C425.657 394.025 426.227 393.949 426.777 393.949C427.127 393.949 427.522 393.991 427.963 394.077C428.403 394.157 428.815 394.325 429.199 394.581C429.587 394.837 429.878 395.223 430.072 395.739C430.271 396.255 430.299 396.946 430.157 397.812L428.964 405H427.288L427.544 403.523H427.458C427.307 403.759 427.075 404.013 426.762 404.283C426.455 404.553 426.064 404.782 425.591 404.972C425.122 405.161 424.57 405.256 423.936 405.256ZM424.419 403.75C425.082 403.75 425.662 403.62 426.159 403.359C426.661 403.099 427.063 402.763 427.366 402.351C427.674 401.939 427.866 401.506 427.941 401.051L428.197 399.517C428.112 399.602 427.944 399.68 427.693 399.751C427.442 399.818 427.158 399.877 426.841 399.929C426.528 399.976 426.223 400.019 425.924 400.057C425.631 400.09 425.394 400.118 425.214 400.142C424.769 400.199 424.345 400.291 423.943 400.419C423.545 400.542 423.209 400.729 422.934 400.98C422.664 401.226 422.496 401.562 422.43 401.989C422.331 402.571 422.47 403.011 422.849 403.31C423.228 403.603 423.751 403.75 424.419 403.75ZM188.15 429.227C187.236 429.227 186.469 428.998 185.849 428.538C185.229 428.074 184.791 427.421 184.535 426.578C184.284 425.731 184.253 424.729 184.443 423.574C184.637 422.428 184.999 421.434 185.529 420.591C186.064 419.748 186.72 419.097 187.497 418.638C188.273 418.179 189.121 417.949 190.039 417.949C190.749 417.949 191.292 418.067 191.666 418.304C192.044 418.536 192.319 418.801 192.49 419.099C192.66 419.393 192.79 419.634 192.88 419.824H193.022L193.917 414.455H195.593L193.178 429H191.559L191.843 427.324H191.644C191.488 427.523 191.27 427.774 190.991 428.077C190.712 428.375 190.342 428.643 189.883 428.879C189.428 429.111 188.851 429.227 188.15 429.227ZM188.562 427.722C189.234 427.722 189.836 427.546 190.366 427.196C190.901 426.841 191.346 426.351 191.701 425.726C192.056 425.096 192.302 424.369 192.44 423.545C192.577 422.731 192.572 422.018 192.426 421.408C192.279 420.792 191.997 420.314 191.58 419.973C191.164 419.627 190.612 419.455 189.926 419.455C189.22 419.455 188.607 419.637 188.086 420.001C187.565 420.361 187.142 420.851 186.815 421.472C186.488 422.087 186.261 422.778 186.133 423.545C186.005 424.322 186.003 425.027 186.126 425.662C186.249 426.292 186.509 426.794 186.907 427.168C187.31 427.537 187.861 427.722 188.562 427.722ZM201.012 429.227C199.966 429.227 199.102 428.995 198.42 428.531C197.738 428.062 197.262 427.409 196.992 426.571C196.722 425.728 196.68 424.748 196.865 423.631C197.049 422.513 197.416 421.528 197.965 420.676C198.515 419.819 199.199 419.152 200.018 418.673C200.837 418.19 201.737 417.949 202.717 417.949C203.285 417.949 203.832 418.044 204.357 418.233C204.883 418.422 205.338 418.73 205.721 419.156C206.105 419.578 206.372 420.136 206.524 420.832C206.675 421.528 206.666 422.385 206.495 423.403L206.382 424.114H197.972L198.2 422.665H204.904C205.013 422.049 204.985 421.5 204.819 421.017C204.658 420.534 204.376 420.153 203.974 419.874C203.576 419.594 203.072 419.455 202.461 419.455C201.831 419.455 201.244 419.625 200.7 419.966C200.155 420.302 199.701 420.728 199.336 421.244C198.972 421.756 198.744 422.277 198.654 422.807L198.455 424.057C198.313 424.961 198.335 425.681 198.519 426.216C198.709 426.751 199.038 427.137 199.507 427.374C199.975 427.606 200.562 427.722 201.268 427.722C201.718 427.722 202.132 427.66 202.511 427.537C202.89 427.409 203.228 427.22 203.526 426.969C203.825 426.713 204.076 426.396 204.279 426.017L205.813 426.472C205.553 427.021 205.186 427.504 204.713 427.92C204.244 428.332 203.695 428.654 203.065 428.886C202.44 429.114 201.756 429.227 201.012 429.227ZM216.414 414.455H218.516L221.47 426.528H221.641L228.573 414.455H230.675L228.26 429H226.612L228.459 417.949H228.317L221.925 429H220.334L217.635 417.949H217.493L215.646 429H213.999L216.414 414.455ZM236.067 429.227C235.064 429.227 234.223 428.988 233.546 428.51C232.869 428.032 232.391 427.362 232.111 426.5C231.837 425.638 231.792 424.634 231.976 423.489C232.156 422.371 232.514 421.398 233.049 420.57C233.589 419.736 234.259 419.092 235.059 418.638C235.864 418.179 236.749 417.949 237.715 417.949C238.719 417.949 239.557 418.19 240.229 418.673C240.906 419.152 241.385 419.824 241.664 420.69C241.943 421.552 241.991 422.561 241.806 423.716C241.626 424.824 241.264 425.792 240.719 426.621C240.18 427.445 239.51 428.086 238.709 428.545C237.914 429 237.033 429.227 236.067 429.227ZM236.096 427.722C236.863 427.722 237.528 427.525 238.091 427.132C238.66 426.739 239.119 426.221 239.469 425.577C239.824 424.933 240.064 424.237 240.187 423.489C240.3 422.778 240.296 422.118 240.172 421.507C240.049 420.892 239.787 420.397 239.384 420.023C238.982 419.644 238.416 419.455 237.687 419.455C236.92 419.455 236.25 419.653 235.677 420.051C235.108 420.449 234.649 420.972 234.299 421.621C233.948 422.269 233.714 422.968 233.596 423.716C233.482 424.426 233.484 425.087 233.603 425.697C233.726 426.304 233.989 426.794 234.391 427.168C234.798 427.537 235.367 427.722 236.096 427.722ZM247.22 433.318C246.405 433.318 245.723 433.214 245.174 433.006C244.625 432.802 244.185 432.532 243.853 432.196C243.522 431.865 243.271 431.509 243.1 431.131L244.606 430.193C244.72 430.392 244.866 430.619 245.046 430.875C245.226 431.135 245.499 431.36 245.863 431.55C246.232 431.744 246.751 431.841 247.419 431.841C248.294 431.841 249.061 431.628 249.72 431.202C250.378 430.776 250.785 430.108 250.941 429.199L251.282 426.983H251.14C250.989 427.182 250.778 427.428 250.508 427.722C250.238 428.01 249.876 428.268 249.421 428.496C248.967 428.718 248.384 428.83 247.674 428.83C246.789 428.83 246.031 428.621 245.401 428.205C244.772 427.788 244.32 427.182 244.045 426.386C243.775 425.591 243.735 424.625 243.924 423.489C244.109 422.371 244.464 421.398 244.99 420.57C245.52 419.736 246.173 419.092 246.95 418.638C247.726 418.179 248.574 417.949 249.492 417.949C250.203 417.949 250.747 418.067 251.126 418.304C251.509 418.536 251.789 418.801 251.964 419.099C252.139 419.393 252.272 419.634 252.362 419.824H252.532L252.816 418.091H254.436L252.589 429.312C252.433 430.25 252.094 431.012 251.573 431.599C251.052 432.191 250.413 432.625 249.656 432.899C248.898 433.179 248.086 433.318 247.22 433.318ZM248.1 427.324C248.768 427.324 249.362 427.17 249.883 426.862C250.409 426.554 250.844 426.112 251.19 425.534C251.535 424.956 251.775 424.265 251.907 423.46C252.04 422.674 252.03 421.981 251.879 421.379C251.727 420.778 251.441 420.307 251.019 419.966C250.603 419.625 250.056 419.455 249.379 419.455C248.664 419.455 248.046 419.634 247.525 419.994C247.009 420.354 246.59 420.837 246.268 421.443C245.946 422.049 245.723 422.722 245.6 423.46C245.477 424.218 245.482 424.888 245.615 425.47C245.747 426.048 246.017 426.502 246.424 426.834C246.836 427.161 247.395 427.324 248.1 427.324ZM255.686 429L257.504 418.091H259.18L257.362 429H255.686ZM258.853 416.244C258.526 416.244 258.245 416.133 258.008 415.911C257.776 415.688 257.66 415.42 257.66 415.108C257.66 414.795 257.776 414.528 258.008 414.305C258.245 414.083 258.526 413.972 258.853 413.972C259.18 413.972 259.459 414.083 259.691 414.305C259.928 414.528 260.046 414.795 260.046 415.108C260.046 415.42 259.928 415.688 259.691 415.911C259.459 416.133 259.18 416.244 258.853 416.244ZM268.699 414.455H270.801L273.756 426.528H273.926L280.858 414.455H282.96L280.545 429H278.898L280.744 417.949H280.602L274.21 429H272.619L269.92 417.949H269.778L267.932 429H266.284L268.699 414.455ZM283.85 429L285.668 418.091H287.344L285.526 429H283.85ZM287.017 416.244C286.691 416.244 286.409 416.133 286.172 415.911C285.94 415.688 285.824 415.42 285.824 415.108C285.824 414.795 285.94 414.528 286.172 414.305C286.409 414.083 286.691 413.972 287.017 413.972C287.344 413.972 287.623 414.083 287.855 414.305C288.092 414.528 288.21 414.795 288.21 415.108C288.21 415.42 288.092 415.688 287.855 415.911C287.623 416.133 287.344 416.244 287.017 416.244ZM288.596 429L290.414 418.091H292.033L291.749 419.739H291.863C292.147 419.199 292.58 418.761 293.162 418.425C293.745 418.089 294.363 417.92 295.016 417.92C295.144 417.92 295.298 417.923 295.478 417.928C295.658 417.928 295.797 417.935 295.897 417.949L295.613 419.653C295.556 419.639 295.428 419.618 295.229 419.589C295.03 419.556 294.817 419.54 294.59 419.54C294.06 419.54 293.57 419.651 293.12 419.874C292.67 420.091 292.294 420.394 291.991 420.783C291.688 421.166 291.493 421.604 291.408 422.097L290.272 429H288.596ZM296.076 429L297.894 418.091H299.57L297.752 429H296.076ZM299.244 416.244C298.917 416.244 298.635 416.133 298.399 415.911C298.167 415.688 298.051 415.42 298.051 415.108C298.051 414.795 298.167 414.528 298.399 414.305C298.635 414.083 298.917 413.972 299.244 413.972C299.57 413.972 299.85 414.083 300.082 414.305C300.319 414.528 300.437 414.795 300.437 415.108C300.437 415.42 300.319 415.688 300.082 415.911C299.85 416.133 299.57 416.244 299.244 416.244ZM300.822 429L302.64 418.091H304.26L303.976 419.795H304.118C304.444 419.213 304.887 418.761 305.446 418.439C306.009 418.112 306.646 417.949 307.356 417.949C308.067 417.949 308.637 418.112 309.068 418.439C309.499 418.761 309.8 419.213 309.97 419.795H310.084C310.453 419.227 310.945 418.777 311.561 418.446C312.181 418.115 312.882 417.949 313.663 417.949C314.629 417.949 315.372 418.254 315.893 418.865C316.419 419.476 316.575 420.42 316.362 421.699L315.14 429H313.464L314.686 421.699C314.814 420.889 314.686 420.314 314.302 419.973C313.924 419.627 313.436 419.455 312.839 419.455C312.072 419.455 311.44 419.684 310.943 420.143C310.446 420.603 310.14 421.187 310.027 421.898L308.834 429H307.129L308.379 421.528C308.479 420.903 308.36 420.402 308.024 420.023C307.688 419.644 307.2 419.455 306.561 419.455C306.125 419.455 305.699 419.573 305.282 419.81C304.866 420.042 304.508 420.364 304.21 420.776C303.912 421.183 303.72 421.652 303.635 422.182L302.498 429H300.822Z" fill="black"/>
</svg>
