<svg width="500" height="500" viewBox="0 0 500 500" fill="none" xmlns="http://www.w3.org/2000/svg">
<rect width="500" height="500" fill="#F5F5F5"/>
<rect width="500" height="500" fill="white"/>
<path d="M290 215C278 229.5 260 246 250.5 253C237.052 238.889 218.385 229.536 213 218.5C195.675 182.993 224.984 162.795 250.5 183.5C275 159.5 305 188 290 215Z" stroke="black" stroke-width="3"/>
<path d="M230 236H225.5L234.5 265.5H204L195.5 231.5L180.5 265.5H148.5L180.5 186L139.5 182C140.802 179.612 141.871 177.302 142.739 175M269 236H279.5L269 265.5H299L307 231.5L322 265.5H355L322 186L363 182C362.03 180.211 361.189 178.558 360.475 177M357.531 162.5C357.741 160.337 358.234 158.054 359 155.5L309.5 162.5C315.5 157 316.783 148.55 315.5 142.5C312 126 287.5 120.5 281 142.5C280 149 281 161 292 165.5C260.371 170.024 242.636 169.904 211 165.245C220.5 162.245 222.774 150.948 222.5 145.5C220 123.5 193.5 124.5 188.5 143.5C186.898 149.587 188 156.5 193.5 162.245L146 155.5C145.989 156.698 145.956 157.863 145.898 159M357.531 162.5C357.059 167.359 358.009 171.616 360.475 177M357.531 162.5C360.475 160.5 363.726 159.255 366 159.5C380.923 161.108 377 172.236 370.5 176C368.242 177.308 364 177 360.475 177M145.898 159C145.604 164.806 144.668 169.883 142.739 175M145.898 159C143 157 139.737 156.272 137.5 156.5C124.5 157.5 125.5 170.5 133.5 174.5C135.75 176.134 139 175.5 142.739 175" stroke="black" stroke-width="3"/>
<path d="M146 247.5L65.5 232L102.5 258L65.5 275L125.5 283.5V308.5C222.5 326.5 274.5 327 375 308.5V283.5L435.5 275C423.833 269.5 400.8 258.4 402 258C403.2 257.6 427.5 240.5 439.5 232C414.167 235.833 351 245.5 356.5 247.5C362 249.5 391.949 274.458 356.5 275C278.434 286.257 149.451 278.43 146 275C139.547 275.42 110.812 265.931 146 247.5Z" fill="black"/>
<path d="M146 247.5L65.5 232L102.5 258L65.5 275L125.5 283.5V308.5C222.5 326.5 274.5 327 375 308.5V283.5L435.5 275C423.833 269.5 400.8 258.4 402 258C403.2 257.6 427.5 240.5 439.5 232C414.167 235.833 351 245.5 356.5 247.5M146 247.5C110.812 265.931 139.547 275.42 146 275M146 247.5C141.542 260.082 142.15 265.852 146 275M146 275C149.451 278.43 278.434 286.257 356.5 275M356.5 275C391.949 274.458 362 249.5 356.5 247.5M356.5 275C361.418 266.353 363.86 261.371 356.5 247.5" stroke="black" stroke-width="3"/>
<path d="M80.7607 337.654C78.0205 340.514 74.7113 344.475 70.833 349.536C66.9697 354.597 64.2669 357.981 62.7246 359.688C60.8079 361.845 58.8988 363.484 56.9971 364.607C55.0954 365.715 53.2835 366.27 51.5615 366.27C50.0641 366.27 48.8512 365.903 47.9229 365.169C46.9945 364.435 46.5303 363.469 46.5303 362.271C46.5303 361.283 46.9046 360.43 47.6533 359.711C48.387 358.992 49.2555 358.633 50.2588 358.633C50.9626 358.633 51.5241 358.812 51.9434 359.172C52.3626 359.531 52.5723 360.01 52.5723 360.609C52.5723 361.223 52.3851 361.702 52.0107 362.047C51.6364 362.376 51.1123 362.541 50.4385 362.541C50.0342 362.541 49.585 362.421 49.0908 362.182C48.5967 361.942 48.2822 361.822 48.1475 361.822C47.9827 361.822 47.848 361.897 47.7432 362.047C47.6383 362.197 47.5859 362.391 47.5859 362.631C47.5859 363.335 47.9678 363.941 48.7314 364.45C49.4951 364.959 50.4385 365.214 51.5615 365.214C52.5348 365.214 53.5381 365.012 54.5713 364.607C55.6195 364.188 56.7126 363.567 57.8506 362.743C60.2764 360.961 64.5814 356.02 70.7656 347.919C71.8737 346.481 72.7197 345.381 73.3037 344.617C76.1338 340.949 78.597 337.984 80.6934 335.723C82.8047 333.462 84.1299 332.331 84.6689 332.331C84.7438 332.331 84.7962 332.354 84.8262 332.398C84.8711 332.428 84.8936 332.481 84.8936 332.556C84.8936 332.81 84.5042 333.739 83.7256 335.341C82.9619 336.928 82.3704 338.47 81.9512 339.968C81.7116 340.881 81.3522 342.334 80.873 344.325C79.196 351.348 77.3317 356.873 75.2803 360.901L85.5 348.436C89.9922 342.955 93.7806 338.837 96.8652 336.082C99.9499 333.327 102.323 331.949 103.985 331.949C104.27 331.949 104.487 332.002 104.637 332.106C104.786 332.196 104.861 332.331 104.861 332.511C104.861 332.765 104.539 332.975 103.896 333.14C103.267 333.304 102.75 333.477 102.346 333.656C100.489 334.51 98.3926 336.03 96.0566 338.216C93.7357 340.387 91.0329 343.374 87.9482 347.178L73.8203 364.473C73.2513 365.176 72.7946 365.678 72.4502 365.978C72.1208 366.262 71.8587 366.404 71.6641 366.404C71.5443 366.404 71.4469 366.359 71.3721 366.27C71.3122 366.195 71.2822 366.09 71.2822 365.955C71.2822 365.835 71.4619 365.438 71.8213 364.765C72.1956 364.076 72.5101 363.432 72.7646 362.833C73.4684 361.111 74.1423 358.895 74.7861 356.185C74.9059 355.675 74.9958 355.301 75.0557 355.062L75.168 354.612C76.7402 348.174 78.6045 342.521 80.7607 337.654ZM86.915 364.248C86.915 364.518 86.9824 364.712 87.1172 364.832C87.252 364.937 87.4616 364.989 87.7461 364.989C88.4049 364.989 89.2734 364.682 90.3516 364.068C91.4297 363.454 92.68 362.549 94.1025 361.351C95.3304 360.302 96.2887 359.329 96.9775 358.431C97.6663 357.517 98.0107 356.791 98.0107 356.252C98.0107 355.967 97.9209 355.743 97.7412 355.578C97.5765 355.413 97.3444 355.331 97.0449 355.331C96.5358 355.331 95.8395 355.578 94.9561 356.072C94.0726 356.551 93.1442 357.21 92.1709 358.049C90.5687 359.411 89.2884 360.662 88.3301 361.8C87.3867 362.923 86.915 363.739 86.915 364.248ZM96.8203 360.25C94.8887 362.152 93.1217 363.604 91.5195 364.607C89.9173 365.596 88.5547 366.09 87.4316 366.09C86.653 366.09 86.0391 365.865 85.5898 365.416C85.1257 364.967 84.8936 364.368 84.8936 363.619C84.8936 362.571 85.3128 361.463 86.1514 360.295C87.0049 359.112 88.2103 357.959 89.7676 356.836C90.9355 355.997 92.126 355.339 93.3389 354.859C94.5667 354.38 95.6449 354.141 96.5732 354.141C97.3219 354.141 97.9209 354.343 98.3701 354.747C98.8343 355.136 99.0664 355.653 99.0664 356.297C99.0664 356.731 98.9316 357.218 98.6621 357.757C98.4076 358.296 98.0182 358.88 97.4941 359.509C97.6589 359.853 97.8835 360.108 98.168 360.272C98.4525 360.437 98.7969 360.52 99.2012 360.52C99.7702 360.52 100.429 360.265 101.178 359.756C101.926 359.232 102.391 358.97 102.57 358.97C102.66 358.97 102.728 359 102.772 359.06C102.817 359.119 102.84 359.209 102.84 359.329C102.84 359.629 102.413 360.055 101.56 360.609C100.706 361.163 99.9199 361.44 99.2012 361.44C98.722 361.44 98.2878 361.351 97.8984 361.171C97.5241 360.976 97.1647 360.669 96.8203 360.25ZM101.245 364.45C101.335 364.75 101.53 364.974 101.829 365.124C102.144 365.274 102.578 365.349 103.132 365.349C104.614 365.349 105.767 364.555 106.591 362.968C107.414 361.366 107.894 358.977 108.028 355.803C106.606 356.596 105.281 357.517 104.053 358.565C102.825 359.599 102.144 360.115 102.009 360.115C101.904 360.115 101.814 360.085 101.739 360.025C101.679 359.965 101.649 359.891 101.649 359.801C101.649 359.486 102.263 358.842 103.491 357.869C104.719 356.896 106.314 355.803 108.275 354.59C108.38 353.721 108.627 353.025 109.017 352.501C109.406 351.962 109.848 351.692 110.342 351.692C110.581 351.692 110.769 351.775 110.903 351.939C111.053 352.089 111.128 352.299 111.128 352.568C111.128 353.003 110.963 353.437 110.634 353.871C110.304 354.305 109.855 354.665 109.286 354.949C109.601 355.428 109.833 355.975 109.982 356.589C110.132 357.203 110.207 357.884 110.207 358.633C110.207 359.861 110.012 360.939 109.623 361.867C109.234 362.796 108.665 363.544 107.916 364.113C109.833 363.35 111.607 362.301 113.239 360.969C114.871 359.636 115.702 358.97 115.732 358.97C115.837 358.97 115.92 359.007 115.979 359.082C116.054 359.157 116.092 359.254 116.092 359.374C116.092 359.599 115.762 360.018 115.104 360.632C114.46 361.246 113.621 361.897 112.588 362.586C110.941 363.754 109.301 364.652 107.669 365.281C106.052 365.91 104.599 366.225 103.312 366.225C102.353 366.225 101.575 366.007 100.976 365.573C100.377 365.139 100.077 364.577 100.077 363.889C100.077 363.335 100.249 362.885 100.594 362.541C100.938 362.182 101.365 362.002 101.874 362.002C102.248 362.002 102.548 362.114 102.772 362.339C103.012 362.563 103.132 362.848 103.132 363.192C103.132 363.597 102.997 363.911 102.728 364.136C102.458 364.36 102.099 364.473 101.649 364.473C101.53 364.473 101.44 364.473 101.38 364.473C101.32 364.458 101.275 364.45 101.245 364.45ZM114.542 364.45C114.632 364.75 114.826 364.974 115.126 365.124C115.44 365.274 115.875 365.349 116.429 365.349C117.911 365.349 119.064 364.555 119.888 362.968C120.711 361.366 121.19 358.977 121.325 355.803C119.903 356.596 118.577 357.517 117.35 358.565C116.122 359.599 115.44 360.115 115.306 360.115C115.201 360.115 115.111 360.085 115.036 360.025C114.976 359.965 114.946 359.891 114.946 359.801C114.946 359.486 115.56 358.842 116.788 357.869C118.016 356.896 119.611 355.803 121.572 354.59C121.677 353.721 121.924 353.025 122.313 352.501C122.703 351.962 123.145 351.692 123.639 351.692C123.878 351.692 124.065 351.775 124.2 351.939C124.35 352.089 124.425 352.299 124.425 352.568C124.425 353.003 124.26 353.437 123.931 353.871C123.601 354.305 123.152 354.665 122.583 354.949C122.897 355.428 123.13 355.975 123.279 356.589C123.429 357.203 123.504 357.884 123.504 358.633C123.504 359.861 123.309 360.939 122.92 361.867C122.531 362.796 121.962 363.544 121.213 364.113C123.13 363.35 124.904 362.301 126.536 360.969C128.168 359.636 128.999 358.97 129.029 358.97C129.134 358.97 129.216 359.007 129.276 359.082C129.351 359.157 129.389 359.254 129.389 359.374C129.389 359.599 129.059 360.018 128.4 360.632C127.757 361.246 126.918 361.897 125.885 362.586C124.238 363.754 122.598 364.652 120.966 365.281C119.349 365.91 117.896 366.225 116.608 366.225C115.65 366.225 114.871 366.007 114.272 365.573C113.674 365.139 113.374 364.577 113.374 363.889C113.374 363.335 113.546 362.885 113.891 362.541C114.235 362.182 114.662 362.002 115.171 362.002C115.545 362.002 115.845 362.114 116.069 362.339C116.309 362.563 116.429 362.848 116.429 363.192C116.429 363.597 116.294 363.911 116.024 364.136C115.755 364.36 115.396 364.473 114.946 364.473C114.826 364.473 114.737 364.473 114.677 364.473C114.617 364.458 114.572 364.45 114.542 364.45ZM133.162 362.631L138.328 357.128C138.523 356.918 138.673 356.709 138.777 356.499C138.897 356.289 138.957 356.095 138.957 355.915C138.957 355.765 138.905 355.646 138.8 355.556C138.695 355.466 138.553 355.421 138.373 355.421C137.864 355.421 137.19 355.638 136.352 356.072C135.528 356.492 134.682 357.068 133.813 357.802C132.391 358.985 131.215 360.22 130.287 361.508C129.359 362.796 128.895 363.739 128.895 364.338C128.895 364.548 128.954 364.72 129.074 364.854C129.209 364.974 129.374 365.034 129.568 365.034C129.973 365.034 130.497 364.825 131.141 364.405C131.799 363.971 132.473 363.38 133.162 362.631ZM133.342 363.574C132.443 364.458 131.612 365.124 130.849 365.573C130.085 366.007 129.404 366.225 128.805 366.225C128.176 366.225 127.689 365.993 127.345 365.528C127 365.064 126.828 364.405 126.828 363.552C126.828 362.549 127.068 361.59 127.547 360.677C128.026 359.763 128.767 358.872 129.771 358.004C131.058 356.851 132.443 355.938 133.926 355.264C135.408 354.575 136.718 354.23 137.856 354.23C138.5 354.23 138.972 354.35 139.271 354.59C139.571 354.829 139.743 355.226 139.788 355.78C139.998 355.541 140.237 355.309 140.507 355.084C140.791 354.844 141.106 354.62 141.45 354.41C141.57 354.41 141.742 354.403 141.967 354.388C142.191 354.373 142.356 354.365 142.461 354.365C142.985 354.365 143.359 354.41 143.584 354.5C143.809 354.575 143.921 354.71 143.921 354.904C143.921 355.084 143.576 355.481 142.888 356.095C142.513 356.424 142.214 356.686 141.989 356.881C139.983 358.783 138.41 360.407 137.272 361.755C136.134 363.088 135.565 363.993 135.565 364.473C135.565 364.667 135.603 364.802 135.678 364.877C135.768 364.952 135.925 364.989 136.149 364.989C136.808 364.989 137.782 364.675 139.069 364.046C140.357 363.402 141.72 362.534 143.157 361.44C143.756 360.991 144.4 360.467 145.089 359.868C145.778 359.269 146.189 358.97 146.324 358.97C146.429 358.97 146.511 359.007 146.571 359.082C146.646 359.157 146.684 359.254 146.684 359.374C146.684 359.644 145.845 360.46 144.168 361.822L144.056 361.912C142.394 363.245 140.799 364.293 139.271 365.057C137.759 365.805 136.524 366.18 135.565 366.18C134.877 366.18 134.323 365.993 133.903 365.618C133.499 365.229 133.297 364.712 133.297 364.068C133.297 363.934 133.297 363.836 133.297 363.776C133.312 363.701 133.327 363.634 133.342 363.574ZM185.99 348.615C188.775 347.627 191.328 346.392 193.649 344.909C195.985 343.412 198.059 341.69 199.871 339.743C200.934 338.62 201.758 337.594 202.342 336.666C202.941 335.723 203.24 334.981 203.24 334.442C203.24 334.038 203.15 333.754 202.971 333.589C202.791 333.424 202.477 333.342 202.027 333.342C200.036 333.342 197.588 334.712 194.683 337.452C191.778 340.177 188.88 343.898 185.99 348.615ZM179.858 351.782C177.897 352.261 175.988 352.628 174.131 352.883C172.289 353.137 170.672 353.265 169.279 353.265C168.935 353.265 168.673 353.22 168.493 353.13C168.313 353.04 168.224 352.913 168.224 352.748C168.224 352.479 169.676 352.201 172.581 351.917C175.486 351.618 178.331 351.056 181.116 350.232C185.549 344.258 189.502 339.781 192.976 336.801C196.45 333.821 199.437 332.331 201.938 332.331C202.791 332.331 203.435 332.533 203.869 332.938C204.303 333.342 204.521 333.933 204.521 334.712C204.521 337.048 202.664 339.721 198.95 342.73C195.252 345.725 190.452 348.301 184.553 350.457C181.273 355.638 177.605 359.591 173.547 362.316C169.489 365.042 165.244 366.404 160.812 366.404C158.146 366.404 156.08 365.948 154.612 365.034C153.145 364.106 152.411 362.818 152.411 361.171C152.411 360.287 152.688 359.554 153.242 358.97C153.781 358.386 154.47 358.094 155.309 358.094C155.952 358.094 156.469 358.273 156.858 358.633C157.263 358.992 157.465 359.471 157.465 360.07C157.465 360.609 157.27 361.029 156.881 361.328C156.507 361.628 155.982 361.777 155.309 361.777C155.144 361.777 154.912 361.74 154.612 361.665C154.313 361.575 154.096 361.53 153.961 361.53C153.871 361.53 153.804 361.568 153.759 361.643C153.714 361.717 153.691 361.837 153.691 362.002C153.691 362.885 154.35 363.672 155.668 364.36C156.971 365.049 158.565 365.394 160.452 365.394C161.905 365.394 163.305 365.221 164.652 364.877C166 364.518 167.28 363.986 168.493 363.282C169.931 362.444 171.473 361.201 173.12 359.554C174.782 357.892 177.028 355.301 179.858 351.782ZM187.989 362.002C187.854 362.286 187.75 362.563 187.675 362.833C187.615 363.103 187.585 363.342 187.585 363.552C187.585 364.031 187.735 364.405 188.034 364.675C188.349 364.944 188.775 365.079 189.314 365.079C190.258 365.079 191.411 364.735 192.773 364.046C194.136 363.342 195.596 362.354 197.153 361.081C197.558 360.737 198.052 360.302 198.636 359.778C199.22 359.239 199.579 358.97 199.714 358.97C199.834 358.97 199.924 359.007 199.983 359.082C200.043 359.142 200.081 359.239 200.096 359.374C200.096 359.539 199.894 359.831 199.489 360.25C199.085 360.654 198.381 361.283 197.378 362.137C195.881 363.41 194.383 364.405 192.886 365.124C191.388 365.828 190.078 366.18 188.955 366.18C187.877 366.18 187.016 365.85 186.372 365.191C185.728 364.533 185.406 363.634 185.406 362.496C185.406 361.478 185.728 360.467 186.372 359.464C187.016 358.446 187.952 357.48 189.18 356.566C190.258 355.788 191.269 355.204 192.212 354.814C193.155 354.425 194.031 354.23 194.84 354.23C195.559 354.23 196.068 354.35 196.367 354.59C196.667 354.814 196.816 355.211 196.816 355.78C196.816 356.933 195.97 358.131 194.278 359.374C192.586 360.617 190.49 361.493 187.989 362.002ZM188.641 360.654C190.662 360.235 192.362 359.561 193.739 358.633C195.117 357.704 195.806 356.836 195.806 356.027C195.806 355.743 195.753 355.541 195.648 355.421C195.544 355.301 195.364 355.241 195.109 355.241C194.361 355.241 193.44 355.705 192.347 356.634C191.254 357.547 190.018 358.887 188.641 360.654ZM199.781 366C199.646 366.045 199.474 366.075 199.265 366.09C199.055 366.12 198.703 366.135 198.209 366.135C197.7 366.135 197.363 366.112 197.198 366.067C197.019 366.022 196.929 365.94 196.929 365.82C196.929 365.551 197.588 364.81 198.905 363.597C199.789 362.773 200.507 362.084 201.062 361.53L201.601 361.036C204.625 358.101 206.138 356.417 206.138 355.982C206.123 355.848 206.093 355.75 206.048 355.69C206.003 355.631 205.951 355.601 205.891 355.601C205.471 355.601 204.932 355.803 204.273 356.207C203.63 356.611 202.716 357.33 201.533 358.363C201.234 358.618 200.874 358.94 200.455 359.329C199.901 359.853 199.534 360.115 199.354 360.115C199.25 360.115 199.152 360.078 199.062 360.003C198.988 359.928 198.95 359.838 198.95 359.733C198.95 359.524 199.482 358.947 200.545 358.004C200.77 357.809 200.942 357.652 201.062 357.532C202.319 356.424 203.42 355.601 204.363 355.062C205.307 354.507 206.108 354.23 206.767 354.23C207.246 354.23 207.613 354.388 207.867 354.702C208.122 355.017 208.249 355.488 208.249 356.117C208.249 356.222 208.242 356.349 208.227 356.499C208.212 356.649 208.189 356.866 208.159 357.15C209.642 356.117 210.84 355.383 211.753 354.949C212.666 354.5 213.445 354.275 214.089 354.275C214.568 354.275 214.942 354.418 215.212 354.702C215.496 354.987 215.639 355.376 215.639 355.87C215.639 356.409 215.451 356.963 215.077 357.532C214.718 358.086 213.939 358.932 212.741 360.07C212.427 360.37 211.978 360.789 211.394 361.328C209.567 363.035 208.653 364.068 208.653 364.428C208.653 364.592 208.721 364.727 208.855 364.832C208.99 364.937 209.17 364.989 209.395 364.989C210.053 364.989 211.012 364.675 212.27 364.046C213.542 363.402 214.897 362.534 216.335 361.44C216.949 360.991 217.6 360.467 218.289 359.868C218.978 359.269 219.39 358.97 219.524 358.97C219.629 358.97 219.712 359.007 219.771 359.082C219.831 359.142 219.869 359.239 219.884 359.374C219.884 359.644 219.053 360.452 217.391 361.8L217.278 361.89C215.631 363.192 214.044 364.233 212.517 365.012C211.004 365.79 209.844 366.18 209.035 366.18C208.361 366.18 207.815 365.993 207.396 365.618C206.976 365.244 206.767 364.757 206.767 364.158C206.767 363.439 207.036 362.653 207.575 361.8C208.129 360.946 208.923 360.078 209.956 359.194C210.285 358.91 210.735 358.528 211.304 358.049C212.696 356.881 213.393 356.192 213.393 355.982C213.393 355.878 213.34 355.788 213.235 355.713C213.131 355.638 213.003 355.601 212.854 355.601C212 355.601 210.33 356.574 207.845 358.521C205.374 360.452 202.686 362.945 199.781 366ZM218.536 366C218.386 366.045 218.207 366.075 217.997 366.09C217.802 366.12 217.458 366.135 216.964 366.135C216.44 366.135 216.088 366.112 215.908 366.067C215.729 366.022 215.639 365.94 215.639 365.82C215.639 365.671 216.56 364.607 218.401 362.631C220.243 360.654 221.988 358.663 223.635 356.656C222.676 357.375 221.643 358.206 220.535 359.149C219.442 360.093 218.806 360.564 218.626 360.564C218.536 360.564 218.469 360.535 218.424 360.475C218.379 360.4 218.356 360.295 218.356 360.16C218.356 359.876 219.038 359.172 220.4 358.049C221.763 356.926 223.605 355.556 225.926 353.938L238.639 338.957C238.833 338.732 239.006 338.583 239.155 338.508C239.305 338.433 239.5 338.396 239.739 338.396C240.174 338.396 240.533 338.455 240.817 338.575C241.102 338.68 241.244 338.822 241.244 339.002C241.244 339.182 241.147 339.384 240.952 339.608C240.907 339.653 240.87 339.698 240.84 339.743L225.701 357.577C227.229 356.439 228.516 355.608 229.564 355.084C230.613 354.545 231.489 354.275 232.192 354.275C232.687 354.275 233.068 354.418 233.338 354.702C233.622 354.987 233.765 355.376 233.765 355.87C233.765 356.409 233.577 356.963 233.203 357.532C232.829 358.086 232.05 358.932 230.867 360.07C230.538 360.37 230.081 360.789 229.497 361.328C227.67 363.035 226.757 364.068 226.757 364.428C226.757 364.592 226.824 364.727 226.959 364.832C227.094 364.937 227.273 364.989 227.498 364.989C228.157 364.989 229.115 364.675 230.373 364.046C231.646 363.402 233.001 362.534 234.438 361.44C235.052 360.991 235.704 360.467 236.393 359.868C237.081 359.269 237.493 358.97 237.628 358.97C237.733 358.97 237.815 359.007 237.875 359.082C237.95 359.157 237.987 359.254 237.987 359.374C237.987 359.644 237.149 360.46 235.472 361.822L235.359 361.912C233.727 363.2 232.147 364.233 230.62 365.012C229.108 365.79 227.947 366.18 227.139 366.18C226.465 366.18 225.918 365.993 225.499 365.618C225.08 365.244 224.87 364.757 224.87 364.158C224.87 363.439 225.14 362.653 225.679 361.8C226.233 360.946 227.026 360.078 228.06 359.194C228.389 358.91 228.838 358.528 229.407 358.049C230.8 356.881 231.496 356.192 231.496 355.982C231.496 355.878 231.444 355.788 231.339 355.713C231.234 355.638 231.107 355.601 230.957 355.601C230.014 355.601 228.307 356.589 225.836 358.565C223.38 360.527 220.947 363.005 218.536 366ZM237.089 364.248C237.089 364.518 237.156 364.712 237.291 364.832C237.426 364.937 237.635 364.989 237.92 364.989C238.579 364.989 239.447 364.682 240.525 364.068C241.604 363.454 242.854 362.549 244.276 361.351C245.504 360.302 246.463 359.329 247.151 358.431C247.84 357.517 248.185 356.791 248.185 356.252C248.185 355.967 248.095 355.743 247.915 355.578C247.75 355.413 247.518 355.331 247.219 355.331C246.71 355.331 246.013 355.578 245.13 356.072C244.246 356.551 243.318 357.21 242.345 358.049C240.743 359.411 239.462 360.662 238.504 361.8C237.561 362.923 237.089 363.739 237.089 364.248ZM246.994 360.25C245.062 362.152 243.296 363.604 241.693 364.607C240.091 365.596 238.729 366.09 237.605 366.09C236.827 366.09 236.213 365.865 235.764 365.416C235.299 364.967 235.067 364.368 235.067 363.619C235.067 362.571 235.487 361.463 236.325 360.295C237.179 359.112 238.384 357.959 239.941 356.836C241.109 355.997 242.3 355.339 243.513 354.859C244.741 354.38 245.819 354.141 246.747 354.141C247.496 354.141 248.095 354.343 248.544 354.747C249.008 355.136 249.24 355.653 249.24 356.297C249.24 356.731 249.105 357.218 248.836 357.757C248.581 358.296 248.192 358.88 247.668 359.509C247.833 359.853 248.057 360.108 248.342 360.272C248.626 360.437 248.971 360.52 249.375 360.52C249.944 360.52 250.603 360.265 251.352 359.756C252.1 359.232 252.564 358.97 252.744 358.97C252.834 358.97 252.901 359 252.946 359.06C252.991 359.119 253.014 359.209 253.014 359.329C253.014 359.629 252.587 360.055 251.733 360.609C250.88 361.163 250.094 361.44 249.375 361.44C248.896 361.44 248.462 361.351 248.072 361.171C247.698 360.976 247.339 360.669 246.994 360.25ZM264.02 355.106C264.049 355.062 264.124 355.024 264.244 354.994C264.364 354.949 264.484 354.919 264.604 354.904C265.023 354.904 265.382 354.957 265.682 355.062C265.981 355.151 266.131 355.256 266.131 355.376C266.131 355.436 265.989 355.616 265.704 355.915C265.435 356.2 265.21 356.462 265.03 356.701C264.476 357.42 264.049 358.124 263.75 358.812C263.465 359.486 263.323 360.085 263.323 360.609C263.323 360.999 263.428 361.313 263.638 361.553C263.847 361.792 264.124 361.912 264.469 361.912C264.843 361.912 265.247 361.8 265.682 361.575C266.116 361.351 266.647 360.969 267.276 360.43C267.546 360.205 267.883 359.913 268.287 359.554C268.766 359.104 269.073 358.88 269.208 358.88C269.328 358.88 269.418 358.917 269.478 358.992C269.537 359.052 269.575 359.149 269.59 359.284C269.59 359.419 269.507 359.591 269.343 359.801C269.178 359.995 268.826 360.317 268.287 360.767C267.209 361.65 266.348 362.257 265.704 362.586C265.06 362.9 264.454 363.058 263.885 363.058C263.106 363.058 262.5 362.826 262.065 362.361C261.646 361.882 261.437 361.223 261.437 360.385C261.437 360.085 261.474 359.741 261.549 359.352C261.639 358.962 261.758 358.543 261.908 358.094C260.546 359.337 259.258 360.624 258.045 361.957C256.847 363.275 255.739 364.622 254.721 366C254.331 366.06 253.972 366.105 253.643 366.135C253.313 366.165 253.014 366.18 252.744 366.18C252.46 366.18 252.235 366.15 252.07 366.09C251.906 366.03 251.823 365.955 251.823 365.865C251.823 365.671 252.257 365.102 253.126 364.158C253.65 363.574 254.077 363.103 254.406 362.743C256.083 360.782 257.214 359.367 257.798 358.498C258.382 357.63 258.674 356.971 258.674 356.521C258.674 356.387 258.651 356.297 258.606 356.252C258.576 356.192 258.524 356.162 258.449 356.162C258.06 356.162 257.551 356.334 256.922 356.679C256.308 357.023 255.499 357.585 254.496 358.363C254.197 358.603 253.83 358.925 253.396 359.329C252.856 359.823 252.505 360.07 252.34 360.07C252.22 360.07 252.115 360.033 252.025 359.958C251.951 359.868 251.913 359.763 251.913 359.644C251.913 359.494 252.063 359.262 252.362 358.947C252.677 358.618 253.231 358.116 254.024 357.442C255.177 356.469 256.285 355.69 257.349 355.106C258.427 354.522 259.235 354.23 259.774 354.23C260.194 354.23 260.523 354.365 260.763 354.635C261.002 354.889 261.122 355.241 261.122 355.69C261.122 356.02 261.062 356.402 260.942 356.836C260.823 357.255 260.635 357.734 260.381 358.273L264.02 355.106ZM273.318 362.631L278.484 357.128C278.679 356.918 278.829 356.709 278.934 356.499C279.053 356.289 279.113 356.095 279.113 355.915C279.113 355.765 279.061 355.646 278.956 355.556C278.851 355.466 278.709 355.421 278.529 355.421C278.02 355.421 277.346 355.638 276.508 356.072C275.684 356.492 274.838 357.068 273.97 357.802C272.547 358.985 271.372 360.22 270.443 361.508C269.515 362.796 269.051 363.739 269.051 364.338C269.051 364.548 269.111 364.72 269.23 364.854C269.365 364.974 269.53 365.034 269.725 365.034C270.129 365.034 270.653 364.825 271.297 364.405C271.956 363.971 272.63 363.38 273.318 362.631ZM273.498 363.574C272.6 364.458 271.769 365.124 271.005 365.573C270.241 366.007 269.56 366.225 268.961 366.225C268.332 366.225 267.845 365.993 267.501 365.528C267.157 365.064 266.984 364.405 266.984 363.552C266.984 362.549 267.224 361.59 267.703 360.677C268.182 359.763 268.924 358.872 269.927 358.004C271.215 356.851 272.6 355.938 274.082 355.264C275.564 354.575 276.875 354.23 278.013 354.23C278.657 354.23 279.128 354.35 279.428 354.59C279.727 354.829 279.899 355.226 279.944 355.78C280.154 355.541 280.394 355.309 280.663 355.084C280.948 354.844 281.262 354.62 281.606 354.41C281.726 354.41 281.898 354.403 282.123 354.388C282.348 354.373 282.512 354.365 282.617 354.365C283.141 354.365 283.516 354.41 283.74 354.5C283.965 354.575 284.077 354.71 284.077 354.904C284.077 355.084 283.733 355.481 283.044 356.095C282.67 356.424 282.37 356.686 282.146 356.881C280.139 358.783 278.567 360.407 277.429 361.755C276.291 363.088 275.722 363.993 275.722 364.473C275.722 364.667 275.759 364.802 275.834 364.877C275.924 364.952 276.081 364.989 276.306 364.989C276.965 364.989 277.938 364.675 279.226 364.046C280.513 363.402 281.876 362.534 283.313 361.44C283.912 360.991 284.556 360.467 285.245 359.868C285.934 359.269 286.346 358.97 286.48 358.97C286.585 358.97 286.668 359.007 286.728 359.082C286.802 359.157 286.84 359.254 286.84 359.374C286.84 359.644 286.001 360.46 284.324 361.822L284.212 361.912C282.55 363.245 280.955 364.293 279.428 365.057C277.915 365.805 276.68 366.18 275.722 366.18C275.033 366.18 274.479 365.993 274.06 365.618C273.655 365.229 273.453 364.712 273.453 364.068C273.453 363.934 273.453 363.836 273.453 363.776C273.468 363.701 273.483 363.634 273.498 363.574ZM301.754 362.631L305.527 358.633C305.632 358.528 305.789 358.371 305.999 358.161C307.032 357.038 307.549 356.289 307.549 355.915C307.549 355.765 307.496 355.646 307.392 355.556C307.287 355.466 307.145 355.421 306.965 355.421C306.456 355.421 305.782 355.638 304.943 356.072C304.12 356.492 303.274 357.068 302.405 357.802C300.983 358.985 299.807 360.22 298.879 361.508C297.951 362.796 297.486 363.739 297.486 364.338C297.486 364.548 297.546 364.72 297.666 364.854C297.801 364.974 297.965 365.034 298.16 365.034C298.564 365.034 299.089 364.825 299.732 364.405C300.391 363.971 301.065 363.38 301.754 362.631ZM301.934 363.574C301.035 364.458 300.204 365.124 299.44 365.573C298.677 366.007 297.995 366.225 297.396 366.225C296.768 366.225 296.281 365.993 295.937 365.528C295.592 365.064 295.42 364.405 295.42 363.552C295.42 362.549 295.66 361.59 296.139 360.677C296.618 359.763 297.359 358.872 298.362 358.004C299.665 356.851 301.058 355.938 302.54 355.264C304.022 354.575 305.31 354.23 306.403 354.23C307.062 354.23 307.534 354.35 307.818 354.59C308.118 354.814 308.305 355.211 308.38 355.78L322.059 338.935C322.208 338.74 322.366 338.605 322.53 338.53C322.695 338.44 322.905 338.396 323.159 338.396C323.638 338.396 324.028 338.455 324.327 338.575C324.642 338.68 324.799 338.822 324.799 339.002C324.799 339.122 324.776 339.234 324.731 339.339C324.687 339.429 324.574 339.563 324.395 339.743L305.527 362.137C305.063 362.661 304.719 363.125 304.494 363.529C304.27 363.919 304.157 364.233 304.157 364.473C304.157 364.667 304.195 364.802 304.27 364.877C304.359 364.952 304.517 364.989 304.741 364.989C305.4 364.989 306.373 364.675 307.661 364.046C308.949 363.402 310.312 362.534 311.749 361.44C312.348 360.991 312.992 360.467 313.681 359.868C314.369 359.269 314.781 358.97 314.916 358.97C315.021 358.97 315.103 359.007 315.163 359.082C315.238 359.157 315.275 359.254 315.275 359.374C315.275 359.644 314.437 360.46 312.76 361.822L312.647 361.912C310.97 363.26 309.368 364.315 307.841 365.079C306.328 365.843 305.101 366.225 304.157 366.225C303.468 366.225 302.914 366.03 302.495 365.641C302.091 365.251 301.889 364.727 301.889 364.068C301.889 363.934 301.889 363.836 301.889 363.776C301.904 363.701 301.919 363.634 301.934 363.574ZM314.22 364.248C314.22 364.518 314.287 364.712 314.422 364.832C314.557 364.937 314.766 364.989 315.051 364.989C315.71 364.989 316.578 364.682 317.656 364.068C318.734 363.454 319.985 362.549 321.407 361.351C322.635 360.302 323.593 359.329 324.282 358.431C324.971 357.517 325.315 356.791 325.315 356.252C325.315 355.967 325.226 355.743 325.046 355.578C324.881 355.413 324.649 355.331 324.35 355.331C323.84 355.331 323.144 355.578 322.261 356.072C321.377 356.551 320.449 357.21 319.476 358.049C317.873 359.411 316.593 360.662 315.635 361.8C314.691 362.923 314.22 363.739 314.22 364.248ZM324.125 360.25C322.193 362.152 320.426 363.604 318.824 364.607C317.222 365.596 315.859 366.09 314.736 366.09C313.958 366.09 313.344 365.865 312.895 365.416C312.43 364.967 312.198 364.368 312.198 363.619C312.198 362.571 312.618 361.463 313.456 360.295C314.31 359.112 315.515 357.959 317.072 356.836C318.24 355.997 319.431 355.339 320.644 354.859C321.871 354.38 322.95 354.141 323.878 354.141C324.627 354.141 325.226 354.343 325.675 354.747C326.139 355.136 326.371 355.653 326.371 356.297C326.371 356.731 326.236 357.218 325.967 357.757C325.712 358.296 325.323 358.88 324.799 359.509C324.964 359.853 325.188 360.108 325.473 360.272C325.757 360.437 326.102 360.52 326.506 360.52C327.075 360.52 327.734 360.265 328.482 359.756C329.231 359.232 329.695 358.97 329.875 358.97C329.965 358.97 330.032 359 330.077 359.06C330.122 359.119 330.145 359.209 330.145 359.329C330.145 359.629 329.718 360.055 328.864 360.609C328.011 361.163 327.225 361.44 326.506 361.44C326.027 361.44 325.592 361.351 325.203 361.171C324.829 360.976 324.469 360.669 324.125 360.25ZM357.075 348.525C360.325 347.672 363.289 346.571 365.97 345.224C368.665 343.876 371.016 342.304 373.022 340.507C374.475 339.234 375.613 338.044 376.437 336.936C377.26 335.827 377.672 334.966 377.672 334.353C377.672 334.038 377.567 333.806 377.357 333.656C377.163 333.507 376.841 333.432 376.392 333.432C374.25 333.432 371.375 334.809 367.767 337.564C364.158 340.32 360.594 343.973 357.075 348.525ZM352.201 349.626C354.298 346.886 356.566 344.393 359.007 342.146C361.448 339.9 364.068 337.886 366.868 336.104C368.785 334.892 370.582 333.956 372.259 333.297C373.951 332.623 375.358 332.286 376.481 332.286C377.35 332.286 377.994 332.481 378.413 332.87C378.847 333.244 379.064 333.813 379.064 334.577C379.064 337.153 376.901 339.915 372.573 342.865C368.261 345.815 362.646 348.233 355.728 350.12C353.766 352.666 352.299 354.867 351.325 356.724C350.367 358.58 349.888 360.123 349.888 361.351C349.888 362.578 350.285 363.537 351.078 364.226C351.887 364.914 352.995 365.259 354.402 365.259C355.495 365.259 356.678 364.922 357.951 364.248C359.239 363.559 360.691 362.489 362.309 361.036C363.551 359.913 364.465 358.962 365.049 358.184C365.648 357.405 365.947 356.761 365.947 356.252C365.947 355.773 365.827 355.428 365.588 355.219C365.363 355.009 364.996 354.904 364.487 354.904C363.649 354.904 362.616 355.226 361.388 355.87C360.16 356.499 358.954 357.345 357.771 358.408C357.008 359.082 356.252 359.913 355.503 360.901C354.769 361.875 354.298 362.361 354.088 362.361C353.983 362.361 353.893 362.324 353.818 362.249C353.758 362.174 353.721 362.077 353.706 361.957C353.706 361.717 353.901 361.306 354.29 360.722C354.679 360.138 355.174 359.539 355.772 358.925C357.345 357.278 358.887 356.027 360.399 355.174C361.927 354.32 363.364 353.894 364.712 353.894C365.61 353.894 366.299 354.156 366.778 354.68C367.272 355.189 367.52 355.908 367.52 356.836C367.52 357.944 367.093 359.134 366.239 360.407C365.386 361.665 364.233 362.796 362.78 363.799C361.522 364.667 360.212 365.326 358.85 365.775C357.502 366.225 356.154 366.449 354.807 366.449C352.725 366.449 351.108 365.903 349.955 364.81C348.817 363.701 348.248 362.137 348.248 360.115C348.248 358.783 348.48 357.375 348.944 355.893C349.424 354.395 350.127 352.86 351.056 351.288C349.064 351.707 347.365 352.037 345.957 352.276C344.549 352.501 343.546 352.613 342.947 352.613C342.693 352.613 342.483 352.568 342.318 352.479C342.169 352.389 342.086 352.269 342.071 352.119C342.071 351.76 343.262 351.385 345.643 350.996C348.023 350.592 350.21 350.135 352.201 349.626ZM377.537 362.631L382.703 357.128C382.898 356.918 383.048 356.709 383.152 356.499C383.272 356.289 383.332 356.095 383.332 355.915C383.332 355.765 383.28 355.646 383.175 355.556C383.07 355.466 382.928 355.421 382.748 355.421C382.239 355.421 381.565 355.638 380.727 356.072C379.903 356.492 379.057 357.068 378.188 357.802C376.766 358.985 375.59 360.22 374.662 361.508C373.734 362.796 373.27 363.739 373.27 364.338C373.27 364.548 373.329 364.72 373.449 364.854C373.584 364.974 373.749 365.034 373.943 365.034C374.348 365.034 374.872 364.825 375.516 364.405C376.174 363.971 376.848 363.38 377.537 362.631ZM377.717 363.574C376.818 364.458 375.987 365.124 375.224 365.573C374.46 366.007 373.779 366.225 373.18 366.225C372.551 366.225 372.064 365.993 371.72 365.528C371.375 365.064 371.203 364.405 371.203 363.552C371.203 362.549 371.443 361.59 371.922 360.677C372.401 359.763 373.142 358.872 374.146 358.004C375.433 356.851 376.818 355.938 378.301 355.264C379.783 354.575 381.093 354.23 382.231 354.23C382.875 354.23 383.347 354.35 383.646 354.59C383.946 354.829 384.118 355.226 384.163 355.78C384.373 355.541 384.612 355.309 384.882 355.084C385.166 354.844 385.481 354.62 385.825 354.41C385.945 354.41 386.117 354.403 386.342 354.388C386.566 354.373 386.731 354.365 386.836 354.365C387.36 354.365 387.734 354.41 387.959 354.5C388.184 354.575 388.296 354.71 388.296 354.904C388.296 355.084 387.951 355.481 387.263 356.095C386.888 356.424 386.589 356.686 386.364 356.881C384.358 358.783 382.785 360.407 381.647 361.755C380.509 363.088 379.94 363.993 379.94 364.473C379.94 364.667 379.978 364.802 380.053 364.877C380.143 364.952 380.3 364.989 380.524 364.989C381.183 364.989 382.157 364.675 383.444 364.046C384.732 363.402 386.095 362.534 387.532 361.44C388.131 360.991 388.775 360.467 389.464 359.868C390.153 359.269 390.564 358.97 390.699 358.97C390.804 358.97 390.886 359.007 390.946 359.082C391.021 359.157 391.059 359.254 391.059 359.374C391.059 359.644 390.22 360.46 388.543 361.822L388.431 361.912C386.769 363.245 385.174 364.293 383.646 365.057C382.134 365.805 380.899 366.18 379.94 366.18C379.252 366.18 378.698 365.993 378.278 365.618C377.874 365.229 377.672 364.712 377.672 364.068C377.672 363.934 377.672 363.836 377.672 363.776C377.687 363.701 377.702 363.634 377.717 363.574ZM402.154 355.106C402.184 355.062 402.259 355.024 402.379 354.994C402.499 354.949 402.618 354.919 402.738 354.904C403.158 354.904 403.517 354.957 403.816 355.062C404.116 355.151 404.266 355.256 404.266 355.376C404.266 355.436 404.123 355.616 403.839 355.915C403.569 356.2 403.345 356.462 403.165 356.701C402.611 357.42 402.184 358.124 401.885 358.812C401.6 359.486 401.458 360.085 401.458 360.609C401.458 360.999 401.563 361.313 401.772 361.553C401.982 361.792 402.259 361.912 402.604 361.912C402.978 361.912 403.382 361.8 403.816 361.575C404.251 361.351 404.782 360.969 405.411 360.43C405.681 360.205 406.018 359.913 406.422 359.554C406.901 359.104 407.208 358.88 407.343 358.88C407.463 358.88 407.552 358.917 407.612 358.992C407.672 359.052 407.71 359.149 407.725 359.284C407.725 359.419 407.642 359.591 407.478 359.801C407.313 359.995 406.961 360.317 406.422 360.767C405.344 361.65 404.483 362.257 403.839 362.586C403.195 362.9 402.589 363.058 402.02 363.058C401.241 363.058 400.634 362.826 400.2 362.361C399.781 361.882 399.571 361.223 399.571 360.385C399.571 360.085 399.609 359.741 399.684 359.352C399.773 358.962 399.893 358.543 400.043 358.094C398.68 359.337 397.393 360.624 396.18 361.957C394.982 363.275 393.874 364.622 392.855 366C392.466 366.06 392.107 366.105 391.777 366.135C391.448 366.165 391.148 366.18 390.879 366.18C390.594 366.18 390.37 366.15 390.205 366.09C390.04 366.03 389.958 365.955 389.958 365.865C389.958 365.671 390.392 365.102 391.261 364.158C391.785 363.574 392.212 363.103 392.541 362.743C394.218 360.782 395.349 359.367 395.933 358.498C396.517 357.63 396.809 356.971 396.809 356.521C396.809 356.387 396.786 356.297 396.741 356.252C396.711 356.192 396.659 356.162 396.584 356.162C396.195 356.162 395.686 356.334 395.057 356.679C394.443 357.023 393.634 357.585 392.631 358.363C392.331 358.603 391.965 358.925 391.53 359.329C390.991 359.823 390.639 360.07 390.475 360.07C390.355 360.07 390.25 360.033 390.16 359.958C390.085 359.868 390.048 359.763 390.048 359.644C390.048 359.494 390.198 359.262 390.497 358.947C390.812 358.618 391.366 358.116 392.159 357.442C393.312 356.469 394.42 355.69 395.483 355.106C396.562 354.522 397.37 354.23 397.909 354.23C398.328 354.23 398.658 354.365 398.897 354.635C399.137 354.889 399.257 355.241 399.257 355.69C399.257 356.02 399.197 356.402 399.077 356.836C398.957 357.255 398.77 357.734 398.516 358.273L402.154 355.106ZM407.365 366C407.23 366.045 407.058 366.075 406.849 366.09C406.639 366.12 406.287 366.135 405.793 366.135C405.284 366.135 404.947 366.112 404.782 366.067C404.603 366.022 404.513 365.94 404.513 365.82C404.513 365.551 405.172 364.81 406.489 363.597C407.373 362.773 408.091 362.084 408.646 361.53L409.185 361.036C412.209 358.101 413.722 356.417 413.722 355.982C413.707 355.848 413.677 355.75 413.632 355.69C413.587 355.631 413.535 355.601 413.475 355.601C413.055 355.601 412.516 355.803 411.857 356.207C411.214 356.611 410.3 357.33 409.117 358.363C408.818 358.618 408.458 358.94 408.039 359.329C407.485 359.853 407.118 360.115 406.938 360.115C406.834 360.115 406.736 360.078 406.646 360.003C406.572 359.928 406.534 359.838 406.534 359.733C406.534 359.524 407.081 358.932 408.174 357.959C408.383 357.779 408.541 357.637 408.646 357.532C409.993 356.364 411.116 355.526 412.015 355.017C412.913 354.493 413.692 354.23 414.351 354.23C414.83 354.23 415.197 354.388 415.451 354.702C415.706 355.017 415.833 355.488 415.833 356.117C415.833 356.222 415.826 356.349 415.811 356.499C415.796 356.649 415.773 356.866 415.743 357.15C417.78 355.878 419.165 355.076 419.898 354.747C420.647 354.403 421.269 354.23 421.763 354.23C422.167 354.23 422.481 354.395 422.706 354.725C422.931 355.039 423.043 355.503 423.043 356.117C423.043 356.237 423.035 356.364 423.021 356.499C423.021 356.634 423.006 356.851 422.976 357.15C424.802 355.997 426.128 355.226 426.951 354.837C427.79 354.433 428.449 354.23 428.928 354.23C429.452 354.23 429.864 354.38 430.163 354.68C430.478 354.964 430.635 355.361 430.635 355.87C430.635 356.784 429.691 358.161 427.805 360.003L427.737 360.07C427.408 360.37 426.959 360.789 426.39 361.328C424.563 363.035 423.649 364.068 423.649 364.428C423.649 364.592 423.717 364.727 423.852 364.832C423.986 364.937 424.166 364.989 424.391 364.989C425.049 364.989 426.015 364.675 427.288 364.046C428.576 363.402 429.938 362.534 431.376 361.44C431.99 360.991 432.641 360.467 433.33 359.868C434.019 359.269 434.423 358.97 434.543 358.97C434.648 358.97 434.73 359.007 434.79 359.082C434.85 359.142 434.88 359.239 434.88 359.374C434.88 359.644 434.049 360.452 432.387 361.8L432.252 361.912C430.62 363.2 429.04 364.233 427.513 365.012C425.985 365.79 424.817 366.18 424.009 366.18C423.35 366.18 422.811 365.993 422.392 365.618C421.972 365.244 421.763 364.757 421.763 364.158C421.763 363.439 422.032 362.653 422.571 361.8C423.125 360.946 423.911 360.078 424.93 359.194C425.259 358.91 425.708 358.528 426.277 358.049C427.685 356.881 428.389 356.192 428.389 355.982C428.389 355.878 428.329 355.788 428.209 355.713C428.104 355.638 427.977 355.601 427.827 355.601C426.989 355.601 425.364 356.544 422.953 358.431C420.557 360.317 417.802 362.84 414.688 366C414.538 366.045 414.358 366.075 414.148 366.09C413.939 366.12 413.594 366.135 413.115 366.135C412.591 366.135 412.239 366.112 412.06 366.067C411.88 366.022 411.79 365.94 411.79 365.82C411.79 365.551 412.441 364.81 413.744 363.597C414.253 363.118 414.658 362.736 414.957 362.451C417.098 360.43 418.641 358.925 419.584 357.937C420.542 356.933 421.021 356.327 421.021 356.117C421.021 355.982 420.969 355.863 420.864 355.758C420.759 355.653 420.647 355.601 420.527 355.601C419.704 355.601 418.057 356.566 415.586 358.498C413.115 360.415 410.375 362.915 407.365 366ZM433.981 364.248C433.981 364.518 434.049 364.712 434.184 364.832C434.318 364.937 434.528 364.989 434.812 364.989C435.471 364.989 436.34 364.682 437.418 364.068C438.496 363.454 439.746 362.549 441.169 361.351C442.397 360.302 443.355 359.329 444.044 358.431C444.733 357.517 445.077 356.791 445.077 356.252C445.077 355.967 444.987 355.743 444.808 355.578C444.643 355.413 444.411 355.331 444.111 355.331C443.602 355.331 442.906 355.578 442.022 356.072C441.139 356.551 440.211 357.21 439.237 358.049C437.635 359.411 436.355 360.662 435.396 361.8C434.453 362.923 433.981 363.739 433.981 364.248ZM443.887 360.25C441.955 362.152 440.188 363.604 438.586 364.607C436.984 365.596 435.621 366.09 434.498 366.09C433.719 366.09 433.105 365.865 432.656 365.416C432.192 364.967 431.96 364.368 431.96 363.619C431.96 362.571 432.379 361.463 433.218 360.295C434.071 359.112 435.277 357.959 436.834 356.836C438.002 355.997 439.192 355.339 440.405 354.859C441.633 354.38 442.711 354.141 443.64 354.141C444.388 354.141 444.987 354.343 445.437 354.747C445.901 355.136 446.133 355.653 446.133 356.297C446.133 356.731 445.998 357.218 445.729 357.757C445.474 358.296 445.085 358.88 444.561 359.509C444.725 359.853 444.95 360.108 445.234 360.272C445.519 360.437 445.863 360.52 446.268 360.52C446.837 360.52 447.495 360.265 448.244 359.756C448.993 359.232 449.457 358.97 449.637 358.97C449.727 358.97 449.794 359 449.839 359.06C449.884 359.119 449.906 359.209 449.906 359.329C449.906 359.629 449.479 360.055 448.626 360.609C447.772 361.163 446.986 361.44 446.268 361.44C445.788 361.44 445.354 361.351 444.965 361.171C444.59 360.976 444.231 360.669 443.887 360.25Z" fill="black"/>
<path d="M143.162 286.074L138.791 299.395L154.9 302.009L155.917 298.911L144.466 297.053L145.183 294.868L156.16 296.649L157.157 293.609L146.181 291.827L146.829 289.851L158.062 291.674L159.054 288.652L143.162 286.074Z" fill="white"/>
<path d="M161.496 288.994L157.957 302.56L168.014 303.857C169.72 304.077 171.263 304.136 172.628 304.012C174.008 303.91 175.13 303.695 176.014 303.369C176.879 303.04 177.63 302.597 178.288 302.042C178.92 301.503 179.389 300.964 179.699 300.404C180.024 299.865 180.26 299.276 180.427 298.637L180.573 298.076C180.714 297.534 180.786 297.023 180.773 296.521C180.781 296.022 180.689 295.51 180.542 294.971C180.376 294.43 180.075 293.931 179.641 293.475C179.211 292.999 178.648 292.566 177.96 292.138C177.292 291.711 176.4 291.356 175.295 291.034C174.21 290.714 172.941 290.47 171.533 290.288L161.496 288.994ZM165.404 292.798L170.343 293.435C174.409 293.96 176.129 295.382 175.519 297.724L175.493 297.821C174.883 300.162 172.556 301.062 168.49 300.538L163.551 299.901L165.404 292.798Z" fill="white"/>
<path d="M197.86 293.02L196.645 299.385C196.551 299.876 196.385 300.321 196.167 300.72C195.945 301.139 195.628 301.529 195.19 301.908C194.773 302.288 194.195 302.554 193.473 302.726C192.732 302.896 191.889 302.956 190.933 302.866C189.958 302.774 189.147 302.557 188.496 302.256C187.824 301.952 187.366 301.589 187.106 301.144C186.847 300.7 186.686 300.265 186.63 299.82C186.569 299.394 186.575 298.934 186.669 298.443L187.884 292.078L183.145 291.631L181.882 298.251C181.803 298.664 181.748 299.059 181.729 299.477C181.713 299.875 181.747 300.339 181.832 300.847C181.937 301.356 182.07 301.829 182.286 302.289C182.486 302.728 182.782 303.196 183.201 303.656C183.6 304.113 184.11 304.522 184.691 304.876C185.272 305.231 186.004 305.54 186.906 305.805C187.788 306.069 188.808 306.245 189.923 306.35L190.66 306.42C192.134 306.559 193.478 306.526 194.7 306.281C195.899 306.054 196.877 305.707 197.632 305.258C198.387 304.809 199.037 304.271 199.586 303.623C200.132 302.994 200.534 302.372 200.782 301.816C201.034 301.239 201.226 300.658 201.335 300.088L202.599 293.467L197.86 293.02Z" fill="white"/>
<path d="M212.018 308.322L212.856 308.373C214.513 308.472 216.008 308.422 217.319 308.221C218.633 308.001 219.675 307.703 220.422 307.349C221.191 306.975 221.828 306.533 222.353 306.025C222.86 305.496 223.217 305.037 223.43 304.61C223.623 304.182 223.736 303.748 223.787 303.332L223.811 303.133L218.74 302.827C218.738 302.847 218.736 302.867 218.713 302.886C217.958 304.46 216.022 305.164 212.888 304.975C211.83 304.911 210.926 304.736 210.177 304.451C209.427 304.166 208.887 303.814 208.536 303.392C208.185 302.971 207.934 302.556 207.805 302.128C207.676 301.701 207.63 301.258 207.685 300.801L207.712 300.583C207.77 300.106 207.903 299.675 208.131 299.288C208.339 298.901 208.665 298.54 209.09 298.186C209.533 297.853 210.145 297.61 210.948 297.458C211.734 297.285 212.684 297.243 213.782 297.309C214.7 297.364 215.489 297.492 216.191 297.674C216.873 297.855 217.392 298.046 217.73 298.247C218.068 298.447 218.34 298.684 218.568 298.957C218.797 299.231 218.932 299.439 218.977 299.562C219.023 299.685 219.048 299.806 219.069 299.967L224.14 300.273L224.166 300.055C224.212 299.677 224.201 299.277 224.132 298.853C224.043 298.427 223.821 297.934 223.427 297.37C223.054 296.808 222.53 296.316 221.882 295.857C221.232 295.418 220.275 295.02 219.033 294.646C217.77 294.289 216.309 294.061 214.612 293.959L213.774 293.909C212.057 293.805 210.52 293.873 209.202 294.133C207.865 294.373 206.819 294.709 206.062 295.144C205.305 295.578 204.676 296.12 204.157 296.749C203.658 297.379 203.306 297.958 203.121 298.486C202.936 299.015 202.806 299.587 202.733 300.183L202.665 300.739C202.619 301.116 202.593 301.494 202.605 301.895C202.619 302.276 202.705 302.721 202.847 303.21C202.988 303.698 203.175 304.149 203.424 304.584C203.672 305.019 204.043 305.442 204.531 305.891C205.022 306.321 205.58 306.694 206.242 307.034C206.887 307.353 207.719 307.623 208.715 307.863C209.712 308.103 210.8 308.249 212.018 308.322Z" fill="white"/>
<path d="M247.223 295.311L247.431 309.31L252.131 309.275L251.993 299.996L262.491 309.199L267.211 309.164L267.002 295.166L262.282 295.201L262.413 304L252.543 295.272L247.223 295.311Z" fill="white"/>
<path d="M269.194 295.003L270.374 308.974L280.505 308.551C282.223 308.479 283.73 308.276 285.004 307.923C286.299 307.589 287.308 307.187 288.05 306.716C288.773 306.245 289.347 305.681 289.792 305.023C290.22 304.385 290.489 303.774 290.598 303.169C290.729 302.584 290.757 301.963 290.702 301.305L290.653 300.727C290.606 300.169 290.502 299.653 290.32 299.161C290.158 298.668 289.896 298.179 289.573 297.672C289.229 297.167 288.771 296.726 288.198 296.35C287.623 295.954 286.933 295.623 286.125 295.316C285.337 295.009 284.358 294.81 283.184 294.679C282.03 294.547 280.724 294.522 279.305 294.581L269.194 295.003ZM274.248 298.092L279.223 297.884C283.32 297.713 285.459 298.824 285.662 301.235L285.671 301.335C285.874 303.747 283.937 305.027 279.841 305.198L274.865 305.406L274.248 298.092Z" fill="white"/>
<path d="M239.317 295.336L232.219 295.149L224.065 308.753L228.744 308.877L230.178 306.395L240.154 306.658L241.319 309.209L246.018 309.333L239.317 295.336ZM231.963 303.322L234.853 298.318L236.352 298.358L238.721 303.5L231.963 303.322Z" fill="white"/>
<path d="M304.397 293.146L297.318 293.683L292.011 307.904L296.677 307.55L297.592 304.961L307.544 304.207L309.221 306.6L313.908 306.245L304.397 293.146ZM298.735 301.755L300.579 296.535L302.075 296.422L305.476 301.244L298.735 301.755Z" fill="white"/>
<path d="M330.329 298.493C329.737 298.017 329.023 297.734 328.201 297.603C329.771 296.873 330.413 295.804 330.101 294.378L330.054 294.163C329.545 291.838 327.3 290.88 323.324 291.311L312.248 292.509L315.188 305.951L319.483 305.486L318.441 300.719L324.048 300.112C325.102 299.998 325.88 300.114 326.399 300.438C326.917 300.762 327.269 301.344 327.448 302.165L327.974 304.568L332.289 304.101L331.481 300.408C331.301 299.588 330.918 298.949 330.329 298.493ZM325.752 295.528C325.838 295.919 325.771 296.266 325.544 296.531C325.317 296.795 324.909 296.979 324.313 297.044L317.791 297.749L317.21 295.092L323.732 294.387C324.328 294.322 324.796 294.411 325.125 294.616C325.455 294.82 325.662 295.118 325.748 295.508L325.752 295.528Z" fill="white"/>
<path d="M336.355 289.448L331.636 290.072L335.24 303.558L339.959 302.935L336.355 289.448Z" fill="white"/>
<path d="M351.506 286.907C350.182 287.118 349.022 287.383 347.99 287.727C346.973 288.049 346.132 288.403 345.486 288.785C344.861 289.165 344.333 289.589 343.922 290.055C343.492 290.524 343.199 290.97 343.006 291.401C342.832 291.829 342.73 292.286 342.699 292.771C342.648 293.26 342.664 293.697 342.735 294.046C342.792 294.417 342.889 294.782 343.017 295.182L343.189 295.715C343.311 296.096 343.453 296.474 343.629 296.826C343.779 297.162 344.032 297.563 344.376 297.988C344.701 298.417 345.073 298.798 345.498 299.151C345.936 299.481 346.473 299.796 347.155 300.108C347.831 300.401 348.567 300.624 349.37 300.796C350.166 300.95 351.142 301.015 352.264 301.016C353.405 301.015 354.615 300.903 355.938 300.692L356.571 300.592C357.894 300.381 359.054 300.117 360.066 299.776C361.097 299.431 361.919 299.081 362.544 298.701C363.163 298.302 363.691 297.878 364.122 297.409C364.546 296.922 364.839 296.475 365.012 296.047C365.18 295.6 365.282 295.143 365.333 294.655C365.364 294.17 365.367 293.729 365.297 293.38C365.24 293.009 365.137 292.625 365.015 292.244L364.843 291.711C364.715 291.311 364.578 290.952 364.403 290.6C364.247 290.245 363.98 289.867 363.655 289.438C363.311 289.013 362.939 288.631 362.501 288.301C362.082 287.967 361.545 287.652 360.869 287.36C360.214 287.064 359.477 286.84 358.681 286.687C357.864 286.537 356.908 286.469 355.792 286.486C354.671 286.484 353.461 286.596 352.138 286.807L351.506 286.907ZM360.028 292.877C360.162 293.296 360.218 293.727 360.163 294.136C360.127 294.542 359.953 294.97 359.655 295.398C359.363 295.845 358.828 296.25 358.046 296.594C357.383 296.92 356.525 297.157 355.53 297.355C355.372 297.38 355.135 297.418 355.036 297.434C353.943 297.587 352.959 297.624 352.101 297.54C351.178 297.447 350.468 297.239 349.931 296.925C349.413 296.607 348.995 296.273 348.714 295.917C348.414 295.565 348.2 295.158 348.066 294.74L347.998 294.53C347.27 292.264 348.812 290.798 352.6 290.116C352.718 290.097 353.074 290.04 353.258 290.031C354.034 289.928 354.744 289.875 355.399 289.911C356.179 289.947 356.832 290.043 357.34 290.202C357.842 290.343 358.29 290.572 358.651 290.855C359.031 291.134 359.307 291.411 359.504 291.7C359.694 291.969 359.838 292.287 359.948 292.63L360.028 292.877Z" fill="white"/>
</svg>
