<svg width="500" height="500" viewBox="0 0 500 500" fill="none" xmlns="http://www.w3.org/2000/svg">
<rect width="500" height="500" fill="#F5F5F5"/>
<rect width="500" height="500" fill="white"/>
<rect x="32" y="187" width="446" height="105" rx="7" fill="#1B487A"/>
<path d="M138.558 226.4H149.958V230.2H142.738V237.23H148.476V241.03H142.738V249.2H149.958V253H138.558V226.4ZM177.975 255.47C176.075 255.47 174.909 254.621 174.479 252.924C173.693 253.228 172.769 253.38 171.705 253.38C169.653 253.38 168.082 252.797 166.993 251.632C165.903 250.467 165.359 248.82 165.359 246.692V232.708C165.359 230.58 165.903 228.933 166.993 227.768C168.082 226.603 169.653 226.02 171.705 226.02C173.757 226.02 175.327 226.603 176.417 227.768C177.506 228.933 178.051 230.58 178.051 232.708V246.692C178.051 248.465 177.658 249.922 176.873 251.062C177.025 251.315 177.215 251.48 177.443 251.556C177.671 251.632 178 251.67 178.431 251.67H179.077V255.47H177.975ZM171.705 249.58C173.149 249.58 173.871 248.706 173.871 246.958V232.442C173.871 230.694 173.149 229.82 171.705 229.82C170.261 229.82 169.539 230.694 169.539 232.442V246.958C169.539 248.706 170.261 249.58 171.705 249.58ZM200.258 253.38C198.231 253.38 196.686 252.81 195.622 251.67C194.558 250.505 194.026 248.845 194.026 246.692V226.4H198.206V246.996C198.206 247.908 198.383 248.567 198.738 248.972C199.118 249.377 199.65 249.58 200.334 249.58C201.018 249.58 201.537 249.377 201.892 248.972C202.272 248.567 202.462 247.908 202.462 246.996V226.4H206.49V246.692C206.49 248.845 205.958 250.505 204.894 251.67C203.83 252.81 202.284 253.38 200.258 253.38ZM222.767 226.4H226.947V253H222.767V226.4ZM243.377 226.4H249.533C251.61 226.4 253.168 226.957 254.207 228.072C255.246 229.187 255.765 230.821 255.765 232.974V235.596C255.765 237.749 255.246 239.383 254.207 240.498C253.168 241.613 251.61 242.17 249.533 242.17H247.557V253H243.377V226.4ZM249.533 238.37C250.217 238.37 250.724 238.18 251.053 237.8C251.408 237.42 251.585 236.774 251.585 235.862V232.708C251.585 231.796 251.408 231.15 251.053 230.77C250.724 230.39 250.217 230.2 249.533 230.2H247.557V238.37H249.533ZM277.377 253.38C275.325 253.38 273.755 252.797 272.665 251.632C271.576 250.467 271.031 248.82 271.031 246.692V232.708C271.031 230.58 271.576 228.933 272.665 227.768C273.755 226.603 275.325 226.02 277.377 226.02C279.429 226.02 281 226.603 282.089 227.768C283.179 228.933 283.723 230.58 283.723 232.708V246.692C283.723 248.82 283.179 250.467 282.089 251.632C281 252.797 279.429 253.38 277.377 253.38ZM277.377 249.58C278.821 249.58 279.543 248.706 279.543 246.958V232.442C279.543 230.694 278.821 229.82 277.377 229.82C275.933 229.82 275.211 230.694 275.211 232.442V246.958C275.211 248.706 275.933 249.58 277.377 249.58ZM302.97 230.2H298.6V226.4H311.52V230.2H307.15V253H302.97V230.2ZM326.844 226.4H338.244V230.2H331.024V237.23H336.762V241.03H331.024V249.2H338.244V253H326.844V226.4ZM330.568 220.244H334.52L337.636 224.614H334.482L332.544 222.524L330.606 224.614H327.452L330.568 220.244ZM353.948 226.4H359.192L363.258 242.322H363.334V226.4H367.058V253H362.764L357.748 233.582H357.672V253H353.948V226.4ZM389.355 253.38C387.354 253.38 385.821 252.81 384.757 251.67C383.718 250.53 383.199 248.921 383.199 246.844V232.556C383.199 230.479 383.718 228.87 384.757 227.73C385.821 226.59 387.354 226.02 389.355 226.02C391.356 226.02 392.876 226.59 393.915 227.73C394.979 228.87 395.511 230.479 395.511 232.556V235.368H391.559V232.29C391.559 230.643 390.862 229.82 389.469 229.82C388.076 229.82 387.379 230.643 387.379 232.29V247.148C387.379 248.769 388.076 249.58 389.469 249.58C390.862 249.58 391.559 248.769 391.559 247.148V243.082H395.511V246.844C395.511 248.921 394.979 250.53 393.915 251.67C392.876 252.81 391.356 253.38 389.355 253.38ZM411.312 226.4H415.492V253H411.312V226.4ZM435.152 226.4H440.814L445.146 253H440.966L440.206 247.718V247.794H435.456L434.696 253H430.82L435.152 226.4ZM439.712 244.184L437.85 231.036H437.774L435.95 244.184H439.712Z" fill="white"/>
<path d="M129.044 210.329L129.044 225.481C120.49 227.145 114.891 223.002 109.36 227.123C106.825 228.933 100.943 233.899 97.5503 234.742C94.1577 235.585 89.456 241.463 81.1475 241.608C75.8617 240.835 69.9724 239.435 64.0886 236.268C63.0912 234.573 63.2695 231.016 69.2989 234.117C75.3283 237.217 84.6168 233.118 88.5074 231.69C91.1246 230.636 93.5178 226.065 91.6453 224.061C90.0723 222.378 81.3266 226.296 77.2109 227.123C73.0951 227.949 74.8885 223.178 75.8986 222.536C76.9088 221.893 84.6334 219.991 88.5074 217.195C92.3815 214.4 93.0994 213.512 103.439 214.274C107.86 213.504 125.812 211.716 129.044 210.329Z" fill="white" stroke="#1B487A"/>
<path d="M60.3149 272.851H46C50.9915 267.843 54.9447 265.87 57.7122 259.255C58.9926 256.311 61.6163 245.506 63.5683 243.317C65.5203 241.127 69.5591 234.339 74.6297 231.106C77.9865 230.009 82.2568 229.217 86.3419 230.553C87.2094 232.063 87.9035 234.783 83.7392 233.574C79.5748 232.366 74.1959 238.106 72.027 241.127C70.5822 243.264 70.5765 247.151 72.027 248.681C73.2456 249.965 80.4858 238.106 82.4378 236.595C84.3899 235.085 85.6912 237.351 85.0405 238.861C84.3898 240.372 81.1365 246.415 79.1844 250.947C77.2324 255.479 71.9731 263.076 65.5203 266.053C62.9266 268.541 62.0857 270.119 60.3149 272.851Z" fill="white" stroke="#1B487A"/>
</svg>
