<?xml version="1.0" encoding="UTF-8"?>
<!DOCTYPE svg PUBLIC "-//W3C//DTD SVG 1.1//EN" "http://www.w3.org/Graphics/SVG/1.1/DTD/svg11.dtd">
<!-- Creator: CorelDRAW (Evaluation Version) -->
<svg xmlns="http://www.w3.org/2000/svg" xml:space="preserve" width="125mm" height="125mm" version="1.1" style="shape-rendering:geometricPrecision; text-rendering:geometricPrecision; image-rendering:optimizeQuality; fill-rule:evenodd; clip-rule:evenodd"
viewBox="0 0 12500 12500"
 xmlns:xlink="http://www.w3.org/1999/xlink"
 xmlns:xodm="http://www.corel.com/coreldraw/odm/2003">
 <defs>
  <style type="text/css">
   <![CDATA[
    .str0 {stroke:#373435;stroke-width:20;stroke-miterlimit:22.9256}
    .str1 {stroke:#373435;stroke-width:20;stroke-miterlimit:22.9256;stroke-dasharray:100.000000 100.000000}
    .fil0 {fill:none}
   ]]>
  </style>
 </defs>
 <g id="Layer_x0020_1">
  <metadata id="CorelCorpID_0Corel-Layer"/>
  <path class="fil0 str0" d="M1718.81 6197.38c-69.58,-69.58 -107.97,-205.7 -56.52,-291.4 74.64,-124.38 208.72,-39.75 208.72,13.07 0,59.25 -28.99,220.34 -152.2,278.33zm152.2 -278.33c-104.36,530.56 317.46,556.64 391.39,378.34 28.99,-163.8 -129.01,-137.94 -126.11,-14.72 104.37,447.93 613.18,219.12 734.93,123.44 -140.6,-104.37 -150.74,-352.24 -482.7,-326.16m-386.3 77.76c-49.66,-150.31 458.67,-679.64 654.43,-510.49 195.75,169.15 -573.75,754.66 -654.43,510.49zm13.01 25.47c-260.45,-163.73 -80.02,-799.5 123.44,-808.28 203.45,-8.78 94.26,945.14 -123.44,808.28zm492.22 -99.68c-24.29,262.9 12.84,305.63 -241.66,412.79m371.74 -361.43c-33.1,207.58 -33.9,276.77 -174.82,415.16 243.98,-9.39 235.96,-157.55 283.45,-304.59m-1227.4 -495.99c-5.29,-64.6 13.04,-78.28 13.04,-78.28 84.85,-47.89 240.38,170.75 172.25,188.66 -64.54,-2.83 -255.16,-99.3 -246.17,-19.06l7.44 66.44m673.35 -532.3c-203.46,8.78 -383.89,644.55 -123.49,808.31 -5.35,-7.21 -9.72,-15.68 -12.96,-25.5 -24.99,-75.65 91.34,-247.28 238.03,-377.58 19.98,-205.59 -7.07,-409.31 -101.58,-405.23zm517.98 272.32c-97.24,-84.03 -271.61,4.31 -416.4,132.91 -23.01,236.92 -108.46,476.32 -225.07,403.08 27.49,37 81.42,40.87 147.3,22.54 17.56,-19.01 41.05,-27.1 61.22,-21.81 57.77,-24.59 120.52,-61.5 180.68,-105.04 190.73,-138.04 355.35,-342.6 252.27,-431.68zm-641.42 535.96c116.56,73.29 202.01,-166.13 225.02,-403.05 -146.69,130.3 -263.02,301.93 -238.03,377.58 3.24,9.82 7.61,18.29 13.01,25.47zm389.15 -104.28c-60.16,43.54 -122.91,80.45 -180.68,105.04 29.04,7.63 51.17,42.99 38.7,113.45 -16.42,39.63 -50.03,69.15 -91.22,85.29 24.92,50.47 57.33,87.44 94.61,113.61 254.5,-107.16 217.37,-149.89 241.66,-412.79 -30.33,-4.91 -64.43,-6.67 -103.07,-4.6zm-141.98 218.49c12.47,-70.46 -9.66,-105.82 -38.7,-113.45 -21.2,9.03 -41.72,16.4 -61.22,21.81 -15.93,17.25 -26.97,43.51 -26.19,76.92 8.87,38.06 20.66,71.23 34.89,100.01 41.19,-16.14 74.8,-45.66 91.22,-85.29zm-543.59 -100.01c80.3,-37.79 120.58,-119.36 138.89,-188 2.67,-28.32 7.03,-58.42 13.31,-90.33 0,-41.74 -83.7,-103.32 -155.65,-65.99 -2.69,3.17 -6.43,5.49 -11.31,6.76 -14.99,10.24 -29.21,25.25 -41.76,46.16 -51.45,85.7 -13.06,221.82 56.52,291.4zm918.72 -62.52c-33.1,207.58 -33.9,276.77 -174.82,415.15 0.17,0 0.34,0 0.52,0 240.6,-9.48 235.62,-154.2 281.29,-299.43 -29.47,-42.52 -61.93,-84.05 -106.99,-115.72zm106.99 115.72c-45.66,145.17 -40.69,289.83 -281.01,299.41 165.84,-2.98 342.42,-92.58 407.71,-143.88 -52.59,-39.05 -86.94,-98.17 -126.7,-155.53zm-281.81 299.43c140.92,-138.38 141.72,-207.57 174.82,-415.15 -34.52,-24.23 -76.43,-42.69 -130.08,-51.36 -24.29,262.9 12.84,305.63 -241.66,412.79 57.31,40.21 126.12,54.88 196.92,53.72zm-595.02 -589.4c94.49,189.88 149.42,324.09 302.04,243.06m-30.52 90.92c-0.74,-31.59 -11.62,-73.57 20.72,-85.95 31.64,-12.12 -41.53,15.27 -20.72,85.95zm31.97 88.09c-14.23,-28.78 -26.02,-61.95 -34.89,-100.01 8.87,38.06 20.66,71.23 34.89,100.01zm-313.48 -373.3c-31.74,337.97 180.43,425.44 313.48,373.3 41.19,-16.14 74.8,-45.66 91.22,-85.29 12.47,-70.46 0.77,-110.36 -28.26,-117.99 -18.66,5.45 -47.1,15.24 -64.41,24.27 -3.32,1.77 -6.59,3.43 -9.82,4.98 -94.44,45.66 -150.56,5.57 -203.68,-79.16 -16.84,-21.63 -30.38,-46.35 -40.89,-73.34 -15.14,-29.45 -30.76,-61.61 -47.65,-95.54 -2.12,14.81 -5.34,31.38 -9.99,48.77zm366 174.56c29.04,7.63 51.17,42.99 38.7,113.45 -16.42,39.63 -50.03,69.15 -91.22,85.29 24.92,50.47 57.33,87.44 94.61,113.61 254.5,-107.16 217.37,-149.89 241.66,-412.79 -30.33,-4.91 -64.43,-6.67 -103.07,-4.6 -60.16,43.54 -122.91,80.45 -180.68,105.04zm413.83 -49.08c-33.1,207.58 -33.9,276.77 -174.82,415.15 0.17,0 0.34,0 0.52,0 0.09,-0.02 0.18,-0.02 0.28,-0.02 240.32,-9.58 235.35,-154.24 281.01,-299.41 -29.47,-42.52 -61.93,-84.05 -106.99,-115.72zm-918.72 62.52c80.3,-37.79 120.58,-119.36 138.89,-188 2.67,-28.33 7.03,-58.42 13.31,-90.33 0,-41.74 -83.7,-103.32 -155.65,-65.99 -1.94,2.27 -4.39,4.1 -7.42,5.43 -5.82,3.93 -11.24,7.05 -16.99,11.72 -10.18,9.28 -19.83,21.06 -28.66,35.77 -51.45,85.7 -13.06,221.82 56.52,291.4zm788.64 -113.88c-24.29,262.9 12.84,305.63 -241.66,412.79 57.31,40.21 126.12,54.88 196.92,53.72 140.92,-138.38 141.72,-207.57 174.82,-415.15 -34.52,-24.23 -76.43,-42.69 -130.08,-51.36zm237.07 167.08c-45.66,145.17 -40.69,289.83 -281.01,299.41 165.84,-2.98 342.42,-92.58 407.71,-143.88 -52.59,-39.05 -86.94,-98.17 -126.7,-155.53zm0 0c-45.66,145.17 -40.69,289.83 -281.01,299.41 240.32,-9.58 235.35,-154.24 281.01,-299.41zm-1025.71 -53.2c-69.58,-69.58 -107.97,-205.7 -56.52,-291.4 74.64,-124.38 208.72,-39.75 208.72,13.07 0,59.25 -28.99,220.34 -152.2,278.33zm152.2 -278.33c-104.36,530.56 317.46,556.64 391.39,378.34 28.99,-163.8 -129.01,-137.94 -126.11,-14.72 104.37,447.93 613.18,219.12 734.93,123.44 -140.6,-104.37 -150.74,-352.24 -482.7,-326.16m-386.3 77.76c-49.66,-150.31 458.67,-679.64 654.43,-510.49 195.75,169.15 -573.75,754.66 -654.43,510.49zm13.01 25.47c-260.45,-163.73 -80.02,-799.5 123.44,-808.28 203.45,-8.78 94.26,945.14 -123.44,808.28zm492.22 -99.68c-24.29,262.9 12.84,305.63 -241.66,412.79m371.74 -361.43c-33.1,207.58 -33.9,276.77 -174.82,415.16 243.98,-9.39 235.96,-157.55 283.45,-304.59m-1227.4 -495.99c-5.29,-64.6 13.04,-78.28 13.04,-78.28 84.85,-47.89 240.38,170.75 172.25,188.66 -64.54,-2.83 -255.16,-99.3 -246.17,-19.06l7.44 66.44m673.35 -532.3c-203.46,8.78 -383.89,644.55 -123.49,808.31 -5.35,-7.21 -9.72,-15.68 -12.96,-25.5 -24.99,-75.65 91.34,-247.28 238.03,-377.58 19.98,-205.59 -7.07,-409.31 -101.58,-405.23zm517.98 272.32c-97.24,-84.03 -271.61,4.31 -416.4,132.91 -23.01,236.92 -108.46,476.32 -225.07,403.08 27.49,37 81.42,40.87 147.3,22.54 17.56,-19.01 41.05,-27.1 61.22,-21.81 57.77,-24.59 120.52,-61.5 180.68,-105.04 190.73,-138.04 355.35,-342.6 252.27,-431.68zm-641.42 535.96c116.56,73.29 202.01,-166.13 225.02,-403.05 -146.69,130.3 -263.02,301.93 -238.03,377.58 3.24,9.82 7.61,18.29 13.01,25.47zm389.15 -104.28c-60.16,43.54 -122.91,80.45 -180.68,105.04 29.04,7.63 51.17,42.99 38.7,113.45 -16.42,39.63 -50.03,69.15 -91.22,85.29 24.92,50.47 57.33,87.44 94.61,113.61 254.5,-107.16 217.37,-149.89 241.66,-412.79 -30.33,-4.91 -64.43,-6.67 -103.07,-4.6zm-141.98 218.49c12.47,-70.46 -9.66,-105.82 -38.7,-113.45 -21.2,9.03 -41.72,16.4 -61.22,21.81 -15.93,17.25 -26.97,43.51 -26.19,76.92 8.87,38.06 20.66,71.23 34.89,100.01 41.19,-16.14 74.8,-45.66 91.22,-85.29zm-543.59 -100.01c80.3,-37.79 120.58,-119.36 138.89,-188 2.67,-28.32 7.03,-58.42 13.31,-90.33 0,-41.74 -83.7,-103.32 -155.65,-65.99 -2.69,3.17 -6.43,5.49 -11.31,6.76 -14.99,10.24 -29.21,25.25 -41.76,46.16 -51.45,85.7 -13.06,221.82 56.52,291.4zm918.72 -62.52c-33.1,207.58 -33.9,276.77 -174.82,415.15 0.17,0 0.34,0 0.52,0 240.6,-9.48 235.62,-154.2 281.29,-299.43 -29.47,-42.52 -61.93,-84.05 -106.99,-115.72zm106.99 115.72c-45.66,145.17 -40.69,289.83 -281.01,299.41 165.84,-2.98 342.42,-92.58 407.71,-143.88 -52.59,-39.05 -86.94,-98.17 -126.7,-155.53zm-281.81 299.43c140.92,-138.38 141.72,-207.57 174.82,-415.15 -34.52,-24.23 -76.43,-42.69 -130.08,-51.36 -24.29,262.9 12.84,305.63 -241.66,412.79 57.31,40.21 126.12,54.88 196.92,53.72zm-595.02 -589.4c94.49,189.88 149.42,324.09 302.04,243.06m-30.52 90.92c-0.74,-31.59 -11.62,-73.57 20.72,-85.95 31.64,-12.12 -41.53,15.27 -20.72,85.95zm31.97 88.09c-14.23,-28.78 -26.02,-61.95 -34.89,-100.01 8.87,38.06 20.66,71.23 34.89,100.01zm-313.48 -373.3c-31.74,337.97 180.43,425.44 313.48,373.3 41.19,-16.14 74.8,-45.66 91.22,-85.29 12.47,-70.46 0.77,-110.36 -28.26,-117.99 -18.66,5.45 -47.1,15.24 -64.41,24.27 -3.32,1.77 -6.59,3.43 -9.82,4.98 -94.44,45.66 -150.56,5.57 -203.68,-79.16 -16.84,-21.63 -30.38,-46.35 -40.89,-73.34 -15.14,-29.45 -30.76,-61.61 -47.65,-95.54 -2.12,14.81 -5.34,31.38 -9.99,48.77zm366 174.56c29.04,7.63 51.17,42.99 38.7,113.45 -16.42,39.63 -50.03,69.15 -91.22,85.29 24.92,50.47 57.33,87.44 94.61,113.61 254.5,-107.16 217.37,-149.89 241.66,-412.79 -30.33,-4.91 -64.43,-6.67 -103.07,-4.6 -60.16,43.54 -122.91,80.45 -180.68,105.04zm413.83 -49.08c-33.1,207.58 -33.9,276.77 -174.82,415.15 0.17,0 0.34,0 0.52,0 0.09,-0.02 0.18,-0.02 0.28,-0.02 240.32,-9.58 235.35,-154.24 281.01,-299.41 -29.47,-42.52 -61.93,-84.05 -106.99,-115.72zm-918.72 62.52c80.3,-37.79 120.58,-119.36 138.89,-188 2.67,-28.33 7.03,-58.42 13.31,-90.33 0,-41.74 -83.7,-103.32 -155.65,-65.99 -1.94,2.27 -4.39,4.1 -7.42,5.43 -5.82,3.93 -11.24,7.05 -16.99,11.72 -10.18,9.28 -19.83,21.06 -28.66,35.77 -51.45,85.7 -13.06,221.82 56.52,291.4zm788.64 -113.88c-24.29,262.9 12.84,305.63 -241.66,412.79 57.31,40.21 126.12,54.88 196.92,53.72 140.92,-138.38 141.72,-207.57 174.82,-415.15 -34.52,-24.23 -76.43,-42.69 -130.08,-51.36zm237.07 167.08c-45.66,145.17 -40.69,289.83 -281.01,299.41 165.84,-2.98 342.42,-92.58 407.71,-143.88 -52.59,-39.05 -86.94,-98.17 -126.7,-155.53zm0 0c-45.66,145.17 -40.69,289.83 -281.01,299.41 240.32,-9.58 235.35,-154.24 281.01,-299.41zm-1025.71 -53.2c-69.58,-69.58 -107.97,-205.7 -56.52,-291.4 74.64,-124.38 208.72,-39.75 208.72,13.07 0,59.25 -28.99,220.34 -152.2,278.33zm152.2 -278.33c-104.36,530.56 317.46,556.64 391.39,378.34 28.99,-163.8 -129.01,-137.94 -126.11,-14.72 104.37,447.93 613.18,219.12 734.93,123.44 -140.6,-104.37 -150.74,-352.24 -482.7,-326.16m-386.3 77.76c-49.66,-150.31 458.67,-679.64 654.43,-510.49 195.75,169.15 -573.75,754.66 -654.43,510.49zm13.01 25.47c-260.45,-163.73 -80.02,-799.5 123.44,-808.28 203.45,-8.78 94.26,945.14 -123.44,808.28zm492.22 -99.68c-24.29,262.9 12.84,305.63 -241.66,412.79m371.74 -361.43c-33.1,207.58 -33.9,276.77 -174.82,415.16 243.98,-9.39 235.96,-157.55 283.45,-304.59m-1227.4 -495.99c-5.29,-64.6 13.04,-78.28 13.04,-78.28 84.85,-47.89 240.38,170.75 172.25,188.66 -64.54,-2.83 -255.16,-99.3 -246.17,-19.06l7.44 66.44m673.35 -532.3c-203.46,8.78 -383.89,644.55 -123.49,808.31 -5.35,-7.21 -9.72,-15.68 -12.96,-25.5 -24.99,-75.65 91.34,-247.28 238.03,-377.58 19.98,-205.59 -7.07,-409.31 -101.58,-405.23zm517.98 272.32c-97.24,-84.03 -271.61,4.31 -416.4,132.91 -23.01,236.92 -108.46,476.32 -225.07,403.08 27.49,37 81.42,40.87 147.3,22.54 17.56,-19.01 41.05,-27.1 61.22,-21.81 57.77,-24.59 120.52,-61.5 180.68,-105.04 190.73,-138.04 355.35,-342.6 252.27,-431.68zm-641.42 535.96c116.56,73.29 202.01,-166.13 225.02,-403.05 -146.69,130.3 -263.02,301.93 -238.03,377.58 3.24,9.82 7.61,18.29 13.01,25.47zm389.15 -104.28c-60.16,43.54 -122.91,80.45 -180.68,105.04 29.04,7.63 51.17,42.99 38.7,113.45 -16.42,39.63 -50.03,69.15 -91.22,85.29 24.92,50.47 57.33,87.44 94.61,113.61 254.5,-107.16 217.37,-149.89 241.66,-412.79 -30.33,-4.91 -64.43,-6.67 -103.07,-4.6zm-141.98 218.49c12.47,-70.46 -9.66,-105.82 -38.7,-113.45 -21.2,9.03 -41.72,16.4 -61.22,21.81 -15.93,17.25 -26.97,43.51 -26.19,76.92 8.87,38.06 20.66,71.23 34.89,100.01 41.19,-16.14 74.8,-45.66 91.22,-85.29zm-543.59 -100.01c80.3,-37.79 120.58,-119.36 138.89,-188 2.67,-28.32 7.03,-58.42 13.31,-90.33 0,-41.74 -83.7,-103.32 -155.65,-65.99 -2.69,3.17 -6.43,5.49 -11.31,6.76 -14.99,10.24 -29.21,25.25 -41.76,46.16 -51.45,85.7 -13.06,221.82 56.52,291.4zm918.72 -62.52c-33.1,207.58 -33.9,276.77 -174.82,415.15 0.17,0 0.34,0 0.52,0 240.6,-9.48 235.62,-154.2 281.29,-299.43 -29.47,-42.52 -61.93,-84.05 -106.99,-115.72zm106.99 115.72c-45.66,145.17 -40.69,289.83 -281.01,299.41 165.84,-2.98 342.42,-92.58 407.71,-143.88 -52.59,-39.05 -86.94,-98.17 -126.7,-155.53zm-281.81 299.43c140.92,-138.38 141.72,-207.57 174.82,-415.15 -34.52,-24.23 -76.43,-42.69 -130.08,-51.36 -24.29,262.9 12.84,305.63 -241.66,412.79 57.31,40.21 126.12,54.88 196.92,53.72zm-595.02 -589.4c94.49,189.88 149.42,324.09 302.04,243.06m-30.52 90.92c-0.74,-31.59 -11.62,-73.57 20.72,-85.95 31.64,-12.12 -41.53,15.27 -20.72,85.95zm31.97 88.09c-14.23,-28.78 -26.02,-61.95 -34.89,-100.01 8.87,38.06 20.66,71.23 34.89,100.01zm-313.48 -373.3c-31.74,337.97 180.43,425.44 313.48,373.3 41.19,-16.14 74.8,-45.66 91.22,-85.29 12.47,-70.46 0.77,-110.36 -28.26,-117.99 -18.66,5.45 -47.1,15.24 -64.41,24.27 -3.32,1.77 -6.59,3.43 -9.82,4.98 -94.44,45.66 -150.56,5.57 -203.68,-79.16 -16.84,-21.63 -30.38,-46.35 -40.89,-73.34 -15.14,-29.45 -30.76,-61.61 -47.65,-95.54 -2.12,14.81 -5.34,31.38 -9.99,48.77zm366 174.56c29.04,7.63 51.17,42.99 38.7,113.45 -16.42,39.63 -50.03,69.15 -91.22,85.29 24.92,50.47 57.33,87.44 94.61,113.61 254.5,-107.16 217.37,-149.89 241.66,-412.79 -30.33,-4.91 -64.43,-6.67 -103.07,-4.6 -60.16,43.54 -122.91,80.45 -180.68,105.04zm413.83 -49.08c-33.1,207.58 -33.9,276.77 -174.82,415.15 0.17,0 0.34,0 0.52,0 0.09,-0.02 0.18,-0.02 0.28,-0.02 240.32,-9.58 235.35,-154.24 281.01,-299.41 -29.47,-42.52 -61.93,-84.05 -106.99,-115.72zm-918.72 62.52c80.3,-37.79 120.58,-119.36 138.89,-188 2.67,-28.33 7.03,-58.42 13.31,-90.33 0,-41.74 -83.7,-103.32 -155.65,-65.99 -1.94,2.27 -4.39,4.1 -7.42,5.43 -5.82,3.93 -11.24,7.05 -16.99,11.72 -10.18,9.28 -19.83,21.06 -28.66,35.77 -51.45,85.7 -13.06,221.82 56.52,291.4zm788.64 -113.88c-24.29,262.9 12.84,305.63 -241.66,412.79 57.31,40.21 126.12,54.88 196.92,53.72 140.92,-138.38 141.72,-207.57 174.82,-415.15 -34.52,-24.23 -76.43,-42.69 -130.08,-51.36zm237.07 167.08c-45.66,145.17 -40.69,289.83 -281.01,299.41 165.84,-2.98 342.42,-92.58 407.71,-143.88 -52.59,-39.05 -86.94,-98.17 -126.7,-155.53zm0 0c-45.66,145.17 -40.69,289.83 -281.01,299.41 240.32,-9.58 235.35,-154.24 281.01,-299.41zm-1025.71 -53.2c-69.58,-69.58 -107.97,-205.7 -56.52,-291.4 74.64,-124.38 208.72,-39.75 208.72,13.07 0,59.25 -28.99,220.34 -152.2,278.33zm152.2 -278.33c-104.36,530.56 317.46,556.64 391.39,378.34 28.99,-163.8 -129.01,-137.94 -126.11,-14.72 104.37,447.93 613.18,219.12 734.93,123.44 -140.6,-104.37 -150.74,-352.24 -482.7,-326.16m-386.3 77.76c-49.66,-150.31 458.67,-679.64 654.43,-510.49 195.75,169.15 -573.75,754.66 -654.43,510.49zm13.01 25.47c-260.45,-163.73 -80.02,-799.5 123.44,-808.28 203.45,-8.78 94.26,945.14 -123.44,808.28zm492.22 -99.68c-24.29,262.9 12.84,305.63 -241.66,412.79m371.74 -361.43c-33.1,207.58 -33.9,276.77 -174.82,415.16 243.98,-9.39 235.96,-157.55 283.45,-304.59m-1227.4 -495.99c-5.29,-64.6 13.04,-78.28 13.04,-78.28 84.85,-47.89 240.38,170.75 172.25,188.66 -64.54,-2.83 -255.16,-99.3 -246.17,-19.06l7.44 66.44m673.35 -532.3c-203.46,8.78 -383.89,644.55 -123.49,808.31 -5.35,-7.21 -9.72,-15.68 -12.96,-25.5 -24.99,-75.65 91.34,-247.28 238.03,-377.58 19.98,-205.59 -7.07,-409.31 -101.58,-405.23zm517.98 272.32c-97.24,-84.03 -271.61,4.31 -416.4,132.91 -23.01,236.92 -108.46,476.32 -225.07,403.08 27.49,37 81.42,40.87 147.3,22.54 17.56,-19.01 41.05,-27.1 61.22,-21.81 57.77,-24.59 120.52,-61.5 180.68,-105.04 190.73,-138.04 355.35,-342.6 252.27,-431.68zm-641.42 535.96c116.56,73.29 202.01,-166.13 225.02,-403.05 -146.69,130.3 -263.02,301.93 -238.03,377.58 3.24,9.82 7.61,18.29 13.01,25.47zm389.15 -104.28c-60.16,43.54 -122.91,80.45 -180.68,105.04 29.04,7.63 51.17,42.99 38.7,113.45 -16.42,39.63 -50.03,69.15 -91.22,85.29 24.92,50.47 57.33,87.44 94.61,113.61 254.5,-107.16 217.37,-149.89 241.66,-412.79 -30.33,-4.91 -64.43,-6.67 -103.07,-4.6zm-141.98 218.49c12.47,-70.46 -9.66,-105.82 -38.7,-113.45 -21.2,9.03 -41.72,16.4 -61.22,21.81 -15.93,17.25 -26.97,43.51 -26.19,76.92 8.87,38.06 20.66,71.23 34.89,100.01 41.19,-16.14 74.8,-45.66 91.22,-85.29zm-543.59 -100.01c80.3,-37.79 120.58,-119.36 138.89,-188 2.67,-28.32 7.03,-58.42 13.31,-90.33 0,-41.74 -83.7,-103.32 -155.65,-65.99 -2.69,3.17 -6.43,5.49 -11.31,6.76 -14.99,10.24 -29.21,25.25 -41.76,46.16 -51.45,85.7 -13.06,221.82 56.52,291.4zm918.72 -62.52c-33.1,207.58 -33.9,276.77 -174.82,415.15 0.17,0 0.34,0 0.52,0 240.6,-9.48 235.62,-154.2 281.29,-299.43 -29.47,-42.52 -61.93,-84.05 -106.99,-115.72zm106.99 115.72c-45.66,145.17 -40.69,289.83 -281.01,299.41 165.84,-2.98 342.42,-92.58 407.71,-143.88 -52.59,-39.05 -86.94,-98.17 -126.7,-155.53zm-281.81 299.43c140.92,-138.38 141.72,-207.57 174.82,-415.15 -34.52,-24.23 -76.43,-42.69 -130.08,-51.36 -24.29,262.9 12.84,305.63 -241.66,412.79 57.31,40.21 126.12,54.88 196.92,53.72zm-595.02 -589.4c94.49,189.88 149.42,324.09 302.04,243.06m-30.52 90.92c-0.74,-31.59 -11.62,-73.57 20.72,-85.95 31.64,-12.12 -41.53,15.27 -20.72,85.95zm31.97 88.09c-14.23,-28.78 -26.02,-61.95 -34.89,-100.01 8.87,38.06 20.66,71.23 34.89,100.01zm-313.48 -373.3c-31.74,337.97 180.43,425.44 313.48,373.3 41.19,-16.14 74.8,-45.66 91.22,-85.29 12.47,-70.46 0.77,-110.36 -28.26,-117.99 -18.66,5.45 -47.1,15.24 -64.41,24.27 -3.32,1.77 -6.59,3.43 -9.82,4.98 -94.44,45.66 -150.56,5.57 -203.68,-79.16 -16.84,-21.63 -30.38,-46.35 -40.89,-73.34 -15.14,-29.45 -30.76,-61.61 -47.65,-95.54 -2.12,14.81 -5.34,31.38 -9.99,48.77zm366 174.56c29.04,7.63 51.17,42.99 38.7,113.45 -16.42,39.63 -50.03,69.15 -91.22,85.29 24.92,50.47 57.33,87.44 94.61,113.61 254.5,-107.16 217.37,-149.89 241.66,-412.79 -30.33,-4.91 -64.43,-6.67 -103.07,-4.6 -60.16,43.54 -122.91,80.45 -180.68,105.04zm413.83 -49.08c-33.1,207.58 -33.9,276.77 -174.82,415.15 0.17,0 0.34,0 0.52,0 0.09,-0.02 0.18,-0.02 0.28,-0.02 240.32,-9.58 235.35,-154.24 281.01,-299.41 -29.47,-42.52 -61.93,-84.05 -106.99,-115.72zm-918.72 62.52c80.3,-37.79 120.58,-119.36 138.89,-188 2.67,-28.33 7.03,-58.42 13.31,-90.33 0,-41.74 -83.7,-103.32 -155.65,-65.99 -1.94,2.27 -4.39,4.1 -7.42,5.43 -5.82,3.93 -11.24,7.05 -16.99,11.72 -10.18,9.28 -19.83,21.06 -28.66,35.77 -51.45,85.7 -13.06,221.82 56.52,291.4zm788.64 -113.88c-24.29,262.9 12.84,305.63 -241.66,412.79 57.31,40.21 126.12,54.88 196.92,53.72 140.92,-138.38 141.72,-207.57 174.82,-415.15 -34.52,-24.23 -76.43,-42.69 -130.08,-51.36zm237.07 167.08c-45.66,145.17 -40.69,289.83 -281.01,299.41 165.84,-2.98 342.42,-92.58 407.71,-143.88 -52.59,-39.05 -86.94,-98.17 -126.7,-155.53zm0 0c-45.66,145.17 -40.69,289.83 -281.01,299.41 240.32,-9.58 235.35,-154.24 281.01,-299.41zm-506.57 -468.4c0.76,-0.69 1.53,-1.36 2.3,-2.05 -0.77,0.69 -1.54,1.36 -2.3,2.05zm-99.28 -407.28c-167.04,7.21 -318.54,437 -223.33,681.25 13.82,26.92 27.26,51.6 40.89,73.34 16.41,21.08 35.99,39.23 58.95,53.72 -5.35,-7.21 -9.72,-15.68 -12.96,-25.5 -7.26,-21.98 -2.59,-52.08 11.31,-86.94 33.58,-89.02 126.02,-200.74 224.42,-288.59 0.77,-0.69 1.53,-1.36 2.3,-2.05 19.98,-205.59 -7.07,-409.31 -101.58,-405.23zm101.58 405.23c-23.01,236.92 -108.46,476.32 -225.07,403.08 27.49,37 81.42,40.87 147.3,22.54 16.86,-18.25 39.17,-26.42 58.78,-22.39 4.59,-1.48 8.95,-2.81 12.88,-3.96 54.84,-24.49 113.69,-59.57 170.24,-100.5 190.73,-138.04 355.35,-342.6 252.27,-431.68 -97.24,-84.03 -271.61,4.31 -416.4,132.91zm0 0c-0.77,0.69 -1.54,1.36 -2.3,2.05 0.76,-0.69 1.53,-1.36 2.3,-2.05zm-225.07 403.08c116.61,73.24 202.06,-166.16 225.07,-403.08 -0.77,0.69 -1.54,1.36 -2.3,2.05 -103.07,92.06 -190.8,204.25 -224.42,288.59 -17.14,45.45 -18.92,84.99 1.65,112.44z"/>
  <path class="fil0 str1" d="M3124.9 6504.62c1741.72,928.83 2133.69,-2091.89 4937.37,287.43 697.27,591.74 2253.59,244.79 2845.05,-211.5"/>
 </g>
</svg>
