<?xml version="1.0" encoding="UTF-8"?>
<!DOCTYPE svg PUBLIC "-//W3C//DTD SVG 1.1//EN" "http://www.w3.org/Graphics/SVG/1.1/DTD/svg11.dtd">
<!-- Creator: CorelDRAW (Evaluation Version) -->
<svg xmlns="http://www.w3.org/2000/svg" xml:space="preserve" width="125mm" height="125mm" version="1.1" style="shape-rendering:geometricPrecision; text-rendering:geometricPrecision; image-rendering:optimizeQuality; fill-rule:evenodd; clip-rule:evenodd"
viewBox="0 0 12500 12500"
 xmlns:xlink="http://www.w3.org/1999/xlink"
 xmlns:xodm="http://www.corel.com/coreldraw/odm/2003">
 <defs>
  <style type="text/css">
   <![CDATA[
    .str1 {stroke:#FEFEFE;stroke-width:20;stroke-miterlimit:22.9256}
    .str0 {stroke:#373435;stroke-width:20;stroke-miterlimit:22.9256}
    .str3 {stroke:#373435;stroke-width:20;stroke-miterlimit:22.9256;stroke-dasharray:200.000000 60.000000}
    .str2 {stroke:#373435;stroke-width:20;stroke-miterlimit:22.9256;stroke-dasharray:200.000000 100.000000}
    .fil2 {fill:none}
    .fil3 {fill:#FEFEFE}
    .fil4 {fill:#FEFEFE}
    .fil8 {fill:#FEFEFE}
    .fil1 {fill:#FFF212}
    .fil0 {fill:#84716B}
    .fil6 {fill:#6B809B}
    .fil7 {fill:#3E3423}
    .fil5 {fill:#E9D758}
   ]]>
  </style>
 </defs>
 <g id="Layer_x0020_1">
  <metadata id="CorelCorpID_0Corel-Layer"/>
  <path class="fil0 str0" d="M4789.61 4729.99c1178.83,-274.57 1468.32,23.87 1441.46,277.55 -18.85,178.08 -173.08,474.52 -957.98,322.32 -280.53,-98.49 -193.99,429.76 44.76,322.32 0,0 572.96,-154.47 429.76,367.07 -93.95,342.15 -265.62,134.31 -483.47,107.44 -217.85,-26.86 -256.67,402.9 -8.97,322.32 286.51,41.79 789.79,-155.64 859.51,125.35 98.49,396.92 -196.98,865.47 -1423.56,411.84 -361.11,-680.44 -301.42,-1504.14 98.49,-2256.21z"/>
  <path class="fil1 str0" d="M3653.54 4729.99c1178.83,-274.57 1468.32,23.87 1441.46,277.55 -18.85,178.08 -173.08,474.52 -957.98,322.32 -280.53,-98.49 -193.99,429.76 44.76,322.32 0,0 572.96,-154.47 429.75,367.07 -93.94,342.15 -265.61,134.31 -483.46,107.44 -217.85,-26.86 -256.67,402.9 -8.97,322.32 286.51,41.79 789.79,-155.64 859.51,125.35 98.49,396.92 -196.98,865.47 -1423.56,411.84 -361.11,-680.44 -301.42,-1504.14 98.49,-2256.21z"/>
  <path class="fil1 str0" d="M2092.13 4946.45l10.3 1822.35c4.91,868.7 1764.73,8.74 1647.31,-710.41 -27.79,-170.2 -212.78,-384.38 -658.93,-236.8 216.33,-166.95 735.94,-421.36 525.09,-936.91 -122.48,-299.51 -634.9,-535.37 -1523.77,61.77zm427.05 335.12l27.09 311.41c347.5,-106.06 576.71,-363.59 453.57,-460.35 -138.19,-108.56 -316.7,70.11 -480.66,148.94zm53.72 1154.96l27.09 311.41c347.5,-106.06 576.71,-363.6 453.57,-460.35 -138.19,-108.56 -248.45,32.89 -480.66,148.94z"/>
  <path class="fil1 str0" d="M7442.88 4729.99c407.78,0.07 538.05,689.39 561.92,1128.1 72.56,-407.67 -8.8,-1091.41 420.8,-1092.28 569.95,-1.15 281.79,2275.42 -115.26,2318.87 -207.37,22.69 -574.14,-429.75 -609.96,-689.39 -17.9,235.77 -90.36,764.93 -429.74,660.4 -446.66,-137.57 -295.62,-2325.79 172.24,-2325.7z"/>
  <path class="fil1 str0" d="M9769.97 5732.75c414.83,83.57 111.74,-1207.59 -501.38,-1065.43 -1131.54,262.34 -913.15,2253.66 -188.02,2399.45 763.64,153.52 741.73,-605.83 813.35,-868.45 193.98,-11.94 586.33,-346.19 -97.1,-358.13 -393.93,-35.8 -698.35,214.88 -205.91,304.41 -77.59,337.23 -646.3,301.74 -590.92,-367.08 39.98,-482.82 223.83,-525.25 376.04,-492.43 211.87,158.18 208.91,414.83 393.94,447.66z"/>
  <path class="fil1 str0" d="M6769.26 4687.12c498.13,38.92 750.4,689.74 716.25,1126.21 -38.57,492.63 -141.76,1279.65 -895.32,1294.18 -569.67,10.99 -855.74,-770.77 -819.66,-1231.73 39.88,-509.52 299.01,-1243.34 998.73,-1188.66zm-143.26 848.67c-123.13,9.84 -219.86,171.97 -223.83,295.45 -3.56,110.39 95.83,268.45 205.93,259.64 126.84,-10.15 237.65,-168.29 241.73,-295.46 3.67,-114.18 -109.95,-268.72 -223.83,-259.63z"/>
  <path class="fil2 str0" d="M10372.06 5054.23c-61.94,-61.93 -96.1,-183.09 -50.31,-259.37 66.44,-110.71 185.79,-35.38 185.79,11.63 0,52.74 -25.81,196.13 -135.48,247.74zm135.48 -247.74c-92.9,472.26 282.57,495.47 348.37,336.77 25.81,-145.81 -114.83,-122.79 -112.24,-13.11 92.89,398.71 545.78,195.04 654.16,109.87 -125.15,-92.89 -134.18,-313.53 -429.66,-290.31m-343.84 69.22c-44.21,-133.8 408.26,-604.96 582.5,-454.39 174.25,150.56 -510.69,671.72 -582.5,454.39zm11.57 22.67c-231.82,-145.74 -71.22,-711.64 109.88,-719.46 181.09,-7.81 83.9,841.28 -109.88,719.46zm438.14 -88.73c-21.62,234.01 11.42,272.05 -215.11,367.43m330.89 -321.71c-29.47,184.77 -30.18,246.35 -155.61,369.53 217.17,-8.36 210.03,-140.23 252.3,-271.12m-1092.51 -441.48c-4.71,-57.5 11.61,-69.67 11.61,-69.67 75.51,-42.64 213.95,151.98 153.32,167.92 -57.46,-2.52 -227.13,-88.39 -219.13,-16.96l6.63 59.13m599.35 -473.8c-181.1,7.82 -341.7,573.72 -109.92,719.48 -4.76,-6.41 -8.65,-13.96 -11.53,-22.69 -22.25,-67.34 81.3,-220.11 211.87,-336.09 17.78,-183 -6.29,-364.33 -90.42,-360.7zm461.05 242.4c-86.55,-74.8 -241.75,3.83 -370.63,118.3 -20.49,210.88 -96.54,423.98 -200.34,358.78 24.47,32.94 72.48,36.38 131.11,20.06 15.64,-16.91 36.55,-24.12 54.5,-19.41 51.42,-21.88 107.28,-54.74 160.82,-93.49 169.78,-122.87 316.3,-304.96 224.54,-384.24zm-570.93 477.06c103.76,65.23 179.81,-147.88 200.3,-358.76 -130.57,115.98 -234.12,268.75 -211.87,336.09 2.88,8.73 6.77,16.28 11.57,22.67zm346.39 -92.82c-53.54,38.75 -109.4,71.61 -160.82,93.49 25.84,6.79 45.54,38.27 34.44,100.99 -14.62,35.26 -44.53,61.54 -81.19,75.91 22.18,44.92 51.03,77.83 84.21,101.13 226.53,-95.38 193.49,-133.42 215.11,-367.43 -27.01,-4.37 -57.35,-5.94 -91.75,-4.09zm-126.38 194.48c11.1,-62.72 -8.6,-94.2 -34.44,-100.99 -18.88,8.04 -37.14,14.6 -54.5,19.41 -14.18,15.36 -24,38.73 -23.3,68.47 7.89,33.88 18.39,63.41 31.05,89.02 36.66,-14.37 66.57,-40.65 81.19,-75.91zm-483.85 -89.03c71.47,-33.63 107.33,-106.24 123.63,-167.34 2.37,-25.2 6.26,-52 11.85,-80.4 0,-37.15 -74.51,-91.97 -138.55,-58.74 -2.4,2.83 -5.72,4.89 -10.06,6.02 -13.35,9.12 -26.01,22.47 -37.18,41.09 -45.79,76.28 -11.63,197.44 50.31,259.37zm817.76 -55.64c-29.47,184.77 -30.18,246.35 -155.61,369.52 0.15,0 0.3,0 0.47,0 214.15,-8.44 209.72,-137.25 250.37,-266.53 -26.23,-37.84 -55.12,-74.8 -95.23,-102.99zm95.23 102.99c-40.64,129.23 -36.22,257.99 -250.12,266.52 147.61,-2.66 304.79,-82.41 362.9,-128.08 -46.82,-34.75 -77.39,-87.38 -112.78,-138.44zm-250.84 266.53c125.43,-123.17 126.14,-184.75 155.61,-369.52 -30.73,-21.57 -68.03,-38 -115.78,-45.72 -21.62,234.01 11.42,272.05 -215.11,367.43 51.01,35.79 112.26,48.85 175.28,47.81zm-529.63 -524.63c84.11,169.02 133,288.48 268.85,216.36"/>
  <path class="fil1 str0" d="M10746.26 5140.76c-0.66,-28.11 -10.35,-65.48 18.44,-76.5 28.17,-10.79 -36.96,13.59 -18.44,76.5zm28.46 78.41c-12.66,-25.61 -23.16,-55.14 -31.05,-89.02 7.89,33.88 18.39,63.41 31.05,89.02zm-279.03 -332.28c-28.25,300.84 160.6,378.69 279.03,332.28 36.66,-14.37 66.57,-40.65 81.19,-75.91 11.1,-62.72 0.69,-98.24 -25.15,-105.03 -16.61,4.85 -41.93,13.57 -57.33,21.61 -2.96,1.57 -5.87,3.04 -8.74,4.43 -84.07,40.64 -134.02,4.95 -181.3,-70.46 -14.99,-19.25 -27.04,-41.26 -36.4,-65.28 -13.47,-26.22 -27.38,-54.85 -42.41,-85.05 -1.89,13.19 -4.76,27.93 -8.89,43.41z"/>
  <path class="fil1 str0" d="M10821.47 5042.27c25.84,6.79 45.54,38.27 34.44,100.99 -14.62,35.26 -44.53,61.54 -81.19,75.91 22.18,44.92 51.03,77.83 84.21,101.13 226.53,-95.38 193.49,-133.42 215.11,-367.43 -27.01,-4.37 -57.35,-5.94 -91.75,-4.09 -53.54,38.75 -109.4,71.61 -160.82,93.49z"/>
  <path class="fil1 str0" d="M11189.82 4998.59c-29.47,184.77 -30.18,246.35 -155.61,369.52 0.15,0 0.3,0 0.47,0 0.07,-0.01 0.16,-0.01 0.25,-0.01 213.9,-8.53 209.48,-137.29 250.12,-266.52 -26.23,-37.84 -55.12,-74.8 -95.23,-102.99z"/>
  <path class="fil1 str0" d="M10372.06 5054.23c71.47,-33.63 107.33,-106.24 123.63,-167.34 2.37,-25.22 6.26,-52 11.85,-80.4 0,-37.15 -74.51,-91.97 -138.55,-58.74 -1.72,2.03 -3.91,3.65 -6.61,4.84 -5.18,3.49 -10,6.28 -15.11,10.43 -9.07,8.25 -17.66,18.74 -25.52,31.84 -45.79,76.28 -11.63,197.44 50.31,259.37z"/>
  <path class="fil0 str0" d="M11074.04 4952.87c-21.62,234.01 11.42,272.05 -215.11,367.43 51.01,35.79 112.26,48.85 175.28,47.81 125.43,-123.17 126.14,-184.75 155.61,-369.52 -30.73,-21.57 -68.03,-38 -115.78,-45.72z"/>
  <path class="fil0 str0" d="M11285.05 5101.58c-40.64,129.23 -36.22,257.99 -250.12,266.52 147.61,-2.66 304.79,-82.41 362.9,-128.08 -46.82,-34.75 -77.39,-87.38 -112.78,-138.44zm0 0c-40.64,129.23 -36.22,257.99 -250.12,266.52 213.9,-8.53 209.48,-137.29 250.12,-266.52z"/>
  <g id="_1680233892240">
   <path class="fil3 str1" d="M5685.77 5517.37c75.89,28.98 140.33,78.66 182.22,152.67 66.92,118.22 54.67,261.56 20.02,387.76 -23.18,84.44 -58.4,162.41 -110.69,217.93 204.21,-7.88 421.48,33.08 478.67,263.57 69.02,278.14 -25.93,554.38 -289.82,689.53 -378.81,194.01 -954.62,31.12 -1325.55,-106.07l-52.08 -19.26 -26.03 -49.05c-193.14,-363.92 -274.02,-766.42 -252.94,-1176.96 21.87,-425.8 151.96,-840.64 351.48,-1215.86l31.08 -58.43 64.45 -15.01c360.54,-83.98 889.92,-176.11 1251.86,-55.67 221.25,73.62 393.65,242.57 367.42,490.35 -18.24,172.29 -114.37,312.71 -265.73,396.92 -123.64,68.79 -272.81,95 -424.36,97.58zm-318.74 -23.57c-41.96,-6.29 -82.7,-13.45 -121.66,-21l-0.52 -0.1c2.86,16.77 8.97,34.79 16.46,45.26l7.33 -3.3 11.15 -3.02c27.27,-7.38 56.73,-13.4 87.24,-17.84zm12.7 815.52c-44.3,-16.67 -88.17,-32.47 -132.9,-38.06 -6.31,5.92 -11.45,18.88 -14.29,32l9.96 -3.24 33.68 4.91c32.46,4.74 67.97,5.54 103.55,4.39z"/>
  </g>
  <path class="fil0 str0" d="M4789.61 4729.99c1178.83,-274.57 1468.32,23.87 1441.46,277.55 -18.85,178.08 -173.08,474.52 -957.98,322.32 -280.53,-98.49 -193.99,429.76 44.76,322.32 0,0 572.96,-154.47 429.76,367.07 -93.95,342.15 -265.62,134.31 -483.47,107.44 -217.85,-26.86 -256.67,402.9 -8.97,322.32 286.51,41.79 789.79,-155.64 859.51,125.35 98.49,396.92 -196.98,865.47 -1423.56,411.84 -361.11,-680.44 -301.42,-1504.14 98.49,-2256.21z"/>
  <g id="_1680233893488">
   <path class="fil3 str1" d="M4549.69 5517.37c75.89,28.98 140.33,78.66 182.22,152.67 66.92,118.22 54.67,261.56 20.02,387.76 -23.18,84.44 -58.4,162.41 -110.69,217.93 204.21,-7.88 421.49,33.07 478.68,263.57 69.02,278.14 -25.93,554.38 -289.82,689.53 -378.81,194.01 -954.62,31.12 -1325.55,-106.07l-52.08 -19.26 -26.03 -49.05c-193.14,-363.92 -274.02,-766.42 -252.94,-1176.96 21.87,-425.8 151.96,-840.64 351.48,-1215.86l31.08 -58.43 64.45 -15.01c360.54,-83.98 889.92,-176.11 1251.86,-55.67 221.25,73.62 393.65,242.57 367.42,490.35 -18.24,172.29 -114.37,312.71 -265.73,396.92 -123.65,68.79 -272.81,95 -424.37,97.58zm-318.73 -23.57c-41.96,-6.29 -82.7,-13.45 -121.66,-21l-0.52 -0.1c2.86,16.77 8.97,34.79 16.46,45.26l7.33 -3.3 11.15 -3.02c27.27,-7.38 56.73,-13.4 87.24,-17.84zm12.7 815.52c-44.3,-16.67 -88.17,-32.47 -132.9,-38.06 -6.31,5.92 -11.45,18.88 -14.29,32l9.96 -3.24 33.68 4.91c32.46,4.74 67.96,5.54 103.55,4.39z"/>
  </g>
  <path class="fil1 str0" d="M3653.54 4729.99c1178.83,-274.57 1468.32,23.87 1441.46,277.55 -18.85,178.08 -173.08,474.52 -957.98,322.32 -280.53,-98.49 -193.99,429.76 44.76,322.32 0,0 572.96,-154.47 429.75,367.07 -93.94,342.15 -265.61,134.31 -483.46,107.44 -217.85,-26.86 -256.67,402.9 -8.97,322.32 286.51,41.79 789.79,-155.64 859.51,125.35 98.49,396.92 -196.98,865.47 -1423.56,411.84 -361.11,-680.44 -301.42,-1504.14 98.49,-2256.21z"/>
  <g id="_1680233891424">
   <path class="fil3 str1" d="M3552.05 5653.45c32.06,9.88 63.4,22.73 93.74,38.94 130.83,69.91 223.7,195.76 247.67,342.53 79.62,487.67 -465.05,924.08 -860.55,1106.37 -200.84,92.57 -458.81,168.41 -680.99,127.31 -258.58,-47.82 -393.64,-239.79 -395.11,-498.98l-10.74 -1900.48 64.86 -43.57c321.33,-215.87 743.88,-425.45 1142.88,-391.34 253.5,21.67 496.99,151.1 596.87,395.33 112.56,275.21 65.14,530.46 -127.65,750.31 -22.5,25.66 -46.26,50.12 -70.98,73.58zm-879.63 -290.66l1.76 20.34c39.74,-21.28 77.67,-45.52 112.24,-72.52 11.5,-8.98 31.21,-25.82 50.31,-44.74 -1.05,0.52 -1.97,0.97 -2.74,1.36 -55.87,27.76 -107.9,62.8 -161.57,95.56zm53.8 1155.88l1.68 19.42c39.74,-21.28 77.67,-45.53 112.23,-72.52 11.76,-9.18 32.1,-26.58 51.59,-46.02 -10.79,5.97 -20.03,11.43 -24.82,14.28 -47.76,28.34 -93.54,57.31 -140.68,84.84z"/>
  </g>
  <path class="fil1 str0" d="M2092.13 4946.45l10.3 1822.35c4.91,868.7 1764.73,8.74 1647.31,-710.41 -27.79,-170.2 -212.78,-384.38 -658.93,-236.8 216.33,-166.95 735.94,-421.36 525.09,-936.91 -122.48,-299.51 -634.9,-535.37 -1523.77,61.77zm427.05 335.12l27.09 311.41c347.5,-106.06 576.71,-363.59 453.57,-460.35 -138.19,-108.56 -316.7,70.11 -480.66,148.94zm53.72 1154.96l27.09 311.41c347.5,-106.06 576.71,-363.6 453.57,-460.35 -138.19,-108.56 -248.45,32.89 -480.66,148.94z"/>
  <g id="_1680233893776">
   <path class="fil3 str1" d="M10697.79 6204.17c-15.5,15.06 -34.73,25.5 -55.41,32.11 133.99,44.74 235.47,128.69 254.71,318.73 14.66,144.71 -39.41,293.22 -128.25,406.39 -86.38,110.01 -215.33,197.72 -359.15,200.21 -229.37,3.96 -505.01,-43.64 -673.96,-212.92 -132.34,-132.6 -167.51,-324.03 -42.73,-474.11 51.27,-61.67 107.18,-104.84 167.67,-123.41 -23.8,-31.68 -41.55,-65.43 -48.02,-100.41 -60.68,-328.14 -31.87,-543.33 319.86,-637.94 162.33,-43.66 385.4,6.3 525.25,97.2 200.41,130.27 219.05,331.03 40.03,494.15zm-303.93 -18.12c-25.5,-14.29 -49.75,-29.88 -72,-45.25 -5.49,6.36 -11.01,17.22 -9.31,22.45 5.38,9.89 41.97,17.27 51.22,18.57 10.04,1.42 20.07,2.82 30.09,4.23z"/>
  </g>
  <path class="fil1 str0" d="M10631.87 6134.9c307.39,-277.55 -219.11,-498.46 -474.53,-429.76 -255.41,68.7 -313.87,186.59 -250.68,528.24 29.92,161.85 579.14,410.68 349.17,376.03 -163.11,-24.57 -281.37,-323.82 -489.32,-73.71 -169.56,203.95 54.08,540.49 641.53,530.32 212.48,-3.67 417.81,-265.62 393.94,-501.38 -23.87,-235.75 -204.74,-253.39 -451.54,-288.15 -246.81,-34.75 -97.77,-301.19 18.29,-219.55 202.54,142.47 263.14,77.96 263.14,77.96z"/>
  <g id="_1680233891760">
   <path class="fil3 str1" d="M9602.92 5749.23c-41.12,-40.23 -72.81,-91.73 -103.44,-146.9 -47.35,-85.29 -88.74,-165.07 -164.05,-227.57 -45.28,-6.85 -87.54,-2.01 -123.47,32.31 -82.51,78.82 -107.92,272.35 -116.7,378.34 -9.06,109.47 -2.62,235.96 48.04,335.79 28.53,56.23 72.82,105.7 133.64,126.82 67.02,23.26 132.16,6.06 175.22,-38.61 -61.05,-19.33 -120.56,-47.2 -160.76,-88.53 -69.79,-71.76 -66.86,-167.79 -0.3,-240.19 70.74,-76.94 192.3,-116.24 311.82,-131.46zm372.56 7.52c73.21,10.01 145.74,28.01 200.68,60.41 88.76,52.35 127.3,143.15 86.18,239.59 -43.02,100.89 -171.92,190.6 -289.07,223.82 -3.36,17.66 -6.34,35.4 -9.29,52.78 -8.55,50.29 -16.57,100.63 -26.03,150.77 -22.31,118.22 -52.39,237.62 -105.22,346.28 -154.03,316.81 -436.23,397.4 -771,330.09 -235.44,-47.33 -400.62,-245.38 -502.47,-450.78 -119.61,-241.23 -174.67,-530.24 -176.53,-798.29 -4.03,-583.12 244.6,-1193.56 864.27,-1337.23 376.35,-87.26 640.35,256.97 748.23,572.99 46.55,136.34 78.77,308.92 51.55,452.2 -11.78,61.97 -35.89,116.59 -71.3,157.37z"/>
  </g>
  <path class="fil1 str0" d="M9769.97 5732.75c414.83,83.57 111.74,-1207.59 -501.38,-1065.43 -1131.54,262.34 -913.15,2253.66 -188.02,2399.45 763.64,153.52 741.73,-605.83 813.35,-868.45 193.98,-11.94 586.33,-346.19 -97.1,-358.13 -393.93,-35.8 -698.35,214.88 -205.91,304.41 -77.59,337.23 -646.3,301.74 -590.92,-367.08 39.98,-482.82 223.83,-525.25 376.04,-492.43 211.87,158.18 208.91,414.83 393.94,447.66z"/>
  <g id="_1680233888208">
   <path class="fil3 str1" d="M7982.48 5168.46c1.57,-9.02 3.21,-18.02 4.93,-27.01 46.46,-243.08 156.63,-470.67 438,-471.24 231.13,-0.47 330,240.08 371.84,430.84 55.97,255.14 51.34,556.53 28.58,815.83 -23.68,269.68 -148.98,1223.86 -505.09,1262.83 -86.22,9.44 -171.92,-30.35 -241.65,-77.43 -78.14,-52.76 -149.56,-122.8 -210.71,-194.28 -41.29,-48.27 -84.81,-105.9 -124.44,-168.02 -13.4,52.2 -29.77,102.86 -49.8,150.3 -81.62,193.32 -231.7,324.52 -451.64,256.77 -369,-113.65 -345.19,-1017.35 -324.04,-1312.66 19.96,-278.74 121.91,-1200.07 524.44,-1200 282.31,0.05 445.8,247.09 539.58,534.07z"/>
  </g>
  <path class="fil1 str0" d="M7442.88 4729.99c407.78,0.07 538.05,689.39 561.92,1128.1 72.56,-407.67 -8.8,-1091.41 420.8,-1092.28 569.95,-1.15 281.79,2275.42 -115.26,2318.87 -207.37,22.69 -574.14,-429.75 -609.96,-689.39 -17.9,235.77 -90.36,764.93 -429.74,660.4 -446.66,-137.57 -295.62,-2325.79 172.24,-2325.7z"/>
  <g id="_1680233891040">
   <path class="fil3 str1" d="M6776.71 4591.81c287.92,22.5 500.99,219.12 634.23,463.58 121.86,223.6 189.73,511.75 169.88,765.4 -22.51,287.6 -62.51,597.37 -188.65,860.27 -158.93,331.24 -425.49,514.81 -800.14,522.03 -329.29,6.35 -571.88,-213.96 -722.62,-488.45 -133.53,-243.15 -215.83,-569.86 -194.19,-846.32 22.58,-288.52 107.36,-606.43 267.24,-850.79 192.23,-293.79 476.6,-453.67 834.25,-425.72zm-143.1 1039.28c-34.38,2.74 -67.51,38.4 -85.91,64.66 -26.85,38.32 -48.47,91.69 -49.98,138.57 -1.21,37.53 19.98,84.93 41.97,115.03 10.49,14.35 40.21,47.88 60.78,46.23 79.46,-6.35 151.46,-130.06 153.81,-203.23 1.2,-37.42 -23.12,-84.01 -46.4,-112.59 -14.63,-17.96 -48.41,-50.74 -74.27,-48.67z"/>
  </g>
  <path class="fil1 str0" d="M6769.26 4687.12c498.13,38.92 750.4,689.74 716.25,1126.21 -38.57,492.63 -141.76,1279.65 -895.32,1294.18 -569.67,10.99 -855.74,-770.77 -819.66,-1231.73 39.88,-509.52 299.01,-1243.34 998.73,-1188.66zm-143.26 848.67c-123.13,9.84 -219.86,171.97 -223.83,295.45 -3.56,110.39 95.83,268.45 205.93,259.64 126.84,-10.15 237.65,-168.29 241.73,-295.46 3.67,-114.18 -109.95,-268.72 -223.83,-259.63z"/>
  <path class="fil2 str0" d="M10372.06 5054.23c-61.94,-61.93 -96.1,-183.09 -50.31,-259.37 66.44,-110.71 185.79,-35.38 185.79,11.63 0,52.74 -25.81,196.13 -135.48,247.74zm135.48 -247.74c-92.9,472.26 282.57,495.47 348.37,336.77 25.81,-145.81 -114.83,-122.79 -112.24,-13.11 92.89,398.71 545.78,195.04 654.16,109.87 -125.15,-92.89 -134.18,-313.53 -429.66,-290.31m-343.84 69.22c-44.21,-133.8 408.26,-604.96 582.5,-454.39 174.25,150.56 -510.69,671.72 -582.5,454.39zm11.57 22.67c-231.82,-145.74 -71.22,-711.64 109.88,-719.46 181.09,-7.81 83.9,841.28 -109.88,719.46zm438.14 -88.73c-21.62,234.01 11.42,272.05 -215.11,367.43m330.89 -321.71c-29.47,184.77 -30.18,246.35 -155.61,369.53 217.17,-8.36 210.03,-140.23 252.3,-271.12m-1092.51 -441.48c-4.71,-57.5 11.61,-69.67 11.61,-69.67 75.51,-42.64 213.95,151.98 153.32,167.92 -57.46,-2.52 -227.13,-88.39 -219.13,-16.96l6.63 59.13m599.35 -473.8c-181.1,7.82 -341.7,573.72 -109.92,719.48 -4.76,-6.41 -8.65,-13.96 -11.53,-22.69 -22.25,-67.34 81.3,-220.11 211.87,-336.09 17.78,-183 -6.29,-364.33 -90.42,-360.7zm461.05 242.4c-86.55,-74.8 -241.75,3.83 -370.63,118.3 -20.49,210.88 -96.54,423.98 -200.34,358.78 24.47,32.94 72.48,36.38 131.11,20.06 15.64,-16.91 36.55,-24.12 54.5,-19.41 51.42,-21.88 107.28,-54.74 160.82,-93.49 169.78,-122.87 316.3,-304.96 224.54,-384.24zm-570.93 477.06c103.76,65.23 179.81,-147.88 200.3,-358.76 -130.57,115.98 -234.12,268.75 -211.87,336.09 2.88,8.73 6.77,16.28 11.57,22.67zm346.39 -92.82c-53.54,38.75 -109.4,71.61 -160.82,93.49 25.84,6.79 45.54,38.27 34.44,100.99 -14.62,35.26 -44.53,61.54 -81.19,75.91 22.18,44.92 51.03,77.83 84.21,101.13 226.53,-95.38 193.49,-133.42 215.11,-367.43 -27.01,-4.37 -57.35,-5.94 -91.75,-4.09zm-126.38 194.48c11.1,-62.72 -8.6,-94.2 -34.44,-100.99 -18.88,8.04 -37.14,14.6 -54.5,19.41 -14.18,15.36 -24,38.73 -23.3,68.47 7.89,33.88 18.39,63.41 31.05,89.02 36.66,-14.37 66.57,-40.65 81.19,-75.91zm-483.85 -89.03c71.47,-33.63 107.33,-106.24 123.63,-167.34 2.37,-25.2 6.26,-52 11.85,-80.4 0,-37.15 -74.51,-91.97 -138.55,-58.74 -2.4,2.83 -5.72,4.89 -10.06,6.02 -13.35,9.12 -26.01,22.47 -37.18,41.09 -45.79,76.28 -11.63,197.44 50.31,259.37zm817.76 -55.64c-29.47,184.77 -30.18,246.35 -155.61,369.52 0.15,0 0.3,0 0.47,0 214.15,-8.44 209.72,-137.25 250.37,-266.53 -26.23,-37.84 -55.12,-74.8 -95.23,-102.99zm95.23 102.99c-40.64,129.23 -36.22,257.99 -250.12,266.52 147.61,-2.66 304.79,-82.41 362.9,-128.08 -46.82,-34.75 -77.39,-87.38 -112.78,-138.44zm-250.84 266.53c125.43,-123.17 126.14,-184.75 155.61,-369.52 -30.73,-21.57 -68.03,-38 -115.78,-45.72 -21.62,234.01 11.42,272.05 -215.11,367.43 51.01,35.79 112.26,48.85 175.28,47.81zm-529.63 -524.63c84.11,169.02 133,288.48 268.85,216.36"/>
  <path class="fil1 str0" d="M10746.26 5140.76c-0.66,-28.11 -10.35,-65.48 18.44,-76.5 28.17,-10.79 -36.96,13.59 -18.44,76.5zm28.46 78.41c-12.66,-25.61 -23.16,-55.14 -31.05,-89.02 7.89,33.88 18.39,63.41 31.05,89.02zm-279.03 -332.28c-28.25,300.84 160.6,378.69 279.03,332.28 36.66,-14.37 66.57,-40.65 81.19,-75.91 11.1,-62.72 0.69,-98.24 -25.15,-105.03 -16.61,4.85 -41.93,13.57 -57.33,21.61 -2.96,1.57 -5.87,3.04 -8.74,4.43 -84.07,40.64 -134.02,4.95 -181.3,-70.46 -14.99,-19.25 -27.04,-41.26 -36.4,-65.28 -13.47,-26.22 -27.38,-54.85 -42.41,-85.05 -1.89,13.19 -4.76,27.93 -8.89,43.41z"/>
  <path class="fil1 str0" d="M10821.47 5042.27c25.84,6.79 45.54,38.27 34.44,100.99 -14.62,35.26 -44.53,61.54 -81.19,75.91 22.18,44.92 51.03,77.83 84.21,101.13 226.53,-95.38 193.49,-133.42 215.11,-367.43 -27.01,-4.37 -57.35,-5.94 -91.75,-4.09 -53.54,38.75 -109.4,71.61 -160.82,93.49z"/>
  <path class="fil1 str0" d="M11189.82 4998.59c-29.47,184.77 -30.18,246.35 -155.61,369.52 0.15,0 0.3,0 0.47,0 0.07,-0.01 0.16,-0.01 0.25,-0.01 213.9,-8.53 209.48,-137.29 250.12,-266.52 -26.23,-37.84 -55.12,-74.8 -95.23,-102.99z"/>
  <path class="fil1 str0" d="M10372.06 5054.23c71.47,-33.63 107.33,-106.24 123.63,-167.34 2.37,-25.22 6.26,-52 11.85,-80.4 0,-37.15 -74.51,-91.97 -138.55,-58.74 -1.72,2.03 -3.91,3.65 -6.61,4.84 -5.18,3.49 -10,6.28 -15.11,10.43 -9.07,8.25 -17.66,18.74 -25.52,31.84 -45.79,76.28 -11.63,197.44 50.31,259.37z"/>
  <path class="fil0 str0" d="M11074.04 4952.87c-21.62,234.01 11.42,272.05 -215.11,367.43 51.01,35.79 112.26,48.85 175.28,47.81 125.43,-123.17 126.14,-184.75 155.61,-369.52 -30.73,-21.57 -68.03,-38 -115.78,-45.72z"/>
  <path class="fil0 str0" d="M11285.05 5101.58c-40.64,129.23 -36.22,257.99 -250.12,266.52 147.61,-2.66 304.79,-82.41 362.9,-128.08 -46.82,-34.75 -77.39,-87.38 -112.78,-138.44zm0 0c-40.64,129.23 -36.22,257.99 -250.12,266.52 213.9,-8.53 209.48,-137.29 250.12,-266.52z"/>
  <path class="fil2 str2" d="M11430.36 5293.49c815.82,263.96 594.88,1626.89 -289.61,1538.34"/>
  <path class="fil0 str0" d="M4789.61 4729.99c1178.83,-274.57 1468.32,23.87 1441.46,277.55 -18.85,178.08 -173.08,474.52 -957.98,322.32 -280.53,-98.49 -193.99,429.76 44.76,322.32 0,0 572.96,-154.47 429.76,367.07 -93.95,342.15 -265.62,134.31 -483.47,107.44 -217.85,-26.86 -256.67,402.9 -8.97,322.32 286.51,41.79 789.79,-155.64 859.51,125.35 98.49,396.92 -196.98,865.47 -1423.56,411.84 -361.11,-680.44 -301.42,-1504.14 98.49,-2256.21z"/>
  <path class="fil1 str0" d="M3653.54 4729.99c1178.83,-274.57 1468.32,23.87 1441.46,277.55 -18.85,178.08 -173.08,474.52 -957.98,322.32 -280.53,-98.49 -193.99,429.76 44.76,322.32 0,0 572.96,-154.47 429.75,367.07 -93.94,342.15 -265.61,134.31 -483.46,107.44 -217.85,-26.86 -256.67,402.9 -8.97,322.32 286.51,41.79 789.79,-155.64 859.51,125.35 98.49,396.92 -196.98,865.47 -1423.56,411.84 -361.11,-680.44 -301.42,-1504.14 98.49,-2256.21z"/>
  <path class="fil1 str0" d="M2092.13 4946.45l10.3 1822.35c4.91,868.7 1764.73,8.74 1647.31,-710.41 -27.79,-170.2 -212.78,-384.38 -658.93,-236.8 216.33,-166.95 735.94,-421.36 525.09,-936.91 -122.48,-299.51 -634.9,-535.37 -1523.77,61.77zm427.05 335.12l27.09 311.41c347.5,-106.06 576.71,-363.59 453.57,-460.35 -138.19,-108.56 -316.7,70.11 -480.66,148.94zm53.72 1154.96l27.09 311.41c347.5,-106.06 576.71,-363.6 453.57,-460.35 -138.19,-108.56 -248.45,32.89 -480.66,148.94z"/>
  <path class="fil1 str0" d="M7442.88 4729.99c407.78,0.07 538.05,689.39 561.92,1128.1 72.56,-407.67 -8.8,-1091.41 420.8,-1092.28 569.95,-1.15 281.79,2275.42 -115.26,2318.87 -207.37,22.69 -574.14,-429.75 -609.96,-689.39 -17.9,235.77 -90.36,764.93 -429.74,660.4 -446.66,-137.57 -295.62,-2325.79 172.24,-2325.7z"/>
  <path class="fil1 str0" d="M9769.97 5732.75c414.83,83.57 111.74,-1207.59 -501.38,-1065.43 -1131.54,262.34 -913.15,2253.66 -188.02,2399.45 763.64,153.52 741.73,-605.83 813.35,-868.45 193.98,-11.94 586.33,-346.19 -97.1,-358.13 -393.93,-35.8 -698.35,214.88 -205.91,304.41 -77.59,337.23 -646.3,301.74 -590.92,-367.08 39.98,-482.82 223.83,-525.25 376.04,-492.43 211.87,158.18 208.91,414.83 393.94,447.66z"/>
  <path class="fil1 str0" d="M6769.26 4687.12c498.13,38.92 750.4,689.74 716.25,1126.21 -38.57,492.63 -141.76,1279.65 -895.32,1294.18 -569.67,10.99 -855.74,-770.77 -819.66,-1231.73 39.88,-509.52 299.01,-1243.34 998.73,-1188.66zm-143.26 848.67c-123.13,9.84 -219.86,171.97 -223.83,295.45 -3.56,110.39 95.83,268.45 205.93,259.64 126.84,-10.15 237.65,-168.29 241.73,-295.46 3.67,-114.18 -109.95,-268.72 -223.83,-259.63z"/>
  <path class="fil2 str0" d="M10372.06 5054.23c-61.94,-61.93 -96.1,-183.09 -50.31,-259.37 66.44,-110.71 185.79,-35.38 185.79,11.63 0,52.74 -25.81,196.13 -135.48,247.74zm135.48 -247.74c-92.9,472.26 282.57,495.47 348.37,336.77 25.81,-145.81 -114.83,-122.79 -112.24,-13.11 92.89,398.71 545.78,195.04 654.16,109.87 -125.15,-92.89 -134.18,-313.53 -429.66,-290.31m-343.84 69.22c-44.21,-133.8 408.26,-604.96 582.5,-454.39 174.25,150.56 -510.69,671.72 -582.5,454.39zm11.57 22.67c-231.82,-145.74 -71.22,-711.64 109.88,-719.46 181.09,-7.81 83.9,841.28 -109.88,719.46zm438.14 -88.73c-21.62,234.01 11.42,272.05 -215.11,367.43m330.89 -321.71c-29.47,184.77 -30.18,246.35 -155.61,369.53 217.17,-8.36 210.03,-140.23 252.3,-271.12m-1092.51 -441.48c-4.71,-57.5 11.61,-69.67 11.61,-69.67 75.51,-42.64 213.95,151.98 153.32,167.92 -57.46,-2.52 -227.13,-88.39 -219.13,-16.96l6.63 59.13m599.35 -473.8c-181.1,7.82 -341.7,573.72 -109.92,719.48 -4.76,-6.41 -8.65,-13.96 -11.53,-22.69 -22.25,-67.34 81.3,-220.11 211.87,-336.09 17.78,-183 -6.29,-364.33 -90.42,-360.7zm461.05 242.4c-86.55,-74.8 -241.75,3.83 -370.63,118.3 -20.49,210.88 -96.54,423.98 -200.34,358.78 24.47,32.94 72.48,36.38 131.11,20.06 15.64,-16.91 36.55,-24.12 54.5,-19.41 51.42,-21.88 107.28,-54.74 160.82,-93.49 169.78,-122.87 316.3,-304.96 224.54,-384.24zm-570.93 477.06c103.76,65.23 179.81,-147.88 200.3,-358.76 -130.57,115.98 -234.12,268.75 -211.87,336.09 2.88,8.73 6.77,16.28 11.57,22.67zm346.39 -92.82c-53.54,38.75 -109.4,71.61 -160.82,93.49 25.84,6.79 45.54,38.27 34.44,100.99 -14.62,35.26 -44.53,61.54 -81.19,75.91 22.18,44.92 51.03,77.83 84.21,101.13 226.53,-95.38 193.49,-133.42 215.11,-367.43 -27.01,-4.37 -57.35,-5.94 -91.75,-4.09zm-126.38 194.48c11.1,-62.72 -8.6,-94.2 -34.44,-100.99 -18.88,8.04 -37.14,14.6 -54.5,19.41 -14.18,15.36 -24,38.73 -23.3,68.47 7.89,33.88 18.39,63.41 31.05,89.02 36.66,-14.37 66.57,-40.65 81.19,-75.91zm-483.85 -89.03c71.47,-33.63 107.33,-106.24 123.63,-167.34 2.37,-25.2 6.26,-52 11.85,-80.4 0,-37.15 -74.51,-91.97 -138.55,-58.74 -2.4,2.83 -5.72,4.89 -10.06,6.02 -13.35,9.12 -26.01,22.47 -37.18,41.09 -45.79,76.28 -11.63,197.44 50.31,259.37zm817.76 -55.64c-29.47,184.77 -30.18,246.35 -155.61,369.52 0.15,0 0.3,0 0.47,0 214.15,-8.44 209.72,-137.25 250.37,-266.53 -26.23,-37.84 -55.12,-74.8 -95.23,-102.99zm95.23 102.99c-40.64,129.23 -36.22,257.99 -250.12,266.52 147.61,-2.66 304.79,-82.41 362.9,-128.08 -46.82,-34.75 -77.39,-87.38 -112.78,-138.44zm-250.84 266.53c125.43,-123.17 126.14,-184.75 155.61,-369.52 -30.73,-21.57 -68.03,-38 -115.78,-45.72 -21.62,234.01 11.42,272.05 -215.11,367.43 51.01,35.79 112.26,48.85 175.28,47.81zm-529.63 -524.63c84.11,169.02 133,288.48 268.85,216.36"/>
  <path class="fil1 str0" d="M10746.26 5140.76c-0.66,-28.11 -10.35,-65.48 18.44,-76.5 28.17,-10.79 -36.96,13.59 -18.44,76.5zm28.46 78.41c-12.66,-25.61 -23.16,-55.14 -31.05,-89.02 7.89,33.88 18.39,63.41 31.05,89.02zm-279.03 -332.28c-28.25,300.84 160.6,378.69 279.03,332.28 36.66,-14.37 66.57,-40.65 81.19,-75.91 11.1,-62.72 0.69,-98.24 -25.15,-105.03 -16.61,4.85 -41.93,13.57 -57.33,21.61 -2.96,1.57 -5.87,3.04 -8.74,4.43 -84.07,40.64 -134.02,4.95 -181.3,-70.46 -14.99,-19.25 -27.04,-41.26 -36.4,-65.28 -13.47,-26.22 -27.38,-54.85 -42.41,-85.05 -1.89,13.19 -4.76,27.93 -8.89,43.41z"/>
  <path class="fil1 str0" d="M10821.47 5042.27c25.84,6.79 45.54,38.27 34.44,100.99 -14.62,35.26 -44.53,61.54 -81.19,75.91 22.18,44.92 51.03,77.83 84.21,101.13 226.53,-95.38 193.49,-133.42 215.11,-367.43 -27.01,-4.37 -57.35,-5.94 -91.75,-4.09 -53.54,38.75 -109.4,71.61 -160.82,93.49z"/>
  <path class="fil1 str0" d="M11189.82 4998.59c-29.47,184.77 -30.18,246.35 -155.61,369.52 0.15,0 0.3,0 0.47,0 0.07,-0.01 0.16,-0.01 0.25,-0.01 213.9,-8.53 209.48,-137.29 250.12,-266.52 -26.23,-37.84 -55.12,-74.8 -95.23,-102.99z"/>
  <path class="fil1 str0" d="M10372.06 5054.23c71.47,-33.63 107.33,-106.24 123.63,-167.34 2.37,-25.22 6.26,-52 11.85,-80.4 0,-37.15 -74.51,-91.97 -138.55,-58.74 -1.72,2.03 -3.91,3.65 -6.61,4.84 -5.18,3.49 -10,6.28 -15.11,10.43 -9.07,8.25 -17.66,18.74 -25.52,31.84 -45.79,76.28 -11.63,197.44 50.31,259.37z"/>
  <path class="fil0 str0" d="M11074.04 4952.87c-21.62,234.01 11.42,272.05 -215.11,367.43 51.01,35.79 112.26,48.85 175.28,47.81 125.43,-123.17 126.14,-184.75 155.61,-369.52 -30.73,-21.57 -68.03,-38 -115.78,-45.72z"/>
  <path class="fil0 str0" d="M11285.05 5101.58c-40.64,129.23 -36.22,257.99 -250.12,266.52 147.61,-2.66 304.79,-82.41 362.9,-128.08 -46.82,-34.75 -77.39,-87.38 -112.78,-138.44zm0 0c-40.64,129.23 -36.22,257.99 -250.12,266.52 213.9,-8.53 209.48,-137.29 250.12,-266.52z"/>
  <path class="fil1 str0" d="M10631.87 6134.9c307.39,-277.55 -219.11,-498.46 -474.53,-429.76 -255.41,68.7 -313.87,186.59 -250.68,528.24 29.92,161.85 579.14,410.68 349.17,376.03 -163.11,-24.57 -281.37,-323.82 -489.32,-73.71 -169.56,203.95 54.08,540.49 641.53,530.32 212.48,-3.67 417.81,-265.62 393.94,-501.38 -23.87,-235.75 -204.74,-253.39 -451.54,-288.15 -246.81,-34.75 -97.77,-301.19 18.29,-219.55 202.54,142.47 263.14,77.96 263.14,77.96z"/>
  <path class="fil1 str0" d="M9769.97 5732.75c414.83,83.57 111.74,-1207.59 -501.38,-1065.43 -1131.54,262.34 -913.15,2253.66 -188.02,2399.45 763.64,153.52 741.73,-605.83 813.35,-868.45 193.98,-11.94 586.33,-346.19 -97.1,-358.13 -393.93,-35.8 -698.35,214.88 -205.91,304.41 -77.59,337.23 -646.3,301.74 -590.92,-367.08 39.98,-482.82 223.83,-525.25 376.04,-492.43 211.87,158.18 208.91,414.83 393.94,447.66z"/>
  <path class="fil1 str0" d="M7442.88 4729.99c407.78,0.07 538.05,689.39 561.92,1128.1 72.56,-407.67 -8.8,-1091.41 420.8,-1092.28 569.95,-1.15 281.79,2275.42 -115.26,2318.87 -207.37,22.69 -574.14,-429.75 -609.96,-689.39 -17.9,235.77 -90.36,764.93 -429.74,660.4 -446.66,-137.57 -295.62,-2325.79 172.24,-2325.7z"/>
  <path class="fil1 str0" d="M6769.26 4687.12c498.13,38.92 750.4,689.74 716.25,1126.21 -38.57,492.63 -141.76,1279.65 -895.32,1294.18 -569.67,10.99 -855.74,-770.77 -819.66,-1231.73 39.88,-509.52 299.01,-1243.34 998.73,-1188.66zm-143.26 848.67c-123.13,9.84 -219.86,171.97 -223.83,295.45 -3.56,110.39 95.83,268.45 205.93,259.64 126.84,-10.15 237.65,-168.29 241.73,-295.46 3.67,-114.18 -109.95,-268.72 -223.83,-259.63z"/>
  <path class="fil2 str0" d="M10372.06 5054.23c-61.94,-61.93 -96.1,-183.09 -50.31,-259.37 66.44,-110.71 185.79,-35.38 185.79,11.63 0,52.74 -25.81,196.13 -135.48,247.74zm135.48 -247.74c-92.9,472.26 282.57,495.47 348.37,336.77 25.81,-145.81 -114.83,-122.79 -112.24,-13.11 92.89,398.71 545.78,195.04 654.16,109.87 -125.15,-92.89 -134.18,-313.53 -429.66,-290.31m-343.84 69.22c-44.21,-133.8 408.26,-604.96 582.5,-454.39 174.25,150.56 -510.69,671.72 -582.5,454.39zm11.57 22.67c-231.82,-145.74 -71.22,-711.64 109.88,-719.46 181.09,-7.81 83.9,841.28 -109.88,719.46zm438.14 -88.73c-21.62,234.01 11.42,272.05 -215.11,367.43m330.89 -321.71c-29.47,184.77 -30.18,246.35 -155.61,369.53 217.17,-8.36 210.03,-140.23 252.3,-271.12m-1092.51 -441.48c-4.71,-57.5 11.61,-69.67 11.61,-69.67 75.51,-42.64 213.95,151.98 153.32,167.92 -57.46,-2.52 -227.13,-88.39 -219.13,-16.96l6.63 59.13m599.35 -473.8c-181.1,7.82 -341.7,573.72 -109.92,719.48 -4.76,-6.41 -8.65,-13.96 -11.53,-22.69 -22.25,-67.34 81.3,-220.11 211.87,-336.09 17.78,-183 -6.29,-364.33 -90.42,-360.7zm461.05 242.4c-86.55,-74.8 -241.75,3.83 -370.63,118.3 -20.49,210.88 -96.54,423.98 -200.34,358.78 24.47,32.94 72.48,36.38 131.11,20.06 15.64,-16.91 36.55,-24.12 54.5,-19.41 51.42,-21.88 107.28,-54.74 160.82,-93.49 169.78,-122.87 316.3,-304.96 224.54,-384.24zm-570.93 477.06c103.76,65.23 179.81,-147.88 200.3,-358.76 -130.57,115.98 -234.12,268.75 -211.87,336.09 2.88,8.73 6.77,16.28 11.57,22.67zm346.39 -92.82c-53.54,38.75 -109.4,71.61 -160.82,93.49 25.84,6.79 45.54,38.27 34.44,100.99 -14.62,35.26 -44.53,61.54 -81.19,75.91 22.18,44.92 51.03,77.83 84.21,101.13 226.53,-95.38 193.49,-133.42 215.11,-367.43 -27.01,-4.37 -57.35,-5.94 -91.75,-4.09zm-126.38 194.48c11.1,-62.72 -8.6,-94.2 -34.44,-100.99 -18.88,8.04 -37.14,14.6 -54.5,19.41 -14.18,15.36 -24,38.73 -23.3,68.47 7.89,33.88 18.39,63.41 31.05,89.02 36.66,-14.37 66.57,-40.65 81.19,-75.91zm-483.85 -89.03c71.47,-33.63 107.33,-106.24 123.63,-167.34 2.37,-25.2 6.26,-52 11.85,-80.4 0,-37.15 -74.51,-91.97 -138.55,-58.74 -2.4,2.83 -5.72,4.89 -10.06,6.02 -13.35,9.12 -26.01,22.47 -37.18,41.09 -45.79,76.28 -11.63,197.44 50.31,259.37zm817.76 -55.64c-29.47,184.77 -30.18,246.35 -155.61,369.52 0.15,0 0.3,0 0.47,0 214.15,-8.44 209.72,-137.25 250.37,-266.53 -26.23,-37.84 -55.12,-74.8 -95.23,-102.99zm95.23 102.99c-40.64,129.23 -36.22,257.99 -250.12,266.52 147.61,-2.66 304.79,-82.41 362.9,-128.08 -46.82,-34.75 -77.39,-87.38 -112.78,-138.44zm-250.84 266.53c125.43,-123.17 126.14,-184.75 155.61,-369.52 -30.73,-21.57 -68.03,-38 -115.78,-45.72 -21.62,234.01 11.42,272.05 -215.11,367.43 51.01,35.79 112.26,48.85 175.28,47.81zm-529.63 -524.63c84.11,169.02 133,288.48 268.85,216.36"/>
  <path class="fil1 str0" d="M10746.26 5140.76c-0.66,-28.11 -10.35,-65.48 18.44,-76.5 28.17,-10.79 -36.96,13.59 -18.44,76.5zm28.46 78.41c-12.66,-25.61 -23.16,-55.14 -31.05,-89.02 7.89,33.88 18.39,63.41 31.05,89.02zm-279.03 -332.28c-28.25,300.84 160.6,378.69 279.03,332.28 36.66,-14.37 66.57,-40.65 81.19,-75.91 11.1,-62.72 0.69,-98.24 -25.15,-105.03 -16.61,4.85 -41.93,13.57 -57.33,21.61 -2.96,1.57 -5.87,3.04 -8.74,4.43 -84.07,40.64 -134.02,4.95 -181.3,-70.46 -14.99,-19.25 -27.04,-41.26 -36.4,-65.28 -13.47,-26.22 -27.38,-54.85 -42.41,-85.05 -1.89,13.19 -4.76,27.93 -8.89,43.41z"/>
  <path class="fil1 str0" d="M10821.47 5042.27c25.84,6.79 45.54,38.27 34.44,100.99 -14.62,35.26 -44.53,61.54 -81.19,75.91 22.18,44.92 51.03,77.83 84.21,101.13 226.53,-95.38 193.49,-133.42 215.11,-367.43 -27.01,-4.37 -57.35,-5.94 -91.75,-4.09 -53.54,38.75 -109.4,71.61 -160.82,93.49z"/>
  <path class="fil1 str0" d="M11189.82 4998.59c-29.47,184.77 -30.18,246.35 -155.61,369.52 0.15,0 0.3,0 0.47,0 0.07,-0.01 0.16,-0.01 0.25,-0.01 213.9,-8.53 209.48,-137.29 250.12,-266.52 -26.23,-37.84 -55.12,-74.8 -95.23,-102.99z"/>
  <path class="fil1 str0" d="M10372.06 5054.23c71.47,-33.63 107.33,-106.24 123.63,-167.34 2.37,-25.22 6.26,-52 11.85,-80.4 0,-37.15 -74.51,-91.97 -138.55,-58.74 -1.72,2.03 -3.91,3.65 -6.61,4.84 -5.18,3.49 -10,6.28 -15.11,10.43 -9.07,8.25 -17.66,18.74 -25.52,31.84 -45.79,76.28 -11.63,197.44 50.31,259.37z"/>
  <path class="fil0 str0" d="M11074.04 4952.87c-21.62,234.01 11.42,272.05 -215.11,367.43 51.01,35.79 112.26,48.85 175.28,47.81 125.43,-123.17 126.14,-184.75 155.61,-369.52 -30.73,-21.57 -68.03,-38 -115.78,-45.72z"/>
  <path class="fil0 str0" d="M11285.05 5101.58c-40.64,129.23 -36.22,257.99 -250.12,266.52 147.61,-2.66 304.79,-82.41 362.9,-128.08 -46.82,-34.75 -77.39,-87.38 -112.78,-138.44zm0 0c-40.64,129.23 -36.22,257.99 -250.12,266.52 213.9,-8.53 209.48,-137.29 250.12,-266.52z"/>
  <path class="fil2 str2" d="M11430.36 5293.49c815.82,263.96 594.88,1626.89 -289.61,1538.34"/>
  <path class="fil0 str0" d="M4789.61 4729.99c1178.83,-274.57 1468.32,23.87 1441.46,277.55 -18.85,178.08 -173.08,474.52 -957.98,322.32 -280.53,-98.49 -193.99,429.76 44.76,322.32 0,0 572.96,-154.47 429.76,367.07 -93.95,342.15 -265.62,134.31 -483.47,107.44 -217.85,-26.86 -256.67,402.9 -8.97,322.32 286.51,41.79 789.79,-155.64 859.51,125.35 98.49,396.92 -196.98,865.47 -1423.56,411.84 -361.11,-680.44 -301.42,-1504.14 98.49,-2256.21z"/>
  <path class="fil1 str0" d="M3653.54 4729.99c1178.83,-274.57 1468.32,23.87 1441.46,277.55 -18.85,178.08 -173.08,474.52 -957.98,322.32 -280.53,-98.49 -193.99,429.76 44.76,322.32 0,0 572.96,-154.47 429.75,367.07 -93.94,342.15 -265.61,134.31 -483.46,107.44 -217.85,-26.86 -256.67,402.9 -8.97,322.32 286.51,41.79 789.79,-155.64 859.51,125.35 98.49,396.92 -196.98,865.47 -1423.56,411.84 -361.11,-680.44 -301.42,-1504.14 98.49,-2256.21z"/>
  <path class="fil1 str0" d="M2092.13 4946.45l10.3 1822.35c4.91,868.7 1764.73,8.74 1647.31,-710.41 -27.79,-170.2 -212.78,-384.38 -658.93,-236.8 216.33,-166.95 735.94,-421.36 525.09,-936.91 -122.48,-299.51 -634.9,-535.37 -1523.77,61.77zm427.05 335.12l27.09 311.41c347.5,-106.06 576.71,-363.59 453.57,-460.35 -138.19,-108.56 -316.7,70.11 -480.66,148.94zm53.72 1154.96l27.09 311.41c347.5,-106.06 576.71,-363.6 453.57,-460.35 -138.19,-108.56 -248.45,32.89 -480.66,148.94z"/>
  <path class="fil4 str0" d="M10834.15 4684.66c0.68,-0.61 1.36,-1.21 2.05,-1.82 -0.69,0.61 -1.37,1.21 -2.05,1.82zm-88.37 -362.52c-148.68,6.42 -283.53,388.97 -198.79,606.39 12.31,23.95 24.27,45.93 36.4,65.28 14.61,18.76 32.04,34.92 52.47,47.81 -4.76,-6.41 -8.65,-13.96 -11.53,-22.69 -6.47,-19.57 -2.31,-46.36 10.06,-77.39 29.89,-79.24 112.17,-178.68 199.76,-256.88 0.69,-0.61 1.36,-1.21 2.05,-1.82 17.78,-183 -6.29,-364.33 -90.42,-360.7z"/>
  <path class="fil4 str0" d="M10836.2 4682.84c-20.49,210.88 -96.54,423.98 -200.34,358.78 24.47,32.94 72.48,36.38 131.11,20.06 15.01,-16.24 34.87,-23.52 52.33,-19.92 4.08,-1.32 7.96,-2.51 11.46,-3.53 48.81,-21.8 101.19,-53.02 151.53,-89.45 169.78,-122.87 316.3,-304.96 224.54,-384.24 -86.55,-74.8 -241.75,3.83 -370.63,118.3z"/>
  <path class="fil4 str0" d="M10836.2 4682.84c-0.69,0.61 -1.37,1.21 -2.05,1.82 0.68,-0.61 1.36,-1.21 2.05,-1.82zm-200.34 358.78c103.8,65.2 179.85,-147.9 200.34,-358.78 -0.69,0.61 -1.37,1.21 -2.05,1.82 -91.74,81.95 -169.83,181.81 -199.76,256.88 -15.25,40.46 -16.84,75.65 1.47,100.08z"/>
  <path class="fil2 str0" d="M1590.7 5690.82c37.07,-74.53 31.21,-194.03 -33.12,-248.9 -93.35,-79.65 -178.09,24.32 -163.87,66.68 15.95,47.51 82.57,168.9 196.99,182.22zm-196.99 -182.22c226.53,397.39 -104.73,531.86 -212.01,408.78 -67.35,-123.56 66.32,-145.35 97.16,-45.76 36.9,387.32 -432.74,340.81 -556.14,296.86 84.66,-121.55 26.06,-323.07 299.29,-391.52m330.73 -41.64c-0.64,-133.92 -550.81,-421.55 -662.26,-233.2 -111.44,188.35 663.3,450.73 662.26,233.2zm-3.57 23.93c164.78,-201.43 -151.08,-662.71 -316.61,-614.97 -165.52,47.73 178.87,783.33 316.61,614.97zm-421.58 52.58c90.26,204.29 71.99,248.56 304.93,265.97m-395.42 -189.76c82.43,157.56 101.7,212.83 251.97,285.87 -198.19,58.15 -231.64,-62.82 -309.32,-167.96m850.78 -728.21c-13.15,-53.23 -31.53,-59.26 -31.53,-59.26 -80.94,-15.57 -146.8,201.65 -87.34,197.67 51,-19.65 177.89,-148.33 192.29,-81.56l11.91 55.28m-683.3 -245.59c165.53,-47.74 481.39,413.54 316.65,614.98 2.36,-7.23 3.57,-15.2 3.53,-23.94 -0.33,-67.4 -139.83,-173.72 -292.55,-238.72 -71.36,-159.5 -104.53,-330.15 -27.63,-352.32zm-342.08 357.84c55.36,-93.57 218.98,-69.67 369.71,-5.52 82.25,183.8 215.22,352.79 289.02,262.66 -12.09,37.07 -54.29,54.69 -112.06,57.73 -19.2,-10.51 -40.22,-10.68 -54.97,-1.01 -52.95,-4.16 -113.21,-16.87 -173.17,-35.59 -190.13,-59.35 -377.22,-179.08 -318.53,-278.27zm658.69 257.13c-73.75,90.15 -206.73,-78.85 -288.98,-262.65 152.72,65 292.22,171.32 292.55,238.72 0.04,8.74 -1.17,16.71 -3.57,23.93zm-340.16 21.14c59.96,18.72 120.22,31.43 173.17,35.59 -21.23,13.94 -29.45,48.25 -0.48,101.4 23.83,27.36 58.73,41.99 96.11,43.84 -6.4,47.18 -22.44,85.56 -45.29,116.58 -232.94,-17.41 -214.67,-61.68 -304.93,-265.97 23,-12.11 49.87,-22.7 81.42,-31.44zm172.69 136.99c-28.97,-53.15 -20.75,-87.46 0.48,-101.4 19.44,1.53 37.88,1.92 54.97,1.01 17.42,9.54 33.35,27.63 41.71,54.63 3.14,32.92 2.61,62.69 -1.05,89.6 -37.38,-1.85 -72.28,-16.48 -96.11,-43.84zm409 -226.56c-74.56,-8.68 -128.83,-63.25 -162,-113.37 -9.76,-21.99 -21.36,-44.95 -34.99,-68.85 -11.24,-33.47 39.31,-105.4 107.06,-94.83 3.01,1.82 6.63,2.67 10.89,2.38 14.78,4.17 30.22,12.38 45.92,25.77 64.33,54.87 70.19,174.37 33.12,248.9zm-753.6 197.22c82.43,157.56 101.7,212.83 251.96,285.86 -0.13,0.04 -0.27,0.09 -0.41,0.14 -195.5,57.17 -230.47,-60.23 -306.19,-164.4 12.18,-42.03 27.03,-84.07 54.64,-121.6zm-54.64 121.6c75.69,104.13 110.66,221.48 305.96,164.46 -133.8,42.26 -299.53,17.95 -365.7,-5.62 31.66,-45.48 43.29,-102.13 59.74,-158.84zm306.6 164.26c-150.26,-73.03 -169.53,-128.3 -251.96,-285.86 21.16,-28.73 49.8,-54.82 90.49,-76.21 90.26,204.29 71.99,248.56 304.93,265.97 -35.13,47.68 -86.36,77.97 -143.46,96.1zm318.5 -632.87c-24.65,177.72 -32.57,300.13 -176.78,276.25"/>
  <path class="fil1 str0" d="M1279.73 5881.97c-7.91,-25.53 -10.48,-62.13 -39.75,-63.35 -28.64,-1.2 37.41,1.07 39.75,63.35zm-1.92 79.25c3.66,-26.91 4.19,-56.68 1.05,-89.6 3.14,32.92 2.61,62.69 -1.05,89.6zm150.89 -383.77c116.45,262.5 -30.15,389.76 -150.89,383.77 -37.38,-1.85 -72.28,-16.48 -96.11,-43.84 -28.97,-53.15 -30.34,-88.3 -9.11,-102.23 16.43,-0.65 41.88,-0.46 58.19,2.13 3.14,0.52 6.21,0.97 9.21,1.35 88.04,11.18 122.25,-36.08 142.03,-118.32 7.69,-21.88 11.88,-45.36 13.06,-69.83 4.2,-27.7 8.07,-57.69 12.48,-89.45 5.69,11.31 12.73,23.72 21.14,36.42z"/>
  <path class="fil1 str0" d="M1182.18 5815.98c-21.23,13.94 -29.45,48.25 -0.48,101.4 23.83,27.36 58.73,41.99 96.11,43.84 -6.4,47.18 -22.44,85.56 -45.29,116.58 -232.94,-17.41 -214.67,-61.68 -304.93,-265.97 23,-12.11 49.87,-22.7 81.42,-31.44 59.96,18.72 120.22,31.43 173.17,35.59z"/>
  <path class="fil1 str0" d="M837.1 5888.04c82.43,157.56 101.7,212.83 251.96,285.86 -0.13,0.04 -0.27,0.09 -0.41,0.14 -0.07,0.01 -0.15,0.04 -0.23,0.06 -195.3,57.02 -230.27,-60.33 -305.96,-164.46 12.18,-42.03 27.03,-84.07 54.64,-121.6z"/>
  <path class="fil1 str0" d="M1590.7 5690.82c-74.56,-8.68 -128.83,-63.25 -162,-113.37 -9.77,-22 -21.36,-44.95 -34.99,-68.85 -11.24,-33.47 39.31,-105.4 107.06,-94.83 2.16,1.3 4.62,2.1 7.41,2.36 5.73,1.58 10.91,2.63 16.78,4.83 10.66,4.69 21.57,11.54 32.62,20.96 64.33,54.87 70.19,174.37 33.12,248.9z"/>
  <path class="fil0 str0" d="M927.59 5811.83c90.26,204.29 71.99,248.56 304.93,265.97 -35.13,47.68 -86.36,77.97 -143.46,96.1 -150.26,-73.03 -169.53,-128.3 -251.96,-285.86 21.16,-28.73 49.8,-54.82 90.49,-76.21z"/>
  <path class="fil0 str0" d="M782.46 6009.64c75.69,104.13 110.66,221.48 305.96,164.46 -133.8,42.26 -299.53,17.95 -365.7,-5.62 31.66,-45.48 43.29,-102.13 59.74,-158.84zm0 0c75.69,104.13 110.66,221.48 305.96,164.46 -195.3,57.02 -230.27,-60.33 -305.96,-164.46z"/>
  <path class="fil2 str0" d="M1590.7 5690.82c37.07,-74.53 31.21,-194.03 -33.12,-248.9 -93.35,-79.65 -178.09,24.32 -163.87,66.68 15.95,47.51 82.57,168.9 196.99,182.22zm-196.99 -182.22c226.53,397.39 -104.73,531.86 -212.01,408.78 -67.35,-123.56 66.32,-145.35 97.16,-45.76 36.9,387.32 -432.74,340.81 -556.14,296.86 84.66,-121.55 26.06,-323.07 299.29,-391.52m330.73 -41.64c-0.64,-133.92 -550.81,-421.55 -662.26,-233.2 -111.44,188.35 663.3,450.73 662.26,233.2zm-3.57 23.93c164.78,-201.43 -151.08,-662.71 -316.61,-614.97 -165.52,47.73 178.87,783.33 316.61,614.97zm-421.58 52.58c90.26,204.29 71.99,248.56 304.93,265.97m-395.42 -189.76c82.43,157.56 101.7,212.83 251.97,285.87 -198.19,58.15 -231.64,-62.82 -309.32,-167.96m850.78 -728.21c-13.15,-53.23 -31.53,-59.26 -31.53,-59.26 -80.94,-15.57 -146.8,201.65 -87.34,197.67 51,-19.65 177.89,-148.33 192.29,-81.56l11.91 55.28m-683.3 -245.59c165.53,-47.74 481.39,413.54 316.65,614.98 2.36,-7.23 3.57,-15.2 3.53,-23.94 -0.33,-67.4 -139.83,-173.72 -292.55,-238.72 -71.36,-159.5 -104.53,-330.15 -27.63,-352.32zm-342.08 357.84c55.36,-93.57 218.98,-69.67 369.71,-5.52 82.25,183.8 215.22,352.79 289.02,262.66 -12.09,37.07 -54.29,54.69 -112.06,57.73 -19.2,-10.51 -40.22,-10.68 -54.97,-1.01 -52.95,-4.16 -113.21,-16.87 -173.17,-35.59 -190.13,-59.35 -377.22,-179.08 -318.53,-278.27zm658.69 257.13c-73.75,90.15 -206.73,-78.85 -288.98,-262.65 152.72,65 292.22,171.32 292.55,238.72 0.04,8.74 -1.17,16.71 -3.57,23.93zm-340.16 21.14c59.96,18.72 120.22,31.43 173.17,35.59 -21.23,13.94 -29.45,48.25 -0.48,101.4 23.83,27.36 58.73,41.99 96.11,43.84 -6.4,47.18 -22.44,85.56 -45.29,116.58 -232.94,-17.41 -214.67,-61.68 -304.93,-265.97 23,-12.11 49.87,-22.7 81.42,-31.44zm172.69 136.99c-28.97,-53.15 -20.75,-87.46 0.48,-101.4 19.44,1.53 37.88,1.92 54.97,1.01 17.42,9.54 33.35,27.63 41.71,54.63 3.14,32.92 2.61,62.69 -1.05,89.6 -37.38,-1.85 -72.28,-16.48 -96.11,-43.84zm409 -226.56c-74.56,-8.68 -128.83,-63.25 -162,-113.37 -9.76,-21.99 -21.36,-44.95 -34.99,-68.85 -11.24,-33.47 39.31,-105.4 107.06,-94.83 3.01,1.82 6.63,2.67 10.89,2.38 14.78,4.17 30.22,12.38 45.92,25.77 64.33,54.87 70.19,174.37 33.12,248.9zm-753.6 197.22c82.43,157.56 101.7,212.83 251.96,285.86 -0.13,0.04 -0.27,0.09 -0.41,0.14 -195.5,57.17 -230.47,-60.23 -306.19,-164.4 12.18,-42.03 27.03,-84.07 54.64,-121.6zm-54.64 121.6c75.69,104.13 110.66,221.48 305.96,164.46 -133.8,42.26 -299.53,17.95 -365.7,-5.62 31.66,-45.48 43.29,-102.13 59.74,-158.84zm306.6 164.26c-150.26,-73.03 -169.53,-128.3 -251.96,-285.86 21.16,-28.73 49.8,-54.82 90.49,-76.21 90.26,204.29 71.99,248.56 304.93,265.97 -35.13,47.68 -86.36,77.97 -143.46,96.1zm318.5 -632.87c-24.65,177.72 -32.57,300.13 -176.78,276.25"/>
  <path class="fil1 str0" d="M1279.73 5881.97c-7.91,-25.53 -10.48,-62.13 -39.75,-63.35 -28.64,-1.2 37.41,1.07 39.75,63.35zm-1.92 79.25c3.66,-26.91 4.19,-56.68 1.05,-89.6 3.14,32.92 2.61,62.69 -1.05,89.6zm150.89 -383.77c116.45,262.5 -30.15,389.76 -150.89,383.77 -37.38,-1.85 -72.28,-16.48 -96.11,-43.84 -28.97,-53.15 -30.34,-88.3 -9.11,-102.23 16.43,-0.65 41.88,-0.46 58.19,2.13 3.14,0.52 6.21,0.97 9.21,1.35 88.04,11.18 122.25,-36.08 142.03,-118.32 7.69,-21.88 11.88,-45.36 13.06,-69.83 4.2,-27.7 8.07,-57.69 12.48,-89.45 5.69,11.31 12.73,23.72 21.14,36.42z"/>
  <path class="fil1 str0" d="M1182.18 5815.98c-21.23,13.94 -29.45,48.25 -0.48,101.4 23.83,27.36 58.73,41.99 96.11,43.84 -6.4,47.18 -22.44,85.56 -45.29,116.58 -232.94,-17.41 -214.67,-61.68 -304.93,-265.97 23,-12.11 49.87,-22.7 81.42,-31.44 59.96,18.72 120.22,31.43 173.17,35.59z"/>
  <path class="fil1 str0" d="M837.1 5888.04c82.43,157.56 101.7,212.83 251.96,285.86 -0.13,0.04 -0.27,0.09 -0.41,0.14 -0.07,0.01 -0.15,0.04 -0.23,0.06 -195.3,57.02 -230.27,-60.33 -305.96,-164.46 12.18,-42.03 27.03,-84.07 54.64,-121.6z"/>
  <path class="fil1 str0" d="M1590.7 5690.82c-74.56,-8.68 -128.83,-63.25 -162,-113.37 -9.77,-22 -21.36,-44.95 -34.99,-68.85 -11.24,-33.47 39.31,-105.4 107.06,-94.83 2.16,1.3 4.62,2.1 7.41,2.36 5.73,1.58 10.91,2.63 16.78,4.83 10.66,4.69 21.57,11.54 32.62,20.96 64.33,54.87 70.19,174.37 33.12,248.9z"/>
  <path class="fil0 str0" d="M927.59 5811.83c90.26,204.29 71.99,248.56 304.93,265.97 -35.13,47.68 -86.36,77.97 -143.46,96.1 -150.26,-73.03 -169.53,-128.3 -251.96,-285.86 21.16,-28.73 49.8,-54.82 90.49,-76.21z"/>
  <path class="fil0 str0" d="M782.46 6009.64c75.69,104.13 110.66,221.48 305.96,164.46 -133.8,42.26 -299.53,17.95 -365.7,-5.62 31.66,-45.48 43.29,-102.13 59.74,-158.84zm0 0c75.69,104.13 110.66,221.48 305.96,164.46 -195.3,57.02 -230.27,-60.33 -305.96,-164.46z"/>
  <path class="fil2 str0" d="M1590.7 5690.82c37.07,-74.53 31.21,-194.03 -33.12,-248.9 -93.35,-79.65 -178.09,24.32 -163.87,66.68 15.95,47.51 82.57,168.9 196.99,182.22zm-196.99 -182.22c226.53,397.39 -104.73,531.86 -212.01,408.78 -67.35,-123.56 66.32,-145.35 97.16,-45.76 36.9,387.32 -432.74,340.81 -556.14,296.86 84.66,-121.55 26.06,-323.07 299.29,-391.52m330.73 -41.64c-0.64,-133.92 -550.81,-421.55 -662.26,-233.2 -111.44,188.35 663.3,450.73 662.26,233.2zm-3.57 23.93c164.78,-201.43 -151.08,-662.71 -316.61,-614.97 -165.52,47.73 178.87,783.33 316.61,614.97zm-421.58 52.58c90.26,204.29 71.99,248.56 304.93,265.97m-395.42 -189.76c82.43,157.56 101.7,212.83 251.97,285.87 -198.19,58.15 -231.64,-62.82 -309.32,-167.96m850.78 -728.21c-13.15,-53.23 -31.53,-59.26 -31.53,-59.26 -80.94,-15.57 -146.8,201.65 -87.34,197.67 51,-19.65 177.89,-148.33 192.29,-81.56l11.91 55.28m-683.3 -245.59c165.53,-47.74 481.39,413.54 316.65,614.98 2.36,-7.23 3.57,-15.2 3.53,-23.94 -0.33,-67.4 -139.83,-173.72 -292.55,-238.72 -71.36,-159.5 -104.53,-330.15 -27.63,-352.32zm-342.08 357.84c55.36,-93.57 218.98,-69.67 369.71,-5.52 82.25,183.8 215.22,352.79 289.02,262.66 -12.09,37.07 -54.29,54.69 -112.06,57.73 -19.2,-10.51 -40.22,-10.68 -54.97,-1.01 -52.95,-4.16 -113.21,-16.87 -173.17,-35.59 -190.13,-59.35 -377.22,-179.08 -318.53,-278.27zm658.69 257.13c-73.75,90.15 -206.73,-78.85 -288.98,-262.65 152.72,65 292.22,171.32 292.55,238.72 0.04,8.74 -1.17,16.71 -3.57,23.93zm-340.16 21.14c59.96,18.72 120.22,31.43 173.17,35.59 -21.23,13.94 -29.45,48.25 -0.48,101.4 23.83,27.36 58.73,41.99 96.11,43.84 -6.4,47.18 -22.44,85.56 -45.29,116.58 -232.94,-17.41 -214.67,-61.68 -304.93,-265.97 23,-12.11 49.87,-22.7 81.42,-31.44zm172.69 136.99c-28.97,-53.15 -20.75,-87.46 0.48,-101.4 19.44,1.53 37.88,1.92 54.97,1.01 17.42,9.54 33.35,27.63 41.71,54.63 3.14,32.92 2.61,62.69 -1.05,89.6 -37.38,-1.85 -72.28,-16.48 -96.11,-43.84zm409 -226.56c-74.56,-8.68 -128.83,-63.25 -162,-113.37 -9.76,-21.99 -21.36,-44.95 -34.99,-68.85 -11.24,-33.47 39.31,-105.4 107.06,-94.83 3.01,1.82 6.63,2.67 10.89,2.38 14.78,4.17 30.22,12.38 45.92,25.77 64.33,54.87 70.19,174.37 33.12,248.9zm-753.6 197.22c82.43,157.56 101.7,212.83 251.96,285.86 -0.13,0.04 -0.27,0.09 -0.41,0.14 -195.5,57.17 -230.47,-60.23 -306.19,-164.4 12.18,-42.03 27.03,-84.07 54.64,-121.6zm-54.64 121.6c75.69,104.13 110.66,221.48 305.96,164.46 -133.8,42.26 -299.53,17.95 -365.7,-5.62 31.66,-45.48 43.29,-102.13 59.74,-158.84zm306.6 164.26c-150.26,-73.03 -169.53,-128.3 -251.96,-285.86 21.16,-28.73 49.8,-54.82 90.49,-76.21 90.26,204.29 71.99,248.56 304.93,265.97 -35.13,47.68 -86.36,77.97 -143.46,96.1zm318.5 -632.87c-24.65,177.72 -32.57,300.13 -176.78,276.25"/>
  <path class="fil1 str0" d="M1279.73 5881.97c-7.91,-25.53 -10.48,-62.13 -39.75,-63.35 -28.64,-1.2 37.41,1.07 39.75,63.35zm-1.92 79.25c3.66,-26.91 4.19,-56.68 1.05,-89.6 3.14,32.92 2.61,62.69 -1.05,89.6zm150.89 -383.77c116.45,262.5 -30.15,389.76 -150.89,383.77 -37.38,-1.85 -72.28,-16.48 -96.11,-43.84 -28.97,-53.15 -30.34,-88.3 -9.11,-102.23 16.43,-0.65 41.88,-0.46 58.19,2.13 3.14,0.52 6.21,0.97 9.21,1.35 88.04,11.18 122.25,-36.08 142.03,-118.32 7.69,-21.88 11.88,-45.36 13.06,-69.83 4.2,-27.7 8.07,-57.69 12.48,-89.45 5.69,11.31 12.73,23.72 21.14,36.42z"/>
  <path class="fil1 str0" d="M1182.18 5815.98c-21.23,13.94 -29.45,48.25 -0.48,101.4 23.83,27.36 58.73,41.99 96.11,43.84 -6.4,47.18 -22.44,85.56 -45.29,116.58 -232.94,-17.41 -214.67,-61.68 -304.93,-265.97 23,-12.11 49.87,-22.7 81.42,-31.44 59.96,18.72 120.22,31.43 173.17,35.59z"/>
  <path class="fil1 str0" d="M837.1 5888.04c82.43,157.56 101.7,212.83 251.96,285.86 -0.13,0.04 -0.27,0.09 -0.41,0.14 -0.07,0.01 -0.15,0.04 -0.23,0.06 -195.3,57.02 -230.27,-60.33 -305.96,-164.46 12.18,-42.03 27.03,-84.07 54.64,-121.6z"/>
  <path class="fil1 str0" d="M1590.7 5690.82c-74.56,-8.68 -128.83,-63.25 -162,-113.37 -9.77,-22 -21.36,-44.95 -34.99,-68.85 -11.24,-33.47 39.31,-105.4 107.06,-94.83 2.16,1.3 4.62,2.1 7.41,2.36 5.73,1.58 10.91,2.63 16.78,4.83 10.66,4.69 21.57,11.54 32.62,20.96 64.33,54.87 70.19,174.37 33.12,248.9z"/>
  <path class="fil0 str0" d="M927.59 5811.83c90.26,204.29 71.99,248.56 304.93,265.97 -35.13,47.68 -86.36,77.97 -143.46,96.1 -150.26,-73.03 -169.53,-128.3 -251.96,-285.86 21.16,-28.73 49.8,-54.82 90.49,-76.21z"/>
  <path class="fil0 str0" d="M782.46 6009.64c75.69,104.13 110.66,221.48 305.96,164.46 -133.8,42.26 -299.53,17.95 -365.7,-5.62 31.66,-45.48 43.29,-102.13 59.74,-158.84zm0 0c75.69,104.13 110.66,221.48 305.96,164.46 -195.3,57.02 -230.27,-60.33 -305.96,-164.46z"/>
  <path class="fil2 str0" d="M1590.7 5690.82c37.07,-74.53 31.21,-194.03 -33.12,-248.9 -93.35,-79.65 -178.09,24.32 -163.87,66.68 15.95,47.51 82.57,168.9 196.99,182.22zm-196.99 -182.22c226.53,397.39 -104.73,531.86 -212.01,408.78 -67.35,-123.56 66.32,-145.35 97.16,-45.76 36.9,387.32 -432.74,340.81 -556.14,296.86 84.66,-121.55 26.06,-323.07 299.29,-391.52m330.73 -41.64c-0.64,-133.92 -550.81,-421.55 -662.26,-233.2 -111.44,188.35 663.3,450.73 662.26,233.2zm-3.57 23.93c164.78,-201.43 -151.08,-662.71 -316.61,-614.97 -165.52,47.73 178.87,783.33 316.61,614.97zm-421.58 52.58c90.26,204.29 71.99,248.56 304.93,265.97m-395.42 -189.76c82.43,157.56 101.7,212.83 251.97,285.87 -198.19,58.15 -231.64,-62.82 -309.32,-167.96m850.78 -728.21c-13.15,-53.23 -31.53,-59.26 -31.53,-59.26 -80.94,-15.57 -146.8,201.65 -87.34,197.67 51,-19.65 177.89,-148.33 192.29,-81.56l11.91 55.28m-683.3 -245.59c165.53,-47.74 481.39,413.54 316.65,614.98 2.36,-7.23 3.57,-15.2 3.53,-23.94 -0.33,-67.4 -139.83,-173.72 -292.55,-238.72 -71.36,-159.5 -104.53,-330.15 -27.63,-352.32zm-342.08 357.84c55.36,-93.57 218.98,-69.67 369.71,-5.52 82.25,183.8 215.22,352.79 289.02,262.66 -12.09,37.07 -54.29,54.69 -112.06,57.73 -19.2,-10.51 -40.22,-10.68 -54.97,-1.01 -52.95,-4.16 -113.21,-16.87 -173.17,-35.59 -190.13,-59.35 -377.22,-179.08 -318.53,-278.27zm658.69 257.13c-73.75,90.15 -206.73,-78.85 -288.98,-262.65 152.72,65 292.22,171.32 292.55,238.72 0.04,8.74 -1.17,16.71 -3.57,23.93zm-340.16 21.14c59.96,18.72 120.22,31.43 173.17,35.59 -21.23,13.94 -29.45,48.25 -0.48,101.4 23.83,27.36 58.73,41.99 96.11,43.84 -6.4,47.18 -22.44,85.56 -45.29,116.58 -232.94,-17.41 -214.67,-61.68 -304.93,-265.97 23,-12.11 49.87,-22.7 81.42,-31.44zm172.69 136.99c-28.97,-53.15 -20.75,-87.46 0.48,-101.4 19.44,1.53 37.88,1.92 54.97,1.01 17.42,9.54 33.35,27.63 41.71,54.63 3.14,32.92 2.61,62.69 -1.05,89.6 -37.38,-1.85 -72.28,-16.48 -96.11,-43.84zm409 -226.56c-74.56,-8.68 -128.83,-63.25 -162,-113.37 -9.76,-21.99 -21.36,-44.95 -34.99,-68.85 -11.24,-33.47 39.31,-105.4 107.06,-94.83 3.01,1.82 6.63,2.67 10.89,2.38 14.78,4.17 30.22,12.38 45.92,25.77 64.33,54.87 70.19,174.37 33.12,248.9zm-753.6 197.22c82.43,157.56 101.7,212.83 251.96,285.86 -0.13,0.04 -0.27,0.09 -0.41,0.14 -195.5,57.17 -230.47,-60.23 -306.19,-164.4 12.18,-42.03 27.03,-84.07 54.64,-121.6zm-54.64 121.6c75.69,104.13 110.66,221.48 305.96,164.46 -133.8,42.26 -299.53,17.95 -365.7,-5.62 31.66,-45.48 43.29,-102.13 59.74,-158.84zm306.6 164.26c-150.26,-73.03 -169.53,-128.3 -251.96,-285.86 21.16,-28.73 49.8,-54.82 90.49,-76.21 90.26,204.29 71.99,248.56 304.93,265.97 -35.13,47.68 -86.36,77.97 -143.46,96.1zm318.5 -632.87c-24.65,177.72 -32.57,300.13 -176.78,276.25"/>
  <path class="fil1 str0" d="M1279.73 5881.97c-7.91,-25.53 -10.48,-62.13 -39.75,-63.35 -28.64,-1.2 37.41,1.07 39.75,63.35zm-1.92 79.25c3.66,-26.91 4.19,-56.68 1.05,-89.6 3.14,32.92 2.61,62.69 -1.05,89.6zm150.89 -383.77c116.45,262.5 -30.15,389.76 -150.89,383.77 -37.38,-1.85 -72.28,-16.48 -96.11,-43.84 -28.97,-53.15 -30.34,-88.3 -9.11,-102.23 16.43,-0.65 41.88,-0.46 58.19,2.13 3.14,0.52 6.21,0.97 9.21,1.35 88.04,11.18 122.25,-36.08 142.03,-118.32 7.69,-21.88 11.88,-45.36 13.06,-69.83 4.2,-27.7 8.07,-57.69 12.48,-89.45 5.69,11.31 12.73,23.72 21.14,36.42z"/>
  <path class="fil1 str0" d="M1182.18 5815.98c-21.23,13.94 -29.45,48.25 -0.48,101.4 23.83,27.36 58.73,41.99 96.11,43.84 -6.4,47.18 -22.44,85.56 -45.29,116.58 -232.94,-17.41 -214.67,-61.68 -304.93,-265.97 23,-12.11 49.87,-22.7 81.42,-31.44 59.96,18.72 120.22,31.43 173.17,35.59z"/>
  <path class="fil1 str0" d="M837.1 5888.04c82.43,157.56 101.7,212.83 251.96,285.86 -0.13,0.04 -0.27,0.09 -0.41,0.14 -0.07,0.01 -0.15,0.04 -0.23,0.06 -195.3,57.02 -230.27,-60.33 -305.96,-164.46 12.18,-42.03 27.03,-84.07 54.64,-121.6z"/>
  <path class="fil1 str0" d="M1590.7 5690.82c-74.56,-8.68 -128.83,-63.25 -162,-113.37 -9.77,-22 -21.36,-44.95 -34.99,-68.85 -11.24,-33.47 39.31,-105.4 107.06,-94.83 2.16,1.3 4.62,2.1 7.41,2.36 5.73,1.58 10.91,2.63 16.78,4.83 10.66,4.69 21.57,11.54 32.62,20.96 64.33,54.87 70.19,174.37 33.12,248.9z"/>
  <path class="fil0 str0" d="M927.59 5811.83c90.26,204.29 71.99,248.56 304.93,265.97 -35.13,47.68 -86.36,77.97 -143.46,96.1 -150.26,-73.03 -169.53,-128.3 -251.96,-285.86 21.16,-28.73 49.8,-54.82 90.49,-76.21z"/>
  <path class="fil0 str0" d="M782.46 6009.64c75.69,104.13 110.66,221.48 305.96,164.46 -133.8,42.26 -299.53,17.95 -365.7,-5.62 31.66,-45.48 43.29,-102.13 59.74,-158.84zm0 0c75.69,104.13 110.66,221.48 305.96,164.46 -195.3,57.02 -230.27,-60.33 -305.96,-164.46z"/>
  <path class="fil4 str0" d="M1062.59 5497.62c-0.79,-0.35 -1.59,-0.68 -2.4,-1.02 0.81,0.34 1.61,0.67 2.4,1.02zm-30.03 -353.34c135.89,-39.19 373.1,264.69 362.52,486.2 -3.85,25.31 -7.98,48.72 -13.06,69.83 -7.48,21.32 -18.3,41.15 -32.81,58.95 2.36,-7.23 3.57,-15.2 3.53,-23.94 -0.09,-19.58 -11.94,-42.46 -32.48,-66.68 -50.89,-62.35 -155.1,-127.05 -257.67,-171.02 -0.8,-0.34 -1.59,-0.68 -2.4,-1.02 -71.36,-159.5 -104.53,-330.15 -27.63,-352.32z"/>
  <path class="fil4 str0" d="M1060.19 5496.6c82.25,183.8 215.22,352.79 289.02,262.66 -12.09,37.07 -54.29,54.69 -112.06,57.73 -18.43,-10.1 -38.53,-10.65 -53.16,-2.13 -4.08,0.04 -7.94,0.15 -11.4,0.29 -50.57,-4.88 -107.21,-17.16 -163.58,-34.76 -190.13,-59.35 -377.22,-179.08 -318.53,-278.27 55.36,-93.57 218.98,-69.67 369.71,-5.52z"/>
  <path class="fil4 str0" d="M1060.19 5496.6c0.81,0.34 1.61,0.67 2.4,1.02 -0.79,-0.35 -1.59,-0.68 -2.4,-1.02zm289.02 262.66c-73.8,90.13 -206.77,-78.86 -289.02,-262.66 0.81,0.34 1.61,0.67 2.4,1.02 107.45,46.08 208.01,112.43 257.67,171.02 25.99,31.84 38.06,63.06 28.95,90.62z"/>
  <path class="fil2 str3" d="M922.43 6308.75c-23.1,978.88 783.99,482.26 904.32,681.19"/>
  <path class="fil5 str0" d="M3432.58 6706.1c212.5,-193.17 353.19,-427.06 317.16,-647.71 -22.24,-136.28 -145.27,-300.74 -422.45,-285.14 -69,3.88 -147.55,18.93 -236.48,48.34 66.01,-50.95 160.26,-110.02 253.37,-182.2 212.05,-164.33 418.24,-396.47 271.72,-754.71 -5.72,-13.99 -12.3,-27.85 -19.72,-41.5 -46.28,-85.01 -125.61,-161.58 -237.62,-210.68 -254.57,-111.61 -678.01,-81.35 -1266.43,313.95l10.3 1822.35c2.86,505.17 599.17,425.76 1074.67,129.4 91.3,-56.91 178.14,-121.8 255.48,-192.1zm-432.74 -1573.47c123.14,96.76 -106.07,354.29 -453.57,460.35l-27.09 -311.41c163.96,-78.83 342.47,-257.5 480.66,-148.94zm23.72 1135.01c9.89,5.38 19.87,12 30,19.95 48.13,37.82 42.43,100.19 -3.1,168.46 -70.98,106.46 -238.77,227.28 -450.47,291.89l-27.09 -311.41c215.18,-107.55 325.65,-236.9 450.66,-168.89z"/>
  <path class="fil6 str0" d="M3615.9 4884.68c146.52,358.24 -59.67,590.38 -271.72,754.71 212.05,-164.33 418.24,-396.47 271.72,-754.71zm-19.72 -41.5c7.42,13.65 14,27.51 19.72,41.5 -5.72,-13.99 -12.3,-27.85 -19.72,-41.5zm-163.6 1862.92c33.43,95.58 74.2,189.13 122.47,280.1 5,1.85 9.98,3.68 14.95,5.49 372.45,136.32 658.19,186.92 872.52,180.15 187.12,-5.9 319.81,-55.53 408.29,-130.01 140.55,-118.3 169.52,-299.31 127.8,-467.47 -43.87,-176.81 -259.41,-164.2 -484.58,-140.94 -106.1,10.95 -214.33,24.27 -307.76,21.24 -23.41,-0.75 -45.88,-2.54 -67.17,-5.65 -51.95,16.91 -91.31,11.35 -119.03,-7.72 -89.84,-61.81 -57.84,-265.55 62.28,-308 19.61,-6.95 41.56,-9.58 65.72,-6.6 7.11,0.88 14.17,1.95 21.18,3.19 120.99,21.35 226.99,92.53 312.39,82.96 61.27,-6.87 111.93,-55.31 149.89,-193.59 66.07,-240.62 -20.29,-337.35 -132.52,-371.74 -131.01,-40.15 -297.23,4.67 -297.23,4.67 -4.19,1.88 -8.32,3.57 -12.4,5.07 -229.27,84.08 -307.99,-424.16 -32.36,-327.39 31.15,6.04 61.3,11.37 90.49,16.03 117.82,18.83 219.97,26.7 308.48,25.99 442.17,-3.58 543.93,-221.86 559.01,-364.34 11.59,-109.42 -35.69,-227.18 -187.81,-303.68 -92.95,-46.73 -225.02,-78.08 -406.72,-82.71 -168.23,-4.29 -379.01,14.31 -640.65,64.78 -65.52,12.64 -134.24,27.28 -206.28,44.06 -19.97,37.56 -39.1,75.3 -57.36,113.19 -46.28,-85.01 -125.61,-161.58 -237.62,-210.68 -254.57,-111.61 -678.01,-81.35 -1266.43,313.95l10.3 1822.35c2.86,505.17 599.17,425.76 1074.67,129.4 91.3,-56.91 178.14,-121.8 255.48,-192.1zm317.16 -647.71c36.03,220.65 -104.66,454.54 -317.16,647.71 212.5,-193.17 353.19,-427.06 317.16,-647.71zm-422.45 -285.14c-69,3.88 -147.55,18.93 -236.48,48.34 66.01,-50.95 160.26,-110.02 253.37,-182.2 -6.87,44.69 -12.51,89.32 -16.89,133.86zm422.45 285.14c-22.24,-136.28 -145.27,-300.74 -422.45,-285.14 277.18,-15.6 400.21,148.86 422.45,285.14zm-749.9 -925.76c123.14,96.76 -106.07,354.29 -453.57,460.35l-27.09 -311.41c163.96,-78.83 342.47,-257.5 480.66,-148.94zm23.72 1135.01c9.89,5.38 19.87,12 30,19.95 48.13,37.82 42.43,100.19 -3.1,168.46 -70.98,106.46 -238.77,227.28 -450.47,291.89l-27.09 -311.41c215.18,-107.55 325.65,-236.9 450.66,-168.89z"/>
  <path class="fil5 str0" d="M4611.53 6019.25c-37.96,138.28 -88.62,186.72 -149.89,193.59 61.27,-6.87 111.93,-55.31 149.89,-193.59zm-132.52 -371.74c112.23,34.39 198.59,131.12 132.52,371.74 66.07,-240.62 -20.29,-337.35 -132.52,-371.74zm56.98 -275.63c-24.12,91.84 -43.16,183.83 -56.98,275.63 -131.01,-40.15 -297.23,4.67 -297.23,4.67 -4.19,1.88 -8.32,3.57 -12.4,5.07 -229.27,84.08 -307.99,-424.16 -32.36,-327.39 31.15,6.04 61.3,11.37 90.49,16.03 117.82,18.83 219.97,26.7 308.48,25.99zm559.01 -364.34c-15.08,142.48 -116.84,360.76 -559.01,364.34 442.17,-3.58 543.93,-221.86 559.01,-364.34zm-187.81 -303.68c152.12,76.5 199.4,194.26 187.81,303.68 11.59,-109.42 -35.69,-227.18 -187.81,-303.68zm-56.38 2337.97c119.01,38.79 228.21,68.08 328.2,88.98 331.92,69.4 562.33,46.47 713.36,-27.84 107.7,-53 175.05,-132.14 210.03,-222.56 36.86,-95.27 37.84,-203.07 12.28,-306.05 -29.24,-117.84 -134.73,-151.54 -268.5,-154.02 -96.42,-1.8 -207.51,12.62 -315.36,23.44 -96.83,9.72 -191.04,16.52 -269.62,6.07 -2.02,-0.26 -4.03,-0.55 -6.03,-0.84 -158.46,51.55 -199.67,-105.78 -151.74,-218.78 26.98,-63.64 82.23,-113.21 160.71,-103.54 77.19,9.53 148.59,41.76 212.79,64.21 116.97,40.9 210.03,49.26 270.68,-171.65 10.84,-39.5 17.57,-75.11 20.77,-107.21 0.5,-12.29 1.22,-24.38 2.15,-36.26 3.34,-201.04 -148.98,-244.24 -277.8,-244.96 -93.65,-0.54 -174.88,21.36 -174.88,21.36 -107.31,48.29 -183.86,-31.82 -210.16,-125.73 -32.24,-115.06 10.94,-250.82 165.4,-196.59 8.01,1.56 15.97,3.06 23.86,4.52 95.03,17.61 180.57,28.51 257.56,33.77 134.11,9.15 242.26,1.15 329.35,-18.4 265,-59.52 334.91,-226.04 347.21,-342.21 5.22,-49.31 -1.51,-100.32 -24.42,-148.49 -36.3,-76.35 -113.26,-145.55 -247.61,-189.51 -146.12,-47.8 -360.12,-65.74 -663.59,-30.56 -115.95,13.44 -244.98,34.63 -388.26,64.88 -92.95,-46.73 -225.02,-78.08 -406.72,-82.71 -168.23,-4.29 -379.01,14.31 -640.65,64.78 -65.53,12.64 -134.24,27.28 -206.28,44.06 -19.97,37.56 -39.1,75.3 -57.36,113.19 7.42,13.65 14,27.51 19.72,41.5 146.52,358.24 -59.67,590.38 -271.72,754.71 -6.87,44.69 -12.51,89.32 -16.89,133.86 277.18,-15.6 400.21,148.86 422.45,285.14 36.03,220.65 -104.66,454.54 -317.16,647.71 33.43,95.58 74.2,189.13 122.47,280.1 5,1.85 9.98,3.68 14.95,5.49 372.45,136.32 658.19,186.92 872.52,180.15 187.12,-5.9 319.81,-55.53 408.29,-130.01zm127.8 -467.47c41.72,168.16 12.75,349.17 -127.8,467.47 140.55,-118.3 169.52,-299.31 127.8,-467.47zm-484.58 -140.94c-106.1,10.95 -214.33,24.27 -307.76,21.24 -23.41,-0.75 -45.88,-2.54 -67.17,-5.65 -51.95,16.91 -91.31,11.35 -119.03,-7.72 -89.84,-61.81 -57.84,-265.55 62.28,-308 19.61,-6.95 41.56,-9.58 65.72,-6.6 7.11,0.88 14.17,1.95 21.18,3.19 120.99,21.35 226.99,92.53 312.39,82.96 6.97,74.24 17.75,147.83 32.39,220.58zm484.58 140.94c-43.87,-176.81 -259.41,-164.2 -484.58,-140.94 225.17,-23.26 440.71,-35.87 484.58,140.94z"/>
  <path class="fil5 str0" d="M3432.58 6706.1c212.5,-193.17 353.19,-427.06 317.16,-647.71 -22.24,-136.28 -145.27,-300.74 -422.45,-285.14 -69,3.88 -147.55,18.93 -236.48,48.34 66.01,-50.95 160.26,-110.02 253.37,-182.2 212.05,-164.33 418.24,-396.47 271.72,-754.71 -5.72,-13.99 -12.3,-27.85 -19.72,-41.5 -46.28,-85.01 -125.61,-161.58 -237.62,-210.68 -254.57,-111.61 -678.01,-81.35 -1266.43,313.95l10.3 1822.35c2.86,505.17 599.17,425.76 1074.67,129.4 91.3,-56.91 178.14,-121.8 255.48,-192.1zm-432.74 -1573.47c123.14,96.76 -106.07,354.29 -453.57,460.35l-27.09 -311.41c163.96,-78.83 342.47,-257.5 480.66,-148.94zm-426.94 1303.9c215.19,-107.55 325.65,-236.9 450.66,-168.89 9.89,5.38 19.87,12 30,19.95 48.13,37.82 42.43,100.19 -3.1,168.46 -70.98,106.46 -238.77,227.28 -450.47,291.89l-27.09 -311.41z"/>
  <path class="fil6 str0" d="M6114.68 6574.36c25.56,102.98 24.58,210.78 -12.28,306.05 72.78,79.75 157.1,143.64 252.69,183.12 72.02,29.73 150.44,45.61 235.1,43.98 102.15,-1.97 192.35,-18.14 272.06,-45.84 103.58,-36 189.45,-91.49 260.8,-160.63 278.75,-270.12 335.91,-748.65 362.46,-1087.71 21.69,-277.21 -72.15,-640.87 -271.14,-879.33 -68.6,-82.21 -149.7,-149.54 -242.87,-193.32 -62.09,-29.17 -129.55,-47.88 -202.24,-53.56 -107.27,-8.38 -204.17,1.76 -291.54,26.79 -103.27,29.59 -193.19,79.99 -271.07,145.14 22.91,48.17 29.64,99.18 24.42,148.49 -12.3,116.17 -82.21,282.69 -347.21,342.21 -65.19,176.14 -100.54,362.63 -113.33,526.03 -0.19,11.57 -0.9,23.64 -2.15,36.26 -6.21,151.8 20.14,333.22 77.8,508.3 133.77,2.48 239.26,36.18 268.5,154.02zm493.42 -483.48c-110.1,8.81 -209.49,-149.25 -205.93,-259.64 3.97,-123.48 100.7,-285.61 223.83,-295.45 36.84,-2.94 73.64,11.23 106.47,35.64 68.65,51.02 119.84,146.74 117.36,223.99 -3.08,96.09 -67.12,209.88 -152.96,264.12 -27.75,17.54 -57.79,28.85 -88.77,31.34z"/>
  <path class="fil6 str0" d="M7485.51 5813.33c-26.55,339.06 -83.71,817.59 -362.46,1087.71 38.99,81.38 87.96,136.28 147.59,154.65 43.67,13.44 82.92,16.4 118.2,10.85 213.64,-33.66 281.84,-379.58 305.04,-599.29 2.73,-25.99 4.86,-50.22 6.5,-71.96 1.25,9.05 2.9,18.33 4.94,27.82 56.25,262.77 404.87,683.48 605.02,661.57 52.37,-5.73 102.85,-50.32 149.71,-123.4 56.37,-87.9 107.51,-217.04 150.43,-369.41 129.1,-458.28 183.83,-1126.66 82.74,-1514.85 -36.03,-138.38 -91.84,-241.15 -171.16,-286.13 -28.96,-16.43 -61.06,-25.16 -96.46,-25.08 -429.6,0.87 -348.24,684.61 -420.8,1092.28 -23.87,-438.71 -154.14,-1128.03 -561.92,-1128.1 -0.13,0 -0.27,0 -0.41,0 -87.83,0.22 -164.48,77.59 -228.1,204.01 198.99,238.46 292.83,602.12 271.14,879.33z"/>
  <path class="fil7 str0" d="M8693.22 5077.02c101.09,388.19 46.36,1056.57 -82.74,1514.85 55.54,132.16 127.17,245.89 212.22,329.76 75.91,74.88 162.52,125.97 257.87,145.14 195.08,39.22 338.9,18.87 446.1,-37.56 99.08,-52.16 166.89,-135.13 215.01,-230.36 53.13,-105.18 82.23,-225.32 102.89,-335.43 19.62,-104.56 31.61,-200.06 49.35,-265.1 2.14,-0.14 4.29,-0.3 6.47,-0.52 182.35,-17.42 520.76,-301.7 22.85,-350.75 -37.31,-3.67 -79.3,-6.03 -126.42,-6.86 -70.56,-6.41 -138.24,-3.63 -199,5.76 -276.89,42.83 -409.68,223.17 -13.51,297.44 2.19,0.39 4.39,0.81 6.6,1.21 -1.39,6.04 -2.94,11.96 -4.64,17.76 -76.56,261.4 -460.17,276.84 -564.07,-90.78 -22.5,-79.59 -31.89,-177.16 -22.21,-294.06 9.68,-116.98 27.81,-208.1 51.89,-278.56 75.32,-220.4 208.82,-238.74 324.15,-213.87 162.63,121.41 198.68,300.85 290.33,392.54 27.75,27.77 60.6,47.49 103.61,55.12 142.01,28.62 199.88,-103.88 189.98,-284.83 -19,-347.62 -288.12,-874.1 -691.36,-780.6 -131.49,30.48 -244.75,84.32 -341.1,155.88 -93.66,69.56 -171.33,155.89 -234.27,253.82z"/>
  <path class="fil7 str0" d="M8610.48 6591.87c129.1,-458.28 183.83,-1126.66 82.74,-1514.85 -24.28,-93.26 -60.62,-181.73 -114.55,-240.33 -17.36,-18.84 -36.21,-34.23 -56.61,-45.8 -28.96,-16.43 -61.06,-25.16 -96.46,-25.08 -429.6,0.87 -348.24,684.61 -420.8,1092.28 -23.86,-438.57 -154.18,-1128.16 -561.92,-1128.1 -0.13,0 -0.27,0 -0.41,0 -87.83,0.22 -164.48,77.59 -228.1,204.01 198.99,238.46 292.83,602.12 271.14,879.33 -26.55,339.06 -83.71,817.59 -362.46,1087.71 38.99,81.38 87.96,136.28 147.59,154.65 15.94,4.9 31.3,8.42 46.09,10.63 25.72,3.84 49.71,3.75 72.11,0.22 89.97,-14.17 154.16,-83.74 200.05,-175.93 61.72,-124.06 90.92,-290.34 104.98,-423.36 1.35,-12.73 2.56,-25.15 3.64,-37.21 1.09,-12.16 2.04,-23.77 2.87,-34.75 1.25,9.05 2.9,18.33 4.94,27.82 29.16,136.26 136.96,315.01 261.92,452.47 117.01,127.87 248.58,219.45 343.1,209.1 0.06,-0.02 0.14,-0.02 0.2,-0.03 52.3,-5.82 102.71,-50.37 149.5,-123.36 2.61,-4.05 5.21,-8.21 7.79,-12.44 66.65,-109.9 115.69,-261.31 142.65,-356.98z"/>
  <path class="fil7 str0" d="M7123.05 6901.04c278.75,-270.12 335.91,-748.65 362.46,-1087.71 21.69,-277.21 -72.15,-640.87 -271.14,-879.33 -68.6,-82.21 -149.7,-149.54 -242.87,-193.32 -62.09,-29.17 -129.55,-47.88 -202.24,-53.56 -107.27,-8.38 -204.17,1.76 -291.54,26.79 -103.27,29.59 -193.19,79.99 -271.07,145.14 22.91,48.17 29.64,99.18 24.42,148.49 -12.3,116.17 -82.21,282.69 -347.21,342.21 -65.19,176.14 -100.54,362.63 -113.33,526.03 -0.19,11.57 -0.9,23.64 -2.15,36.26 -6.21,151.8 20.14,333.22 77.8,508.3 133.77,2.48 239.26,36.18 268.5,154.02 25.56,102.98 24.58,210.78 -12.28,306.05 72.78,79.75 157.1,143.64 252.69,183.12 72.02,29.73 150.44,45.61 235.1,43.98 102.15,-1.97 192.35,-18.14 272.06,-45.84 103.58,-36 189.45,-91.49 260.8,-160.63zm-514.95 -810.16c-110.1,8.81 -209.49,-149.25 -205.93,-259.64 3.97,-123.48 100.7,-285.61 223.83,-295.45 36.84,-2.94 73.64,11.25 106.47,35.64 68.65,51.02 119.84,146.75 117.36,223.99 -3.08,96.09 -67.12,209.88 -152.96,264.12 -27.75,17.54 -57.79,28.85 -88.77,31.34z"/>
  <path class="fil7 str0" d="M9844.57 6463.42c-20.66,110.11 -49.76,230.25 -102.89,335.43 40.43,76.51 121.17,147.84 241.21,197.55 109.36,45.28 251.33,72.63 425.15,69.62 212.48,-3.67 417.81,-265.62 393.94,-501.38 -23.39,-231.07 -197.61,-252.6 -436.91,-286.1 -4.86,-0.67 -9.73,-1.36 -14.63,-2.05 -246.81,-34.75 -97.77,-301.19 18.29,-219.55 36.87,25.95 69.06,45.02 97.01,58.88 125.59,62.23 166.13,19.08 166.13,19.08 234.29,-211.55 -15.87,-390.2 -261.2,-432.77 -76.53,-13.28 -152.59,-13.33 -213.33,3.01 -116.86,31.43 -192.48,73.15 -234.1,141.91 497.91,49.05 159.5,333.33 -22.85,350.75 1.94,11.59 4.02,23.45 6.27,35.58 13.86,74.92 138.99,168.49 246.59,243.94 124.84,87.53 226.1,150.69 102.58,132.09 -40.82,-6.15 -78.84,-29.5 -116.15,-57.15 -92.07,-68.2 -179.88,-162.51 -295.11,-88.84z"/>
  <path class="fil7 str0" d="M3749.74 6058.39c-22.24,-136.28 -145.27,-300.74 -422.45,-285.14 -69,3.88 -147.55,18.93 -236.48,48.34 66.01,-50.95 160.26,-110.02 253.37,-182.2 212.05,-164.33 418.24,-396.47 271.72,-754.71 -5.72,-13.99 -12.3,-27.85 -19.72,-41.5 -46.28,-85.01 -125.61,-161.58 -237.62,-210.68 -254.57,-111.61 -678.01,-81.35 -1266.43,313.95l10.3 1822.35c2.86,505.17 599.17,425.76 1074.67,129.4 91.3,-56.91 178.14,-121.8 255.48,-192.1 212.5,-193.17 353.19,-427.06 317.16,-647.71zm-749.9 -925.76c123.14,96.76 -106.07,354.29 -453.57,460.35l-27.09 -311.41c163.96,-78.83 342.47,-257.5 480.66,-148.94zm-426.94 1303.9c215.19,-107.55 325.65,-236.9 450.66,-168.89 9.89,5.38 19.87,12 30,19.95 48.13,37.82 42.43,100.19 -3.1,168.46 -70.98,106.46 -238.77,227.28 -450.47,291.89l-27.09 -311.41z"/>
  <path class="fil5 str0" d="M4611.53 6019.25c66.07,-240.62 -20.29,-337.35 -132.52,-371.74 112.23,34.39 198.59,131.12 132.52,371.74zm-149.89 193.59c61.27,-6.87 111.93,-55.31 149.89,-193.59 -37.96,138.28 -88.62,186.72 -149.89,193.59zm32.39 220.58c-106.1,10.95 -214.33,24.27 -307.76,21.24 -23.41,-0.75 -45.88,-2.54 -67.17,-5.65 -51.95,16.91 -91.31,11.35 -119.03,-7.72 -89.84,-61.81 -57.84,-265.55 62.28,-308 19.61,-6.95 41.56,-9.58 65.72,-6.6 7.11,0.88 14.17,1.95 21.18,3.19 120.99,21.35 226.99,92.53 312.39,82.96 6.97,74.24 17.75,147.83 32.39,220.58zm484.58 140.94c-43.87,-176.81 -259.41,-164.2 -484.58,-140.94 225.17,-23.26 440.71,-35.87 484.58,140.94zm-127.8 467.47c140.55,-118.3 169.52,-299.31 127.8,-467.47 41.72,168.16 12.75,349.17 -127.8,467.47zm-314.82 -1669.95c-24.12,91.84 -43.16,183.83 -56.98,275.63 -131.01,-40.15 -297.23,4.67 -297.23,4.67 -4.19,1.88 -8.32,3.57 -12.4,5.07 -229.27,84.08 -307.99,-424.16 -32.36,-327.39 31.15,6.04 61.3,11.37 90.49,16.03 117.82,18.83 219.97,26.7 308.48,25.99zm559.01 -364.34c-15.08,142.48 -116.84,360.76 -559.01,364.34 442.17,-3.58 543.93,-221.86 559.01,-364.34zm-187.81 -303.68c152.12,76.5 199.4,194.26 187.81,303.68 11.59,-109.42 -35.69,-227.18 -187.81,-303.68zm-1291.29 180.82c146.52,358.24 -59.67,590.38 -271.72,754.71 212.05,-164.33 418.24,-396.47 271.72,-754.71zm-19.72 -41.5c7.42,13.65 14,27.51 19.72,41.5 -5.72,-13.99 -12.3,-27.85 -19.72,-41.5zm-163.6 1862.92c33.43,95.58 74.2,189.13 122.47,280.1 5,1.85 9.98,3.68 14.95,5.49 372.45,136.32 658.19,186.92 872.52,180.15 187.12,-5.9 319.81,-55.53 408.29,-130.01 119.01,38.79 228.21,68.08 328.2,88.98 331.92,69.4 562.33,46.47 713.36,-27.84 107.7,-53 175.05,-132.14 210.03,-222.56 36.86,-95.27 37.84,-203.07 12.28,-306.05 -29.24,-117.84 -134.73,-151.54 -268.5,-154.02 -96.42,-1.8 -207.51,12.62 -315.36,23.44 -96.83,9.72 -191.04,16.52 -269.62,6.07 -2.02,-0.26 -4.03,-0.55 -6.03,-0.84 -158.46,51.55 -199.67,-105.78 -151.74,-218.78 26.98,-63.64 82.23,-113.21 160.71,-103.54 77.2,9.53 148.6,41.76 212.79,64.21 116.97,40.9 210.03,49.26 270.68,-171.65 10.84,-39.5 17.57,-75.11 20.77,-107.21 0.5,-12.29 1.22,-24.38 2.15,-36.26 3.34,-201.04 -148.98,-244.24 -277.8,-244.96 -93.65,-0.54 -174.88,21.36 -174.88,21.36 -107.31,48.29 -183.86,-31.82 -210.16,-125.73 -32.24,-115.06 10.94,-250.82 165.4,-196.59 8.01,1.56 15.97,3.06 23.86,4.52 95.03,17.61 180.57,28.51 257.56,33.77 134.11,9.15 242.26,1.15 329.35,-18.4 265,-59.52 334.91,-226.04 347.21,-342.21 5.22,-49.31 -1.51,-100.32 -24.42,-148.49 -36.3,-76.35 -113.26,-145.55 -247.61,-189.51 -146.12,-47.8 -360.12,-65.74 -663.59,-30.56 -115.95,13.44 -244.98,34.63 -388.26,64.88 -92.95,-46.73 -225.02,-78.08 -406.72,-82.71 -168.23,-4.29 -379.01,14.31 -640.65,64.78 -65.53,12.64 -134.24,27.28 -206.28,44.06 -19.97,37.56 -39.1,75.3 -57.36,113.19 -46.28,-85.01 -125.61,-161.58 -237.62,-210.68 -254.57,-111.61 -678.01,-81.35 -1266.43,313.95l10.3 1822.35c2.86,505.17 599.17,425.76 1074.67,129.4 91.3,-56.91 178.14,-121.8 255.48,-192.1zm317.16 -647.71c36.03,220.65 -104.66,454.54 -317.16,647.71 212.5,-193.17 353.19,-427.06 317.16,-647.71zm-422.45 -285.14c-69,3.88 -147.55,18.93 -236.48,48.34 66.01,-50.95 160.26,-110.02 253.37,-182.2 -6.87,44.69 -12.51,89.32 -16.89,133.86zm-327.45 -640.62c123.14,96.76 -106.07,354.29 -453.57,460.35l-27.09 -311.41c163.96,-78.83 342.47,-257.5 480.66,-148.94zm53.72 1154.96c48.13,37.82 42.43,100.19 -3.1,168.46 -70.98,106.46 -238.77,227.28 -450.47,291.89l-27.09 -311.41c215.19,-107.55 325.65,-236.9 450.66,-168.89 9.89,5.38 19.87,12 30,19.95zm696.18 -229.2c-22.24,-136.28 -145.27,-300.74 -422.45,-285.14 277.18,-15.6 400.21,148.86 422.45,285.14z"/>
  <path class="fil6 str0" d="M8460.04 6961.36c2.62,-4.11 5.22,-8.28 7.79,-12.51 -2.6,4.24 -5.2,8.41 -7.79,12.51zm-1336.99 -60.32c0.92,1.93 1.85,3.84 2.77,5.72 24.89,50.54 53.77,90.45 86.78,117.2 -34.25,-27.76 -64.03,-69.67 -89.55,-122.92zm1327.96 73.92c3.01,-4.42 6.02,-8.96 9.03,-13.6 -2.96,4.64 -5.95,9.18 -9.03,13.6zm-965.5 -1161.63c-26.55,339.06 -83.71,817.59 -362.46,1087.71 0.91,1.93 1.85,3.84 2.77,5.72 26.17,53.33 53.62,91.32 86.75,117.18 22.58,17.61 47.78,29.61 76.99,36.99 9.27,2.27 18.32,4.07 27.17,5.39 3.86,0.58 7.67,1.06 11.44,1.46 1.24,0.13 2.48,0.25 3.72,0.37 20.05,1.83 39.01,1.21 56.94,-1.63 90.08,-14.19 154.24,-83.88 200.06,-175.91 0.31,-0.65 0.63,-1.3 0.96,-1.95 0.94,-1.9 1.86,-3.81 2.78,-5.72 36.76,-76.5 61.39,-167.59 77.99,-255.24 9.53,-50.21 16.37,-99.12 21.36,-143.21 0.66,-5.83 1.29,-11.57 1.89,-17.24 1.36,-12.92 2.57,-25.35 3.63,-37.21 1.1,-12.24 2.06,-23.86 2.88,-34.75 1.25,9.05 2.9,18.33 4.94,27.82 11.02,51.5 33.28,109.06 63.44,168.19 27.45,53.73 61.19,108.26 98.24,160.03 30.27,42.25 63.15,83.19 97.34,121.06 0.96,1.06 1.93,2.13 2.9,3.19 116.86,127.7 248.23,219.2 342.73,209.13 0.12,-0.01 0.25,-0.02 0.37,-0.03 50.79,-7.84 95.84,-47.28 134.78,-101.26 1.97,-2.78 3.93,-5.58 5.94,-8.42 3.08,-4.44 6.1,-8.96 9.09,-13.57 76.41,-117.74 126.92,-287.04 148.05,-361.53 0.74,-2.6 1.47,-5.16 2.18,-7.68 0.03,-0.12 0.06,-0.24 0.1,-0.35 129.1,-458.28 183.83,-1126.66 82.74,-1514.85 -18.22,-70.02 -43.26,-137.33 -77.43,-191.34 -11.18,-17.68 -23.52,-34.19 -37.14,-48.99 -10.47,-11.37 -21.71,-21.73 -33.75,-30.8 -7.38,-5.55 -15,-10.56 -22.84,-15 -28.96,-16.43 -61.06,-25.16 -96.46,-25.08 -429.6,0.87 -348.24,684.61 -420.8,1092.28 -1.35,-24.75 -3.03,-50.31 -5.09,-76.5 -20.36,-259.35 -77.02,-580.59 -199.85,-799.31 -84.46,-150.36 -200.21,-252.27 -356.98,-252.29 -0.13,0 -0.27,0 -0.41,0 -87.83,0.22 -164.48,77.59 -228.1,204.01 198.99,238.46 292.83,602.12 271.14,879.33zm982.32 1135.52c64.82,-106.87 112.98,-253 140.37,-348.94 -40.44,141.86 -88.06,263.11 -140.37,348.94z"/>
  <path class="fil6 str0" d="M7123.05 6901.04c278.75,-270.12 335.91,-748.65 362.46,-1087.71 21.69,-277.21 -72.15,-640.87 -271.14,-879.33 -68.6,-82.21 -149.7,-149.54 -242.87,-193.32 -62.09,-29.17 -129.55,-47.88 -202.24,-53.56 -107.27,-8.38 -204.17,1.76 -291.54,26.79 -103.27,29.59 -193.19,79.99 -271.07,145.14 22.91,48.17 29.64,99.18 24.42,148.49 -12.3,116.17 -82.21,282.69 -347.21,342.21 -65.19,176.14 -100.54,362.63 -113.33,526.03 -0.19,11.57 -0.9,23.64 -2.15,36.26 -6.21,151.8 20.14,333.22 77.8,508.3 133.77,2.48 239.26,36.18 268.5,154.02 25.56,102.98 24.58,210.78 -12.28,306.05 72.78,79.75 157.1,143.64 252.69,183.12 72.02,29.73 150.44,45.61 235.1,43.98 102.15,-1.97 192.35,-18.14 272.06,-45.84 103.58,-36 189.45,-91.49 260.8,-160.63zm-426.18 -841.5c-27.75,17.54 -57.79,28.85 -88.77,31.34 -110.1,8.81 -209.49,-149.25 -205.93,-259.64 3.97,-123.48 100.7,-285.61 223.83,-295.45 36.84,-2.94 73.64,11.25 106.47,35.64 68.65,51.02 119.84,146.75 117.36,223.99 -3.08,96.09 -67.12,209.88 -152.96,264.12z"/>
  <path class="fil7 str0" d="M8693.22 5077.02c101.09,388.19 46.36,1056.57 -82.74,1514.85 55.54,132.15 127.17,245.88 212.22,329.76 75.91,74.88 162.52,125.97 257.87,145.14 195.08,39.22 338.9,18.87 446.1,-37.56 99.08,-52.16 166.89,-135.13 215.01,-230.36 53.13,-105.18 82.23,-225.32 102.89,-335.43 19.62,-104.56 31.61,-200.06 49.35,-265.1 2.14,-0.14 4.29,-0.3 6.47,-0.52 182.35,-17.42 520.76,-301.7 22.85,-350.75 -37.31,-3.67 -79.3,-6.03 -126.42,-6.86 -70.56,-6.41 -138.24,-3.63 -199,5.76 -276.89,42.83 -409.68,223.17 -13.51,297.44 2.19,0.39 4.39,0.81 6.6,1.21 -1.39,6.04 -2.94,11.96 -4.64,17.76 -76.56,261.4 -460.17,276.84 -564.07,-90.78 -22.5,-79.6 -31.89,-177.16 -22.21,-294.06 9.68,-116.98 27.81,-208.1 51.89,-278.56 75.32,-220.4 208.82,-238.74 324.15,-213.87 162.63,121.41 198.68,300.85 290.33,392.54 27.75,27.77 60.6,47.49 103.61,55.12 142.01,28.62 199.88,-103.88 189.98,-284.83 -19,-347.62 -288.12,-874.1 -691.36,-780.6 -131.49,30.48 -244.75,84.32 -341.1,155.88 -93.66,69.56 -171.33,155.89 -234.27,253.82z"/>
  <path class="fil6 str0" d="M8451.01 6974.96c3.01,-4.43 6.02,-8.96 9.09,-13.57 -1.82,2.85 -3.64,5.65 -5.49,8.43 -1.17,1.75 -2.33,3.48 -3.6,5.14zm159.47 -383.09c129.1,-458.28 183.83,-1126.66 82.74,-1514.85 -1.58,-6.08 -3.22,-12.15 -4.9,-18.18 -7.74,-27.67 -16.58,-54.75 -26.7,-80.59 -13.05,-33.42 -28.22,-64.75 -45.83,-92.57 -3.07,-4.87 -6.24,-9.64 -9.5,-14.32 -4.29,-6.17 -8.73,-12.17 -13.35,-17.96 -4.6,-5.77 -9.35,-11.35 -14.29,-16.71 -10.46,-11.36 -21.69,-21.71 -33.75,-30.78 -7.31,-5.5 -14.91,-10.53 -22.82,-15.02 -4.09,-2.31 -8.24,-4.48 -12.49,-6.51 -25.63,-12.22 -53.59,-18.64 -83.99,-18.57 -429.6,0.87 -348.24,684.61 -420.8,1092.28 -10.25,-188.23 -47.83,-523.36 -157.69,-779.6 -0.46,-1.09 -0.93,-2.17 -1.41,-3.26 -14.14,-32.56 -29.4,-63.67 -45.84,-92.95 -84.46,-150.36 -200.21,-252.27 -356.98,-252.29 -0.13,0 -0.27,0 -0.41,0 -87.83,0.22 -164.48,77.59 -228.1,204.01 198.99,238.46 292.83,602.12 271.14,879.33 -26.55,339.06 -83.71,817.59 -362.46,1087.71l89.26 122.53c0.13,0.09 0.25,0.19 0.38,0.28 14.7,11.46 30.79,20.81 48.63,28 6.56,2.61 13.34,4.92 20.34,6.95 2.6,0.74 5.23,1.46 7.9,2.13 9.27,2.27 18.32,4.07 27.17,5.39 3.86,0.58 7.67,1.06 11.44,1.46 0.08,0.02 0.17,0.02 0.25,0.03 0.1,0.01 0.21,0.02 0.31,0.04 1.05,0.1 2.09,0.2 3.16,0.3 20.05,1.82 39.01,1.19 56.94,-1.64 90.06,-14.22 154.22,-83.89 200.04,-175.9 0.33,-0.65 0.65,-1.3 0.97,-1.96 0.93,-1.9 1.87,-3.8 2.79,-5.72 2.06,-4.28 4.09,-8.61 6.07,-12.98 1.96,-4.32 3.88,-8.68 5.77,-13.09 0.86,-2.01 1.71,-4.02 2.56,-6.04 29.02,-69.39 49.31,-147.73 63.59,-223.12 9.53,-50.21 16.37,-99.12 21.36,-143.21 0.66,-5.81 1.29,-11.54 1.89,-17.19 1.36,-12.94 2.57,-25.39 3.63,-37.26 1.1,-12.24 2.06,-23.86 2.88,-34.75 1.25,9.05 2.9,18.33 4.94,27.82 11.02,51.5 33.28,109.06 63.44,168.19 7.03,13.74 14.46,27.55 22.26,41.34 1.02,1.81 2.06,3.64 3.1,5.45 50.58,87.94 113.59,171.62 170.22,234.29 0.97,1.07 1.93,2.14 2.9,3.2 28.88,31.57 58.67,60.93 88.56,87.09 48.93,42.69 98.6,77.2 144.85,98.67 0.2,0.09 0.42,0.19 0.62,0.28 39.21,17.97 76.14,26.56 108.7,23.09 0.12,-0.01 0.25,-0.02 0.37,-0.03 0.06,-0.02 0.14,-0.03 0.2,-0.04 50.7,-7.92 95.69,-47.32 134.58,-101.22 1.97,-2.78 3.93,-5.58 5.89,-8.46 1.18,-1.72 2.34,-3.45 3.51,-5.2 1.84,-2.76 3.69,-5.57 5.52,-8.4 2.62,-4.11 5.22,-8.28 7.79,-12.51 0.41,-0.7 0.84,-1.4 1.26,-2.1 9.85,-16.37 19.32,-33.65 28.38,-51.5 0.19,-0.36 0.36,-0.72 0.55,-1.08 13.87,-27.43 26.79,-56.2 38.71,-85.18 0.2,-0.49 0.4,-0.98 0.6,-1.45 35.63,-87.36 59.64,-170.61 70.65,-207.4 0.02,-0.09 0.05,-0.18 0.07,-0.28 0.85,-2.83 1.63,-5.39 2.33,-7.64 0.02,-0.12 0.06,-0.24 0.1,-0.35zm-150.44 369.49c2.62,-4.11 5.22,-8.28 7.79,-12.51 -2.6,4.24 -5.2,8.41 -7.79,12.51z"/>
  <path class="fil7 str0" d="M7328.42 7067.81c1.16,0.12 2.32,0.24 3.47,0.34 -1.07,-0.1 -2.11,-0.2 -3.16,-0.3 -0.1,-0.02 -0.21,-0.03 -0.31,-0.04zm1100.9 -63.75c10.57,-13.23 20.78,-27.66 30.62,-42.95 10.31,-16.06 20.2,-33.07 29.64,-50.65 0.14,-0.28 0.29,-0.56 0.44,-0.84 3.8,-7.19 7.55,-14.49 11.23,-21.9 0.64,-1.29 1.27,-2.58 1.91,-3.88 0.09,-0.17 0.18,-0.35 0.26,-0.51 12.06,-24.59 23.39,-50.13 33.91,-75.79 35.72,-87.58 59.75,-171.03 70.72,-207.68 0.83,-2.72 1.57,-5.18 2.24,-7.36 0.02,-0.1 0.05,-0.19 0.07,-0.28 0.04,-0.12 0.08,-0.24 0.12,-0.35 66.11,-234.69 118.41,-556.47 132.01,-865.98 10.13,-243.22 -3.82,-474.36 -49.27,-648.87 -6.34,-24.37 -13.52,-48.42 -21.61,-71.69 -0.15,-0.42 -0.3,-0.85 -0.45,-1.29 -0.55,-1.58 -1.11,-3.17 -1.67,-4.75 -0.96,-2.67 -1.92,-5.33 -2.9,-7.98 -1.63,-4.39 -3.28,-8.75 -4.97,-13.06 -12.29,-31.43 -27.34,-63.36 -45.83,-92.56 -3.07,-4.85 -6.24,-9.63 -9.5,-14.33 -8.52,-12.25 -17.72,-23.89 -27.64,-34.65 -0.22,-0.25 -0.45,-0.49 -0.67,-0.74 -14.72,-15.87 -30.96,-29.76 -48.89,-40.91 -2.31,-1.44 -4.66,-2.82 -7.01,-4.17 -4.09,-2.31 -8.24,-4.48 -12.49,-6.51 -17.15,-8.17 -35.34,-13.75 -54.61,-16.53 -9.53,-1.37 -19.32,-2.07 -29.38,-2.04 -429.6,0.87 -348.24,684.61 -420.8,1092.28 -0.01,-0.22 -0.02,-0.46 -0.04,-0.68 -8.16,-149.31 -41.06,-506.29 -157.76,-778.87 -0.46,-1.09 -0.94,-2.19 -1.4,-3.26 -6.79,-15.74 -13.87,-31.19 -21.23,-46.29 -0.23,-0.46 -0.45,-0.93 -0.69,-1.39 -7.64,-15.53 -15.58,-30.66 -23.82,-45.32 -84.46,-150.36 -200.21,-252.27 -356.98,-252.29 -0.13,0 -0.27,0 -0.41,0 -87.83,0.22 -164.48,77.59 -228.1,204.01 198.99,238.46 292.83,602.12 271.14,879.33 -26.55,339.06 -83.71,817.59 -362.46,1087.71l89.64 122.81c24.08,17.79 51.61,30.55 80.47,37.94 0.34,0.09 0.67,0.16 1.01,0.24 2.24,0.51 4.46,1 6.67,1.46 5.37,1.11 10.66,2.05 15.89,2.83 3.86,0.58 7.67,1.06 11.44,1.46 0.08,0.02 0.17,0.02 0.25,0.03 0.1,0.01 0.21,0.02 0.31,0.04 1.05,0.1 2.11,0.21 3.16,0.3 14.85,1.36 29.12,1.36 42.82,0.11 0.51,-0.04 1.02,-0.09 1.53,-0.14 0.76,-0.07 1.51,-0.15 2.27,-0.24 2.64,-0.28 5.26,-0.62 7.87,-0.99 0.81,-0.13 1.64,-0.25 2.45,-0.38 90.17,-14.24 154.3,-84.13 200.03,-175.92 0.33,-0.64 0.65,-1.29 0.96,-1.94 0.95,-1.9 1.88,-3.81 2.8,-5.72 2.06,-4.28 4.08,-8.61 6.07,-13 1.96,-4.32 3.88,-8.67 5.77,-13.07 0.11,-0.25 0.21,-0.5 0.32,-0.75 0.75,-1.76 1.5,-3.52 2.25,-5.29 1.01,-2.42 2.01,-4.84 2.99,-7.28 0.62,-1.48 1.21,-2.98 1.81,-4.48 1.69,-4.22 3.34,-8.46 4.96,-12.75 23.89,-63.03 41.21,-131.97 53.83,-198.61 9.53,-50.21 16.37,-99.12 21.36,-143.21 0.66,-5.83 1.29,-11.57 1.89,-17.24 0.01,-0.06 0.01,-0.12 0.02,-0.18 1.35,-12.86 2.55,-25.24 3.61,-37.03 1.1,-12.24 2.06,-23.86 2.88,-34.75 0.03,0.14 0.04,0.28 0.07,0.42 1.22,8.87 2.87,17.99 4.88,27.32 30.91,143.14 151.21,337.85 286.92,479.1 0.25,0.26 0.5,0.51 0.75,0.77 2.58,2.65 5.17,5.29 7.76,7.91 18.17,18.35 36.59,35.71 55.04,51.86 48.93,42.69 98.6,77.2 144.85,98.67 0.2,0.09 0.42,0.19 0.62,0.28 32.16,14.74 62.77,23.17 90.71,23.82 0.1,0 0.2,0 0.3,0 6,0.11 11.91,-0.13 17.69,-0.73 0.12,-0.01 0.25,-0.02 0.37,-0.03 0.06,-0.02 0.14,-0.03 0.2,-0.04 0.19,-0.03 0.38,-0.05 0.56,-0.09 43.75,-7.03 83.25,-37.5 118.22,-80.49z"/>
  <path class="fil7 str0" d="M6862.25 7061.67c103.58,-36 189.45,-91.49 260.8,-160.63 278.75,-270.12 335.91,-748.65 362.46,-1087.71 21.69,-277.21 -72.15,-640.87 -271.14,-879.33 -68.6,-82.21 -149.7,-149.54 -242.87,-193.32 -62.09,-29.17 -129.55,-47.88 -202.24,-53.56 -107.27,-8.38 -204.17,1.76 -291.54,26.79 -103.27,29.59 -193.19,79.99 -271.07,145.14 22.91,48.17 29.64,99.18 24.42,148.49 -12.3,116.17 -82.21,282.69 -347.21,342.21 -65.19,176.14 -100.54,362.63 -113.33,526.03 -0.19,11.57 -0.9,23.64 -2.15,36.26 -6.21,151.8 20.14,333.22 77.8,508.3 133.77,2.48 239.26,36.18 268.5,154.02 25.56,102.98 24.58,210.78 -12.28,306.05 72.78,79.75 157.1,143.64 252.69,183.12 72.02,29.73 150.44,45.61 235.1,43.98 102.15,-1.97 192.35,-18.14 272.06,-45.84zm-165.38 -1002.13c-27.75,17.54 -57.79,28.85 -88.77,31.34 -110.1,8.81 -209.49,-149.25 -205.93,-259.64 3.97,-123.48 100.7,-285.61 223.83,-295.45 36.84,-2.94 73.64,11.25 106.47,35.64 68.65,51.02 119.84,146.75 117.36,223.99 -3.08,96.09 -67.12,209.88 -152.96,264.12z"/>
  <path class="fil5 str0" d="M1232.53 6077.81c22.84,-31.03 38.88,-69.4 45.29,-116.58 -37.39,-1.86 -72.29,-16.49 -96.13,-43.85 -28.96,-53.14 -20.74,-87.46 0.5,-101.39 -3.17,-0.25 -6.38,-0.53 -9.6,-0.84 -50.58,-4.88 -107.22,-17.17 -163.58,-34.76 -31.55,8.74 -58.42,19.34 -81.43,31.44 90.27,204.29 72,248.56 304.95,265.98z"/>
  <path class="fil5 str0" d="M1278.49 5870.48c0.13,0.39 0.25,0.76 0.36,1.15 -0.11,-0.39 -0.23,-0.76 -0.36,-1.15zm0.36 1.15c0.34,3.48 0.63,6.93 0.88,10.33 -0.14,-3.63 -0.49,-7.06 -0.88,-10.33zm-1.03 89.6c120.72,5.98 267.32,-121.29 150.88,-383.78 -8.41,-12.7 -15.46,-25.11 -21.14,-36.42 -4.41,31.76 -8.28,61.75 -12.49,89.45 -1.17,24.47 -5.35,47.94 -13.05,69.83 -19.42,80.72 -52.73,127.73 -137.18,118.87 14.38,2.85 21.32,15.47 26.06,30.28 3.39,5.86 6.09,12.8 7.59,21.02 0.08,0.39 0.14,0.79 0.36,1.15 0.34,3.48 0.63,6.93 0.88,10.33 2.12,28.84 1.36,55.2 -1.91,79.27z"/>
  <path class="fil5 str0" d="M1279.73 5881.96c-2.44,-7.89 -4.37,-16.82 -6.74,-25.44 -4.2,-8.85 -9.3,-16.44 -15.01,-22.82 -17.24,-15.24 -35.69,-15.82 -17.99,-15.07 -3.01,-0.39 -6.07,-0.83 -9.21,-1.36 -12.89,-2.03 -31.46,-2.58 -46.79,-2.4 -0.62,0.35 -1.21,0.73 -1.8,1.12 -21.24,13.93 -29.46,48.25 -0.5,101.39 23.84,27.36 58.74,41.99 96.13,43.85 3.27,-24.07 4.03,-50.43 1.91,-79.27z"/>
  <path class="fil5 str0" d="M1428.7 5577.45c33.17,50.12 87.44,104.69 162,113.38 37.07,-74.54 31.21,-194.03 -33.12,-248.91 -11.05,-9.41 -21.96,-16.27 -32.62,-20.96 -5.88,-2.2 -11.06,-3.25 -16.78,-4.83 -2.79,-0.25 -5.24,-1.05 -7.4,-2.36 -67.77,-10.57 -118.31,61.36 -107.07,94.83 13.63,23.89 25.22,46.85 34.99,68.85z"/>
  <path class="fil5 str0" d="M1089.07 6173.9c-150.26,-73.04 -169.54,-128.3 -251.97,-285.86 -27.62,37.53 -42.46,79.58 -54.63,121.6 75.68,104.13 110.65,221.48 305.95,164.46l0.3 -0.09 0.35 -0.11z"/>
  <path class="fil7 str0" d="M837.1 5888.04c82.43,157.56 101.71,212.82 251.97,285.86 57.09,-18.13 108.32,-48.42 143.46,-96.09 -232.95,-17.42 -214.68,-61.69 -304.95,-265.98 -40.68,21.4 -69.32,47.48 -90.48,76.21z"/>
  <path class="fil7 str0" d="M1088.42 6174.1c-195.29,57.02 -230.26,-60.33 -305.97,-164.46 -16.44,56.7 -28.07,113.36 -59.73,158.84 66.18,23.57 231.91,47.88 365.7,5.62zm0 0c-195.29,57.02 -230.27,-60.31 -305.95,-164.46 75.68,104.13 110.65,221.48 305.95,164.46z"/>
  <path class="fil8 str0" d="M1349.45 5758.49c-0.08,0.25 -0.16,0.52 -0.23,0.77 0.07,-0.25 0.16,-0.5 0.23,-0.77zm-286.86 -260.87c82.17,35.22 165.38,83.75 221.48,133.77 24.88,21.54 45.52,44.28 57.39,67.18 0.04,0.06 0.08,0.14 0.12,0.2 7.2,13.02 11.11,25.33 11.16,36.55 0.03,7.03 -0.74,13.55 -2.28,19.6 -0.03,0.17 -0.08,0.33 -0.12,0.5 -0.27,1.04 -0.57,2.06 -0.9,3.07 -0.07,0.25 -0.15,0.52 -0.27,0.75 14.55,-17.79 25.36,-37.61 32.85,-58.93 5.09,-21.1 9.21,-44.51 13.05,-69.83 10.6,-221.52 -226.61,-525.39 -362.51,-486.2 -76.9,22.17 -43.74,192.82 27.63,352.32 0.69,0.3 1.39,0.59 2.07,0.89 0.12,0.05 0.22,0.08 0.33,0.13z"/>
  <path class="fil8 str0" d="M1349.22 5759.26c0.07,-0.25 0.15,-0.52 0.23,-0.77 -0.08,0.25 -0.16,0.52 -0.23,0.77zm-103.57 -158.02c-75,-53.98 -164.93,-95.39 -182.42,-103.28 -0.08,-0.04 -0.14,-0.06 -0.22,-0.09 -0.07,-0.03 -0.16,-0.07 -0.23,-0.11 -0.08,-0.04 -0.14,-0.06 -0.22,-0.1 -1.54,-0.69 -2.36,-1.05 -2.37,-1.06 82.25,183.81 215.22,352.79 288.98,262.64 0.08,-0.25 0.16,-0.51 0.25,-0.76 0.32,-1.02 0.61,-2.05 0.88,-3.07 0.04,-0.17 0.08,-0.34 0.13,-0.5 0.26,-1.03 0.48,-2.08 0.68,-3.13 4.91,-25.54 -7.09,-53.9 -30.55,-82.76 -0.1,-0.12 -0.2,-0.25 -0.31,-0.39 -0.08,-0.1 -0.18,-0.21 -0.27,-0.32 -18.44,-21.67 -43.81,-44.4 -73.9,-66.74 -0.15,-0.11 -0.28,-0.21 -0.43,-0.33z"/>
  <path class="fil8 str0" d="M1183.99 5814.86c14.63,-8.51 34.73,-7.96 53.17,2.12 -18.43,-10.08 -38.54,-10.65 -53.17,-2.12zm165.18 -55.62c-73.75,90.15 -206.73,-78.83 -288.98,-262.64 -150.73,-64.16 -314.35,-88.05 -369.71,5.52 -58.69,99.19 128.4,218.92 318.53,278.26 56.36,17.6 113,29.89 163.58,34.77 3.46,-0.14 7.31,-0.25 11.4,-0.28 14.62,-8.52 34.73,-7.97 53.17,2.11 57.76,-3.03 99.96,-20.65 112.01,-57.74z"/>
  <path class="fil5 str0" d="M10821.47 5042.27c25.84,6.79 45.54,38.27 34.44,100.99 -14.62,35.26 -44.53,61.54 -81.19,75.91 22.18,44.92 51.03,77.83 84.21,101.13 226.53,-95.38 193.49,-133.42 215.11,-367.43 -27.01,-4.37 -57.35,-5.94 -91.75,-4.09 -50.34,36.43 -102.72,67.65 -151.53,89.45 -3.11,1.38 -6.21,2.73 -9.29,4.04z"/>
  <path class="fil5 str0" d="M10773.43 5059.84c-2.96,1.57 -5.87,3.04 -8.74,4.43 2.87,-1.39 5.78,-2.86 8.74,-4.43zm1.29 159.33c36.66,-14.37 66.57,-40.65 81.19,-75.91 11.1,-62.72 -8.6,-94.2 -34.44,-100.99 -0.73,-0.19 -1.45,-0.35 -2.17,-0.51 -15.36,4.96 -33.71,11.72 -45.87,18.06 -2.16,0.65 -4.32,1.28 -6.46,1.86 -0.76,0.84 -1.52,1.7 -2.27,2.58 17.42,-6.67 -0.83,0.1 -12.93,21.12 -3.53,8.21 -6.08,17.47 -7.3,27.68 0.52,9.41 1.59,19 1.79,27.7 7.54,29.48 17.13,55.51 28.46,78.41z"/>
  <path class="fil5 str0" d="M10774.72 5219.17c-11.33,-22.9 -20.92,-48.93 -28.46,-78.41 7.54,29.48 17.13,55.51 28.46,78.41zm-14.7 -152.7c-81.26,37.09 -130.24,1.34 -176.63,-72.66 -14.99,-19.25 -27.04,-41.26 -36.4,-65.28 -13.47,-26.22 -27.38,-54.85 -42.41,-85.05 -1.89,13.19 -4.76,27.93 -8.89,43.41 -28.25,300.84 160.6,378.69 279.03,332.28 -11.33,-22.9 -20.92,-48.93 -28.46,-78.41 -0.75,-2.56 -1.36,-5.04 -1.86,-7.47 -0.25,-1.04 -0.48,-2.09 -0.73,-3.14 -0.02,-0.44 -0.02,-0.88 -0.03,-1.31 -1.25,-8.68 -0.86,-16.51 0.54,-23.47 -0.21,-16.34 2.47,-31.24 15.84,-38.9z"/>
  <path class="fil5 str0" d="M10372.06 5054.23c71.47,-33.63 107.33,-106.24 123.63,-167.34 2.37,-25.22 6.26,-52 11.85,-80.4 0,-37.15 -74.51,-91.97 -138.55,-58.74 -1.72,2.03 -3.91,3.65 -6.61,4.84 -5.18,3.49 -10,6.28 -15.11,10.43 -9.07,8.25 -17.66,18.74 -25.52,31.84 -45.79,76.28 -11.63,197.44 50.31,259.37z"/>
  <path class="fil5 str0" d="M11189.82 4998.59c-29.47,184.77 -30.18,246.35 -155.61,369.52l0.47 0c0.07,-0.01 0.16,-0.01 0.25,-0.01 213.9,-8.53 209.49,-137.29 250.12,-266.52 -26.23,-37.84 -55.12,-74.8 -95.23,-102.99z"/>
  <path class="fil7 str0" d="M11034.21 5368.11c125.43,-123.17 126.14,-184.75 155.61,-369.52 -30.73,-21.57 -68.03,-38 -115.78,-45.72 -21.62,234.01 11.42,272.05 -215.11,367.43 51.01,35.79 112.26,48.85 175.28,47.81z"/>
  <path class="fil7 str0" d="M11285.05 5101.58c-40.63,129.23 -36.22,257.99 -250.12,266.52 147.61,-2.66 304.79,-82.41 362.9,-128.08 -46.82,-34.75 -77.39,-87.38 -112.78,-138.44z"/>
  <path class="fil8 str0" d="M10634.39 4941.54c29.78,-74.7 107.23,-173.92 198.38,-255.63 -87.02,77.95 -168.55,176.69 -198.38,255.63zm1.47 100.08c-0.13,-0.17 -0.26,-0.35 -0.39,-0.53 -0.67,-0.92 -1.32,-1.86 -1.95,-2.83 -0.08,-0.11 -0.16,-0.23 -0.24,-0.36 -3.61,-5.55 -6.6,-11.87 -8.95,-18.97 -6.46,-19.53 -2.32,-46.25 10.05,-77.36 -15.24,40.45 -16.83,75.63 1.48,100.05zm-1.47 -100.08c29.73,-78.82 111.3,-177.63 198.38,-255.63 0.46,-0.43 0.92,-0.84 1.38,-1.25 0.68,-0.61 1.36,-1.21 2.05,-1.82 17.78,-183 -6.29,-364.33 -90.42,-360.7 -148.68,6.42 -283.53,388.97 -198.79,606.39 12.31,23.95 24.27,45.93 36.4,65.28 14.61,18.76 32.04,34.92 52.47,47.81 -0.13,-0.17 -0.26,-0.36 -0.39,-0.53 -0.68,-0.93 -1.33,-1.86 -1.95,-2.83 -0.08,-0.11 -0.16,-0.23 -0.24,-0.36 -3.61,-5.55 -6.6,-11.87 -8.95,-18.97 -6.46,-19.54 -2.32,-46.27 9.99,-77.19 0.02,-0.08 0.05,-0.14 0.07,-0.2zm198.38 -255.63c0.46,-0.43 0.92,-0.84 1.38,-1.25 -0.46,0.41 -0.92,0.82 -1.38,1.25zm0 0c0.46,-0.43 0.92,-0.84 1.38,-1.25 -0.46,0.41 -0.92,0.82 -1.38,1.25z"/>
  <path class="fil8 str0" d="M10782.69 4733.92c-68.7,70.39 -124.17,147.08 -148.31,207.65 -0.29,0.78 -0.58,1.56 -0.86,2.34 -14.43,39.46 -15.61,73.75 2.38,97.69 103.76,65.22 179.81,-147.88 200.3,-358.76 -0.69,0.61 -1.36,1.21 -2.05,1.82 -0.46,0.41 -0.92,0.82 -1.38,1.25 -2.49,2.22 -4.96,4.47 -7.43,6.73 -1.91,1.74 -3.83,3.5 -5.73,5.28 -1.77,1.63 -3.53,3.28 -5.29,4.94 -0.87,0.81 -1.74,1.64 -2.6,2.45 -7.78,7.4 -17.03,16.41 -27.22,26.76 -0.61,0.62 -1.21,1.24 -1.81,1.85zm1.8 -1.85c-0.47,0.49 -0.96,0.99 -1.44,1.48 0.48,-0.49 0.97,-0.99 1.44,-1.48z"/>
  <path class="fil8 str0" d="M10819.3 5041.76c4.08,-1.32 7.96,-2.51 11.46,-3.53 -3.5,1.02 -7.37,2.21 -11.46,3.53zm16.9 -358.92c-20.49,210.88 -96.54,423.98 -200.34,358.78 24.47,32.94 72.48,36.38 131.11,20.06 15.01,-16.24 34.87,-23.52 52.33,-19.92 0.72,0.16 1.44,0.32 2.17,0.51 3.08,-1.31 6.18,-2.66 9.29,-4.04 48.81,-21.8 101.19,-53.02 151.53,-89.45 169.78,-122.87 316.3,-304.96 224.54,-384.24 -86.55,-74.8 -241.75,3.83 -370.63,118.3z"/>
 </g>
</svg>
