<svg width="1920" height="431" viewBox="0 0 1920 431" fill="none" xmlns="http://www.w3.org/2000/svg">
<path fill-rule="evenodd" clip-rule="evenodd" d="M0 142.674L80.1667 181.118C160.333 219.561 320.667 296.448 481 258.005C641.333 219.561 801.667 65.7876 962 17.7333C1122.33 -30.321 1282.67 27.3442 1443 94.6201C1603.33 161.896 1763.67 238.783 1843.83 277.226L1924 315.67V431H1843.83C1763.67 431 1603.33 431 1443 431C1282.67 431 1122.33 431 962 431C801.667 431 641.333 431 481 431C320.667 431 160.333 431 80.1667 431H0V142.674Z" fill="#E9D758"/>
</svg>
